<svg width="48" height="48" viewBox="0 0 48 48" fill="none" xmlns="http://www.w3.org/2000/svg">
<path d="M22.0945 9.32298C22.2061 9.26077 22.3736 9.13793 22.6448 8.94492C22.7804 8.8524 22.9479 8.74073 23.1457 8.61152C23.3436 8.4871 23.5844 8.34513 23.8636 8.20953C23.988 8.14732 24.1236 8.08511 24.2719 8.03566C24.2289 8.25898 24.2161 8.48711 24.2592 8.71682C24.315 9.02628 24.4697 9.34211 24.7473 9.54629C24.8829 9.6452 25.0376 9.72017 25.1988 9.75048C25.3599 9.78717 25.5322 9.79355 25.706 9.75048C25.8735 9.70741 26.0394 9.62127 26.1575 9.49046C26.2819 9.36125 26.3553 9.20014 26.3984 9.03901C26.435 8.8779 26.435 8.7104 26.4047 8.55566C26.3744 8.40093 26.3186 8.2462 26.2261 8.11062C26.0474 7.84423 25.7874 7.6831 25.5385 7.59698C25.3152 7.51722 25.0999 7.4917 24.8893 7.49808C24.9388 7.42948 24.9882 7.36886 25.0504 7.31303C25.2179 7.15192 25.4285 7.06578 25.6566 7.04025C25.8799 7.01473 26.1081 7.0594 26.3123 7.13916C26.5164 7.21891 26.6903 7.34972 26.8323 7.49808C26.9742 7.64643 27.0859 7.8203 27.1784 7.9862C27.3571 8.33236 27.4321 8.67373 27.4751 8.96404C27.5182 9.25436 27.531 9.49047 27.5437 9.65157C27.5437 9.67709 27.5501 9.70102 27.5501 9.72654C27.4321 9.74568 27.3156 9.77599 27.1976 9.83182C27.0301 9.90679 26.8753 10.0232 26.7525 10.1652C26.6281 10.3136 26.5356 10.4874 26.4861 10.6725C26.4367 10.8575 26.4239 11.0617 26.4606 11.2484C26.2564 11.2787 26.0522 11.317 25.8481 11.36C25.7188 11.3903 25.588 11.4223 25.4652 11.4653C25.3408 11.502 25.2052 11.5515 25.0824 11.6073C24.8415 11.719 24.6054 11.8609 24.4012 12.0412C24.1906 12.1529 23.9865 12.2948 23.8078 12.4623C23.6722 12.5915 23.5414 12.7351 23.4361 12.8898C23.3245 13.0446 23.2319 13.212 23.157 13.3843C23.0022 13.7305 22.9097 14.0958 22.8666 14.4738C22.8236 14.8567 22.8603 15.2411 22.9464 15.6128C23.0325 15.9781 23.157 16.3306 23.2989 16.6704C23.4409 17.0102 23.5956 17.3452 23.7823 17.6658C23.9673 17.988 24.1843 18.3039 24.4379 18.5815C24.6916 18.8606 24.9947 19.1015 25.3296 19.2865C25.663 19.4716 26.0347 19.596 26.4192 19.6263C26.5675 19.6391 26.7223 19.6327 26.8706 19.6136C27.1051 19.6502 27.3412 19.6566 27.5693 19.6199C27.8293 19.5769 28.0766 19.4652 28.2616 19.2977C28.4466 19.1366 28.5711 18.9324 28.6269 18.7218C28.6572 18.6165 28.67 18.5113 28.67 18.4124C28.67 18.3135 28.6572 18.2209 28.6333 18.1332C28.5902 17.9657 28.5216 17.8237 28.4658 17.7057C28.41 17.5876 28.3541 17.4887 28.3111 17.409C28.2249 17.2479 28.1866 17.1617 28.1755 17.1617C28.201 17.1553 28.2121 17.1187 28.2185 17.0198C28.2249 16.9272 28.2121 16.7725 28.2441 16.5364C28.2632 16.4184 28.2935 16.2828 28.3493 16.128C28.3796 16.0531 28.4179 15.9733 28.4674 15.8935C28.4929 15.8569 28.5168 15.8138 28.5471 15.7755L28.5918 15.7308C28.6046 15.7181 28.6285 15.7005 28.6413 15.6878C28.721 15.6256 28.8263 15.5633 28.938 15.5027C29.056 15.4405 29.1788 15.3847 29.3208 15.3241C29.6 15.206 29.9142 15.0944 30.2795 14.9955C30.3226 14.9827 30.3593 14.9588 30.3912 14.9205H30.447C30.4773 14.9205 30.4965 14.9269 30.5332 14.9396C30.5635 14.946 30.5954 14.9588 30.6257 14.9651C30.8793 15.0449 31.1027 15.1949 31.2749 15.3863C31.3611 15.4788 31.436 15.5841 31.4919 15.6957C31.5477 15.801 31.5908 15.9191 31.6274 16.0419C31.7024 16.2828 31.7567 16.5428 31.8938 16.7789C31.9624 16.8969 32.055 17.0022 32.1602 17.0819C32.2655 17.1617 32.3836 17.2175 32.5 17.2558C32.7042 17.318 32.9148 17.3244 33.1062 17.2925C33.2545 17.3483 33.4093 17.3723 33.5576 17.3723C33.7124 17.3723 33.8544 17.3356 33.9915 17.2861C34.2579 17.1872 34.4749 17.0197 34.6408 16.8475C34.9742 16.4885 35.1417 16.0993 35.2342 15.7707C35.2836 15.6096 35.3091 15.4613 35.3267 15.332C35.3458 15.2028 35.3522 15.0976 35.357 15.0034C35.3634 14.8248 35.3506 14.7307 35.3442 14.7307C35.3698 14.7307 35.4064 14.6318 35.4192 14.3223C35.4256 14.0128 35.3889 13.4864 35.172 12.6761C35.1161 12.4719 35.0539 12.255 34.9741 12.0141C34.8944 11.7732 34.7891 11.5196 34.6519 11.2468C34.5099 10.9804 34.3361 10.6964 34.0888 10.43C33.9644 10.2945 33.8224 10.1764 33.6677 10.052C33.5066 9.94032 33.3343 9.83504 33.1413 9.7489C32.9499 9.66276 32.7457 9.58779 32.5351 9.53834C32.3182 9.48889 32.0964 9.45219 31.8604 9.43943C31.6259 9.42667 31.3834 9.43305 31.1362 9.46974C31.0739 9.47612 31.0117 9.48888 30.9511 9.50005C30.9208 9.50643 30.8889 9.51281 30.8586 9.51919C30.8283 9.52557 30.7964 9.53195 30.7597 9.54472C30.6305 9.57502 30.5061 9.61969 30.3768 9.66914C30.1232 9.76804 29.8887 9.90364 29.6526 10.0472C29.4181 10.1956 29.1948 10.3503 28.9603 10.4987C28.9476 10.505 28.9412 10.5114 28.93 10.5178C28.9236 10.4875 28.9109 10.4492 28.8933 10.4061C28.863 10.3312 28.8136 10.245 28.745 10.1461C28.67 10.0536 28.5711 9.95469 28.4291 9.87334C28.2935 9.78719 28.1197 9.7186 27.9091 9.69467C27.823 9.68191 27.7352 9.68191 27.6427 9.69467C27.6427 9.67553 27.6491 9.6516 27.6491 9.63246C27.6619 9.47135 27.6794 9.23047 27.6619 8.92737C27.6427 8.62429 27.5869 8.25263 27.4146 7.86978C27.3285 7.67836 27.2104 7.48056 27.0557 7.30031C26.9759 7.20779 26.8882 7.12644 26.7893 7.04668C26.6904 6.96692 26.5787 6.89832 26.4559 6.84249C26.215 6.73083 25.9423 6.66862 25.6519 6.68776C25.5099 6.70052 25.3616 6.73083 25.2244 6.78666C25.0824 6.84249 24.9516 6.92225 24.8415 7.02753C24.6804 7.16951 24.5512 7.34976 24.4587 7.54118C24.3725 7.5667 24.2848 7.59063 24.2051 7.61615C24.02 7.68474 23.8525 7.75812 23.7106 7.83948C23.4139 8.00059 23.1778 8.15533 22.9799 8.2973C22.7821 8.43928 22.621 8.57008 22.4855 8.68653C22.2254 8.91623 22.0835 9.07575 22.0021 9.18102C21.9271 9.2863 21.916 9.33576 21.9335 9.3549C21.9335 9.39637 21.9828 9.38998 22.0945 9.32298ZM32.5508 17.0885C32.353 17.0199 32.1791 16.8907 32.0738 16.6929C31.9621 16.5015 31.9127 16.2542 31.8441 16.0006C31.8074 15.8714 31.7643 15.7342 31.6957 15.605C31.6271 15.4758 31.5474 15.3514 31.4485 15.2397C31.2507 15.0164 30.997 14.8377 30.7003 14.7324C30.6637 14.7197 30.6254 14.7069 30.5887 14.6957C30.5584 14.683 30.5025 14.6702 30.4595 14.6702C30.4292 14.6702 30.3973 14.6638 30.3669 14.6638C30.3239 14.6208 30.2617 14.5952 30.1931 14.6016C30.008 14.6208 29.8278 14.6638 29.6427 14.7133C29.4577 14.7627 29.2647 14.8186 29.0668 14.8919C28.8371 14.9717 28.6026 15.0658 28.3745 15.1759C28.3187 15.2062 28.2565 15.2317 28.2006 15.262L28.1145 15.3051L28.0284 15.3545C27.9103 15.4295 27.7987 15.4901 27.6758 15.6337C27.6567 15.6528 27.6503 15.664 27.6391 15.6768L27.6088 15.7198C27.5897 15.7502 27.5721 15.7821 27.553 15.8124C27.5163 15.8746 27.4844 15.9368 27.4541 16.0038C27.3983 16.133 27.3552 16.2702 27.3249 16.4122C27.2691 16.6913 27.2818 16.988 27.368 17.2656C27.4477 17.5383 27.5849 17.7665 27.6647 17.9834C27.7077 18.0887 27.7333 18.194 27.7444 18.2992C27.7572 18.4045 27.7444 18.4971 27.7141 18.5959C27.7013 18.639 27.6838 18.6757 27.6647 18.714C27.5897 18.856 27.4796 18.9804 27.3424 19.0665C27.0952 19.2276 26.7666 19.2899 26.4459 19.258C26.1237 19.2276 25.8031 19.1224 25.5111 18.9549C25.2208 18.7874 24.9544 18.572 24.7247 18.3168C24.2605 17.8095 23.9446 17.1714 23.6735 16.5158C23.5379 16.1872 23.4198 15.8602 23.3449 15.5204C23.2699 15.187 23.2396 14.8457 23.2763 14.5186C23.313 14.1852 23.4055 13.8566 23.5363 13.5535C23.6049 13.4052 23.6846 13.2632 23.7772 13.126C23.8697 12.9968 23.9814 12.8724 24.093 12.7671C24.3275 12.5501 24.6067 12.3842 24.9034 12.279C25.2065 12.1673 25.5287 12.0939 25.8557 12.0381C26.1779 11.9823 26.5049 11.9392 26.8272 11.8834C27.1494 11.8275 27.4652 11.7542 27.762 11.6489C28.0651 11.5436 28.3442 11.4016 28.5914 11.2469C28.8451 11.0985 29.0748 10.9374 29.2965 10.7954C29.5199 10.6535 29.7352 10.529 29.9522 10.4365C30.1691 10.344 30.3861 10.2882 30.6142 10.2515C31.0592 10.1765 31.4931 10.1893 31.876 10.2579C32.0674 10.2945 32.254 10.3504 32.4199 10.4126C32.5874 10.4812 32.7485 10.5609 32.8841 10.6535C33.0261 10.746 33.1505 10.8449 33.2622 10.9565C33.3738 11.0682 33.4727 11.1863 33.5589 11.3027C33.7327 11.5436 33.8619 11.786 33.9608 12.0205C33.9736 12.0508 33.9864 12.0827 33.9975 12.1131C34.0406 12.2247 34.0837 12.33 34.122 12.4417C34.3453 13.0909 34.5176 13.7465 34.5559 14.3719C34.5989 14.9972 34.4873 15.6097 34.2272 16.1042C34.165 16.2287 34.0917 16.3451 34.0039 16.4504C33.9242 16.5557 33.83 16.6546 33.7311 16.7407C33.5397 16.9146 33.3164 17.0374 33.0819 17.0869H33.0755C33.0628 17.0933 33.0452 17.0996 33.0325 17.106C32.8905 17.1555 32.7183 17.1443 32.5508 17.0885ZM27.848 10.1336C27.99 10.1464 28.1144 10.183 28.2133 10.2389C28.3122 10.2883 28.3919 10.3505 28.4605 10.4064C28.5228 10.4686 28.5722 10.5244 28.6089 10.5739C28.6392 10.6106 28.6583 10.6425 28.6839 10.6728C28.5291 10.7589 28.368 10.8339 28.2005 10.8961C27.9341 10.995 27.6502 11.0636 27.3471 11.1194C27.186 11.1497 27.0137 11.1753 26.8462 11.1992C26.8271 11.0636 26.8334 10.92 26.8765 10.7908C26.9563 10.5308 27.1493 10.3203 27.3774 10.2213C27.4572 10.1847 27.5449 10.1591 27.6183 10.1464C27.706 10.1336 27.7794 10.1272 27.848 10.1336ZM25.4041 7.99284C25.5892 8.06143 25.7694 8.17788 25.8811 8.34538C25.9928 8.50649 26.0359 8.74098 25.9928 8.93878C25.9673 9.03768 25.9242 9.1302 25.8572 9.19879C25.7886 9.26739 25.7088 9.31684 25.6099 9.34714C25.4121 9.39659 25.1649 9.34714 24.991 9.21793L24.9304 9.16689C24.9049 9.14774 24.8937 9.1302 24.8746 9.11105C24.8554 9.09191 24.8379 9.06798 24.8187 9.04246C24.806 9.01694 24.7884 8.99301 24.7693 8.96749C24.7135 8.86859 24.6704 8.75692 24.6449 8.63888C24.6018 8.40438 24.6193 8.15553 24.6879 7.92742C24.7374 7.92104 24.7868 7.91466 24.8363 7.90828C25.0133 7.90668 25.2127 7.92425 25.4041 7.99284Z" fill="#F6E233"/>
<path d="M32.822 26.5481C32.8284 26.5354 32.8284 26.5226 32.8347 26.505C32.8475 26.4253 32.8411 26.3439 32.822 26.2753C32.8028 26.2067 32.7789 26.1509 32.747 26.1015C32.6912 26.0026 32.6226 25.9276 32.562 25.867C32.5125 25.8175 32.4567 25.7681 32.4009 25.725C32.4136 25.7186 32.4264 25.7122 32.4375 25.7059C32.5125 25.6628 32.5987 25.5942 32.6848 25.5144C32.7709 25.4283 32.8635 25.3294 32.964 25.1986C33.0629 25.0742 33.1618 24.9258 33.2734 24.7647C33.3293 24.6849 33.3851 24.5972 33.4473 24.5111C33.4776 24.468 33.5095 24.4185 33.5462 24.3691C33.5765 24.3196 33.6148 24.2638 33.6451 24.2143C33.9115 23.7805 34.1332 23.2795 34.3135 22.7787C34.3996 22.5251 34.481 22.2778 34.548 22.0306C34.6102 21.7769 34.6596 21.5233 34.6405 21.2696C34.6341 21.1452 34.615 21.0224 34.5783 20.9107C34.5416 20.7991 34.4921 20.7002 34.4363 20.6076C34.3135 20.4417 34.1587 20.3173 34.0168 20.2567C33.9801 20.2439 33.9482 20.2312 33.9115 20.22C33.8748 20.2136 33.8429 20.2072 33.8126 20.2072C33.7695 20.2072 33.7265 20.2136 33.6882 20.2264C33.6627 20.1466 33.6387 20.0716 33.5957 19.9967C33.5271 19.8611 33.4218 19.743 33.3053 19.6569C33.1873 19.5771 33.0581 19.5277 32.9337 19.5213C32.8092 19.5149 32.7103 19.5468 32.637 19.5899C32.6114 19.6027 32.5875 19.6202 32.5684 19.6394C32.5189 19.5149 32.4439 19.3985 32.345 19.2996C32.2828 19.2374 32.2094 19.1815 32.1281 19.1385C32.0483 19.0954 31.9606 19.0763 31.8808 19.0635C31.7133 19.0443 31.5522 19.089 31.4358 19.1752C31.3927 19.2055 31.3608 19.2437 31.3305 19.2868C31.2013 19.1018 31.0338 18.9407 30.836 18.8035C30.7738 18.7604 30.7068 18.7237 30.6255 18.6918C30.5457 18.6615 30.4516 18.6424 30.3463 18.6551C30.2474 18.6615 30.1613 18.6982 30.0863 18.7349C30.0113 18.7716 29.9571 18.8146 29.9012 18.8593C29.8518 18.896 29.7896 18.9454 29.7274 19.0077C29.6971 19.038 29.6715 19.0763 29.6476 19.1257C29.6221 19.1688 29.6045 19.2246 29.5982 19.2868C29.5918 19.3426 29.5982 19.4049 29.6173 19.4543C29.6364 19.5038 29.6604 19.5468 29.6859 19.5835C29.7353 19.6521 29.7912 19.7016 29.8342 19.7446C29.8773 19.7877 29.9092 19.8196 29.9395 19.8563C29.9698 19.893 29.9954 19.9361 30.0145 19.9807C30.0576 20.0669 30.0831 20.1594 30.0895 20.2599C30.115 20.4513 30.0703 20.6316 30.0033 20.7863C29.9347 20.941 29.8422 21.0703 29.7625 21.1644C29.7497 21.1771 29.7433 21.1899 29.7322 21.2011L29.7194 21.2202L29.7066 21.233C29.6875 21.2521 29.6636 21.2697 29.6444 21.2888C29.638 21.2952 29.6317 21.3016 29.6253 21.3016C29.6253 21.2027 29.638 21.091 29.6444 20.9729C29.6508 20.8804 29.6572 20.7751 29.6444 20.6635C29.6317 20.5518 29.6077 20.4338 29.5583 20.3301C29.5328 20.2743 29.5024 20.2248 29.4721 20.1754C29.453 20.1498 29.4418 20.1259 29.4163 20.1004C29.3972 20.0749 29.3732 20.0509 29.3477 20.0318C29.2488 19.9456 29.1308 19.8834 28.9952 19.8579C28.9266 19.8451 28.8532 19.8451 28.7846 19.8579C28.7096 19.8707 28.649 19.8946 28.5868 19.9329C28.4688 20.0015 28.3826 20.1068 28.3268 20.1993C28.2646 20.2982 28.2279 20.3971 28.1912 20.4896C28.1609 20.5821 28.129 20.6746 28.0987 20.7688C28.0428 20.9538 27.9998 21.1404 27.9631 21.3191C27.9439 21.4116 27.9328 21.5042 27.92 21.5919C27.9073 21.678 27.8945 21.7658 27.8833 21.8519C27.8578 22.0258 27.8403 22.1981 27.8211 22.3592C27.7908 22.6926 27.7844 23.0084 27.8147 23.2876C27.8403 23.5667 27.8945 23.814 27.9631 24.0118C27.9934 24.1107 28.0317 24.1968 28.062 24.2718C27.8945 24.2782 27.7286 24.2909 27.5483 24.3468C27.5053 24.3595 27.4558 24.3771 27.4064 24.3962L27.3697 24.4154C27.3569 24.4217 27.3442 24.4281 27.333 24.4409C27.3075 24.46 27.2835 24.4712 27.2532 24.4903C27.2102 24.527 27.1735 24.5589 27.1352 24.5956C27.1049 24.6323 27.073 24.6642 27.0427 24.7009C26.931 24.8429 26.8576 24.98 26.7827 25.122C26.6407 25.4012 26.5226 25.6787 26.4174 25.9579C26.2004 26.5338 26.0345 27.0777 25.8846 27.6041C25.7857 27.9439 25.7059 28.2725 25.6245 28.5884C25.6118 28.5756 25.6054 28.558 25.5942 28.5453C25.4889 28.3905 25.39 28.2294 25.2975 28.0683C25.1125 27.7461 24.9514 27.4302 24.7711 27.1335C24.7456 27.0968 24.728 27.0585 24.7025 27.0218C24.677 26.9852 24.6531 26.9469 24.6275 26.9102C24.5781 26.8416 24.535 26.7746 24.4856 26.7124C24.393 26.5832 24.3005 26.4587 24.2064 26.3343C24.0277 26.0934 23.8475 25.8701 23.6688 25.6659C23.4949 25.4618 23.3163 25.2767 23.1552 25.1156C22.9877 24.9481 22.8266 24.8061 22.6671 24.6705C22.3512 24.4105 22.0545 24.2255 21.7945 24.0947C21.2681 23.8346 20.9028 23.7724 20.6874 23.7421C20.5694 23.7294 20.496 23.7294 20.453 23.7357C20.453 23.6991 20.4402 23.6496 20.4035 23.5619C20.3604 23.4694 20.2855 23.3385 20.169 23.1599C20.051 22.9812 19.8851 22.7515 19.6681 22.4724C19.6426 22.442 19.6187 22.4165 19.582 22.3974C19.5453 22.3782 19.5022 22.3671 19.4575 22.3671C19.4831 22.3368 19.507 22.2618 19.5261 22.1071C19.5389 22.0082 19.5517 21.8726 19.5692 21.6987C19.582 21.6125 19.5947 21.5136 19.6123 21.4147C19.6314 21.3158 19.6617 21.1978 19.7048 21.1053C19.7112 21.0925 19.7176 21.0798 19.7239 21.0686C19.7303 21.0558 19.7431 21.0383 19.7495 21.0191C19.7686 20.9888 19.7861 20.9569 19.8053 20.9266C19.842 20.8644 19.8803 20.7974 19.9233 20.7288C20.0031 20.5996 20.102 20.4688 20.2264 20.3141C20.3508 20.1593 20.4801 19.9855 20.6093 19.7813C20.7385 19.5835 20.8693 19.3538 20.9809 19.0937C21.0862 18.8273 21.1788 18.5306 21.2043 18.1973C21.2043 18.1542 21.2107 18.1175 21.2107 18.0728V17.9484C21.2107 17.8623 21.2043 17.7809 21.2043 17.7011C21.1915 17.5336 21.1788 17.3614 21.1548 17.1875C21.1054 16.8413 21.0368 16.476 20.9315 16.098C20.882 15.9065 20.8198 15.7151 20.7528 15.5157C20.6842 15.3179 20.6109 15.1201 20.512 14.9159C20.4131 14.7053 20.295 14.5012 20.1594 14.3161C20.035 14.1486 19.8994 13.9827 19.7447 13.8328C19.9361 13.6589 20.1227 13.4738 20.252 13.2505C20.4003 12.9905 20.4753 12.6746 20.3812 12.3907C20.2392 11.952 19.7623 11.7095 19.3044 11.6361C18.7541 11.55 18.1719 11.6425 17.6773 11.8962C17.3439 12.07 17.0392 12.3173 16.6867 12.4529C16.1603 12.6571 15.5669 12.6076 15.0101 12.6826C14.0754 12.807 13.2028 13.3079 12.6221 14.0497C12.3749 14.3719 12.1771 14.7372 12.0957 15.1328C12.0207 15.5284 12.0702 15.9623 12.2935 16.3021C11.8485 16.3388 11.4959 16.7471 11.4082 17.1874C11.322 17.6261 11.4449 18.0791 11.6251 18.4875C11.8293 18.9453 12.1021 19.3664 12.4291 19.7429C12.7258 20.0827 13.1039 20.3921 13.5553 20.4416C13.7037 20.4607 13.8584 20.4352 14.0003 20.373C14.1551 20.5899 14.297 20.7941 14.4215 20.9856C14.7868 21.5359 15.0085 21.957 15.1265 22.1612C15.0899 22.1803 15.058 22.2107 15.034 22.2473L15.0276 22.2601C14.9096 22.4451 14.7804 22.6621 14.632 22.9221C14.5076 23.1391 14.3784 23.3672 14.2492 23.6033L14.2428 23.616C14.2364 23.6288 14.23 23.6416 14.2237 23.6591C14.1806 23.6527 14.1311 23.6527 14.0817 23.6527C14.0322 23.6527 13.9764 23.6463 13.9206 23.6463C13.8647 23.6463 13.7962 23.6527 13.7355 23.6591C13.7052 23.6591 13.6669 23.6655 13.6303 23.6655C13.5936 23.6655 13.5553 23.6719 13.5186 23.6782C13.4436 23.691 13.3575 23.7038 13.2713 23.7213C12.9252 23.7899 12.5041 23.9255 12.0271 24.1791C11.9649 24.2094 11.909 24.2477 11.8484 24.278C11.7862 24.3147 11.724 24.353 11.6634 24.3897C11.6012 24.4328 11.539 24.4758 11.4783 24.5189C11.448 24.5444 11.4161 24.562 11.3794 24.5875C11.3491 24.613 11.3172 24.637 11.2869 24.6625C11.0269 24.8539 10.7605 25.0836 10.4893 25.35C9.94539 25.8764 9.39343 26.556 8.83033 27.3855C8.55118 27.8002 8.2736 28.2581 7.98807 28.7526C7.70413 29.2471 7.42497 29.7799 7.13466 30.3494C6.83158 30.9364 6.57156 31.5809 6.3929 32.2987C6.30676 32.6576 6.23817 33.0405 6.21424 33.4377C6.18872 33.8333 6.21424 34.2544 6.31952 34.6819C6.38173 34.9292 6.48064 35.1764 6.62899 35.3998C6.77734 35.6231 6.96239 35.8145 7.14901 35.982C7.24153 36.0618 7.33405 36.1431 7.43295 36.2165C7.4824 36.2532 7.52547 36.2915 7.5813 36.3346C7.63713 36.3776 7.69934 36.4143 7.75996 36.4462C8.00083 36.5818 8.26724 36.6632 8.52725 36.7062C9.21955 36.8737 9.93738 36.861 10.6313 36.6999C10.5882 36.8737 10.5324 37.1274 10.4702 37.4911V37.5102C10.4638 37.6027 10.5388 37.6889 10.6313 37.6889H10.6504C11.8229 37.7224 13.3751 41.129 17.8114 41.129C19.1051 41.1226 21.2394 37.7607 22.6256 37.7543H22.632C22.7804 37.7543 22.8984 37.6298 22.8984 37.4815C22.8984 37.2582 22.892 37.0365 22.892 36.8131V36.1511V34.8271V33.6387C22.967 33.7136 23.0659 33.7998 23.1824 33.9051C23.3116 34.004 23.4488 34.1284 23.621 34.2385C23.9608 34.473 24.4075 34.733 24.9706 34.926C25.2497 35.0185 25.5576 35.0999 25.8926 35.1302C26.226 35.1669 26.5849 35.1669 26.9502 35.0999C27.3155 35.0313 27.6919 34.8893 28.0397 34.6851C28.3859 34.4809 28.7081 34.2146 29.0112 33.9178C29.6046 33.318 30.1118 32.5811 30.5649 31.7899C31.4678 30.2122 32.1552 28.3794 32.822 26.5481ZM28.1147 22.3909C28.1402 22.2298 28.1706 22.0687 28.2009 21.9028C28.2312 21.7353 28.2695 21.5566 28.3061 21.3892C28.3428 21.2153 28.3923 21.0494 28.4545 20.8755C28.4848 20.7894 28.5167 20.708 28.547 20.6219C28.5773 20.5421 28.6156 20.4671 28.6587 20.4049C28.7018 20.3427 28.7448 20.2933 28.7879 20.2757C28.831 20.2502 28.874 20.2454 28.9235 20.2566C28.9729 20.2693 29.0288 20.2933 29.0718 20.3363C29.0846 20.3491 29.091 20.3555 29.1021 20.3666C29.1085 20.3794 29.1213 20.3969 29.1325 20.4097C29.1516 20.44 29.1691 20.4655 29.1819 20.4959C29.2377 20.6203 29.2377 20.7686 29.225 20.9473C29.2122 21.1212 29.1883 21.319 29.2186 21.5296C29.2377 21.6348 29.268 21.7401 29.3111 21.8326C29.3542 21.9252 29.4228 22.0177 29.4962 22.0863C29.6445 22.2219 29.7929 22.2905 29.8981 22.3654C30.0098 22.434 30.0768 22.4946 30.139 22.576C30.1948 22.6558 30.2379 22.7435 30.2682 22.8296C30.3241 23.0035 30.3304 23.1694 30.3177 23.313C30.3049 23.4549 30.2746 23.5794 30.2427 23.6847C30.1805 23.8952 30.1247 24.0244 30.1071 24.1058C30.088 24.1919 30.0944 24.2302 30.1199 24.2414C30.1454 24.2541 30.1821 24.2477 30.2491 24.1855C30.3113 24.1233 30.4102 24.0069 30.5219 23.7899C30.5777 23.6783 30.6335 23.5427 30.6638 23.3624C30.7005 23.1837 30.7069 22.9604 30.6383 22.7195C30.608 22.5951 30.5522 22.4659 30.4644 22.3415C30.4214 22.2793 30.3719 22.2171 30.3097 22.1628C30.2475 22.107 30.1853 22.0639 30.1183 22.0208C29.9891 21.9411 29.8646 21.8725 29.7849 21.7911C29.7418 21.7544 29.7099 21.7114 29.686 21.6555C29.6605 21.5997 29.6429 21.5375 29.6301 21.4705C29.6301 21.4577 29.6238 21.445 29.6238 21.4338C29.6493 21.4211 29.6732 21.4083 29.7035 21.3971C29.729 21.3844 29.753 21.3716 29.7833 21.3541C29.7897 21.3477 29.796 21.3413 29.8088 21.3349L29.828 21.3222C29.8407 21.3094 29.8535 21.303 29.871 21.2918C29.9827 21.1993 30.1055 21.0749 30.2044 20.9026C30.2539 20.8165 30.3033 20.7176 30.3336 20.6059C30.3639 20.4943 30.3831 20.3762 30.3831 20.247C30.3831 20.1226 30.3576 19.987 30.3081 19.8642C30.2826 19.8019 30.2523 19.7349 30.2156 19.6791C30.1789 19.6169 30.1231 19.5611 30.0864 19.5116C30.0433 19.4685 30.0066 19.4255 29.9875 19.3936C29.9683 19.3633 29.9683 19.3505 29.9683 19.3377C29.9683 19.3314 29.9811 19.3122 30.005 19.2819C30.0353 19.2516 30.08 19.2197 30.1294 19.1894C30.2283 19.1208 30.3145 19.0713 30.3703 19.0713C30.4261 19.065 30.5059 19.1017 30.5936 19.1575C30.7723 19.2819 30.927 19.4478 31.0387 19.628C31.1504 19.8067 31.2173 19.987 31.2556 20.1481C31.2923 20.3092 31.2987 20.4575 31.2923 20.5931C31.2796 20.8595 31.2173 21.0446 31.1743 21.1801C31.1312 21.3157 31.0945 21.4035 31.0818 21.4641C31.069 21.5199 31.0818 21.5566 31.1009 21.5757C31.1264 21.5949 31.1567 21.5949 31.2126 21.563C31.2684 21.5263 31.3482 21.4577 31.4423 21.3157C31.5284 21.1738 31.6401 20.9568 31.6768 20.6282C31.6959 20.4671 31.6959 20.2757 31.6576 20.0651C31.6209 19.8801 31.5523 19.6822 31.4407 19.4781C31.471 19.4414 31.5093 19.4031 31.5587 19.3855C31.6337 19.3489 31.7262 19.3425 31.8251 19.3664C31.924 19.3919 32.0102 19.4525 32.0787 19.5403C32.1473 19.6264 32.2032 19.7445 32.2271 19.8689C32.2574 19.9933 32.2638 20.1353 32.2574 20.2773C32.2574 20.4192 32.2447 20.5612 32.2319 20.6984C32.2016 20.9648 32.1569 21.1753 32.1202 21.3412C32.0835 21.5087 32.0516 21.6252 32.0341 21.7193C31.9974 21.8979 32.0213 21.9602 32.0772 21.9857C32.1266 22.0112 32.2016 21.9984 32.3116 21.8309C32.3675 21.7512 32.4297 21.6268 32.4903 21.4529C32.5525 21.279 32.6147 21.0445 32.6514 20.7478C32.6706 20.5994 32.6769 20.4383 32.6706 20.2772C32.6642 20.1161 32.6514 19.9438 32.602 19.77C32.6275 19.7636 32.6514 19.7572 32.6817 19.7508C32.7439 19.7444 32.8173 19.7444 32.8923 19.7636C32.9673 19.7827 33.0406 19.8322 33.1092 19.8928C33.3932 20.1528 33.3756 20.7653 33.264 21.204C33.2081 21.4273 33.1348 21.5996 33.0725 21.7304C33.0103 21.8597 32.9609 21.9538 32.9306 22.0271C32.9003 22.1021 32.8811 22.1516 32.8811 22.1883C32.8811 22.2249 32.8939 22.2569 32.9114 22.2744C32.9306 22.2935 32.9609 22.3047 32.9976 22.2999C33.0343 22.2935 33.0901 22.2696 33.1587 22.2138C33.2273 22.158 33.3134 22.0654 33.4059 21.9235C33.4985 21.7815 33.5974 21.5837 33.666 21.3109C33.7346 21.0445 33.7585 20.735 33.7154 20.4383C33.709 20.4017 33.7026 20.3634 33.6963 20.3267C33.7218 20.3267 33.7457 20.3331 33.776 20.3394C33.8015 20.3458 33.8255 20.3522 33.8446 20.365C33.8701 20.3777 33.8941 20.3905 33.9196 20.408C34.0249 20.4766 34.1302 20.5867 34.2035 20.7366C34.2402 20.8116 34.2721 20.8978 34.2897 20.9903C34.3088 21.0828 34.3152 21.1753 34.3152 21.2806C34.3088 21.4848 34.2594 21.7081 34.1796 21.9362C34.1046 22.1659 34.0121 22.4132 33.9196 22.6477C33.7282 23.1247 33.5049 23.5936 33.2576 23.9972C33.2273 24.0467 33.1954 24.0961 33.1651 24.1392C33.1348 24.1887 33.1029 24.2317 33.0725 24.2748C33.0103 24.3673 32.9545 24.4598 32.905 24.5412C32.7998 24.7087 32.7136 24.8507 32.6323 24.9687C32.5525 25.0931 32.4775 25.192 32.4089 25.2718C32.3404 25.3516 32.2845 25.4138 32.2351 25.4696C32.2096 25.4951 32.1856 25.5127 32.1665 25.5382C32.1601 25.5446 32.1537 25.551 32.1473 25.5573C32.141 25.5573 32.141 25.551 32.1346 25.551C31.8554 25.3659 31.5651 25.2224 31.2748 25.0868C30.6877 24.8204 30.0863 24.6162 29.4738 24.4615C29.1643 24.3865 28.8548 24.3259 28.5326 24.2876C28.4082 24.2748 28.2917 24.2621 28.1673 24.2621C28.1418 24.1759 28.1178 24.077 28.0923 23.959C28.0493 23.7676 28.0237 23.5315 28.0174 23.2667C28.0397 23.0035 28.0653 22.7068 28.1147 22.3909ZM20.0335 23.5905C20.1946 23.7149 20.2935 23.7644 20.3621 23.7692C20.3127 23.7819 20.201 23.8681 20.0527 24.01C20.0096 24.0467 19.9665 24.0898 19.9171 24.1392C19.9171 24.1026 19.9107 24.0643 19.9043 24.0276C19.8915 23.9526 19.8788 23.8856 19.8549 23.8106C19.8293 23.7357 19.7926 23.6687 19.756 23.6065L19.7496 23.6001C19.7368 23.5809 19.7304 23.5634 19.7193 23.5442C19.6634 23.4517 19.5837 23.3656 19.4896 23.2906C19.4592 23.2651 19.4337 23.2475 19.4034 23.2284C19.4162 23.2093 19.4337 23.1917 19.4465 23.1726C19.4656 23.147 19.4832 23.1231 19.5023 23.0976C19.5773 23.1726 19.6443 23.2396 19.7065 23.3018C19.8357 23.4294 19.9474 23.5235 20.0335 23.5905ZM19.7432 24.8778C19.8182 24.8969 19.8979 24.94 19.9601 25.0134C20.0223 25.0884 20.0654 25.1873 20.0846 25.3037C20.0973 25.4218 20.0846 25.551 20.0351 25.6866C20.0096 25.7552 19.9793 25.8285 19.949 25.8908C19.9298 25.9211 19.9187 25.9466 19.8931 25.9769L19.8628 26.02L19.8261 26.0694C19.6283 26.323 19.3747 26.5767 19.1386 26.7936C18.9041 27.0169 18.7306 27.1415 18.5758 27.2787C18.4275 27.4143 18.2963 27.5545 18.223 27.6359C18.1863 27.6726 18.1607 27.7109 18.1368 27.7412C18.081 27.6662 18.0252 27.5864 17.9629 27.5115C17.6838 27.1525 17.3871 26.8128 17.0601 26.5033C16.7315 26.2002 16.3853 25.921 15.9897 25.7168C15.8908 25.661 15.7791 25.6179 15.6739 25.5749C15.6994 25.4887 15.7105 25.3452 15.693 25.1474C15.6802 25.0293 15.6563 24.8873 15.6132 24.7326C15.5877 24.6529 15.5638 24.5715 15.5383 24.4854C15.508 24.3992 15.4824 24.3115 15.4585 24.2253C15.4521 24.2062 15.4457 24.1823 15.4457 24.1695C15.4457 24.1504 15.4394 24.1328 15.4394 24.1201V24.1009V24.0945C15.4394 24.0945 15.4394 24.0818 15.4457 24.069C15.4457 24.0563 15.4521 24.0499 15.4521 24.0387C15.4776 23.9526 15.5207 23.8648 15.5766 23.7978C15.6021 23.7675 15.6324 23.7356 15.6691 23.7117L15.6946 23.6989C15.701 23.6926 15.7074 23.6926 15.7137 23.6862C15.7265 23.6798 15.744 23.6734 15.7632 23.6734C15.7999 23.667 15.8382 23.667 15.8621 23.6798C15.8876 23.6862 15.8988 23.6989 15.9052 23.7053L16.0408 23.7851C16.0471 23.7915 16.0535 23.7915 16.0599 23.7978C16.1843 23.86 16.3391 23.8106 16.3997 23.6798C16.69 23.0864 17.0186 22.4292 17.3408 21.7927C17.4206 21.6316 17.5019 21.4768 17.5881 21.3285C17.6312 21.2487 17.7173 21.1929 17.8114 21.1929C17.9039 21.1865 17.9965 21.236 18.0523 21.3109C18.0778 21.3476 18.0954 21.3907 18.1017 21.4401C18.1081 21.4896 18.1081 21.5327 18.089 21.5821C18.0395 21.7177 17.9837 21.8613 17.9279 21.9905C17.872 22.1197 17.8226 22.2505 17.7731 22.3686C17.6742 22.6094 17.5881 22.82 17.5195 23.0003C17.4509 23.1789 17.3951 23.3225 17.3648 23.4214C17.3345 23.5203 17.3217 23.5761 17.3345 23.5889C17.3536 23.6016 17.3967 23.5586 17.4637 23.4772C17.5323 23.3911 17.6184 23.2666 17.7173 23.0991C17.7859 22.9811 17.8657 22.8519 17.947 22.7035C18.0156 22.678 18.089 22.6605 18.164 22.678C18.2629 22.6972 18.3681 22.7705 18.3984 22.8567C18.4176 22.8997 18.4288 22.9556 18.4288 23.0114C18.4288 23.0736 18.416 23.1358 18.4032 23.1964C18.3665 23.3209 18.3171 23.4262 18.274 23.4995C18.2309 23.5793 18.199 23.6351 18.1751 23.6846C18.132 23.7835 18.1448 23.8584 18.1879 23.9254C18.2309 23.9877 18.2932 24.0371 18.4351 23.994C18.5037 23.9685 18.5899 23.9143 18.6888 23.8154C18.7255 23.7723 18.7685 23.7229 18.8132 23.6606C18.8499 23.667 18.8882 23.667 18.9312 23.6543C18.9743 23.6415 19.011 23.6415 19.0557 23.6479C19.0987 23.6543 19.1418 23.6734 19.1801 23.7037C19.2232 23.734 19.2598 23.7659 19.2918 23.8154C19.2981 23.8281 19.3045 23.8345 19.3109 23.8457C19.3731 23.9749 19.3731 24.1424 19.3412 24.3035C19.3109 24.4646 19.2551 24.5938 19.212 24.6991C19.1689 24.8044 19.137 24.8905 19.1195 24.9655C19.0892 25.1011 19.1259 25.1697 19.1881 25.2191C19.2503 25.2622 19.33 25.2814 19.4481 25.1936C19.5103 25.1505 19.5837 25.0756 19.665 24.9591C19.6842 24.9288 19.7081 24.8969 19.7272 24.8538C19.7304 24.8778 19.7368 24.8778 19.7432 24.8778ZM14.6133 20.8563C14.5016 20.6649 14.3788 20.4543 14.2352 20.231C14.4027 20.1018 14.5191 19.9152 14.5191 19.7046C14.5255 19.4573 14.3835 19.2276 14.2655 19.0123C14.1475 18.7953 14.0486 18.5353 14.1299 18.3008C14.2097 18.0663 14.5638 17.9355 14.7169 18.1333L14.8095 18.2019C14.8589 18.1955 14.9147 18.1955 14.9642 18.1892C14.9339 17.9722 14.902 17.7505 14.9833 17.5463C15.0456 17.3852 15.1684 17.256 15.2561 17.1076C15.3423 16.9529 15.3853 16.7679 15.3742 16.5876C15.3678 16.3898 15.245 16.2287 15.213 16.05C15.5959 15.9208 16.0043 15.8586 16.3951 15.7278C16.7843 15.5986 17.1687 15.4439 17.5404 15.2636C18.1593 14.9669 18.7464 14.6016 19.292 14.1805C19.5759 14.4597 19.8248 14.7994 19.9795 15.1392C20.0656 15.3243 20.1342 15.5045 20.1964 15.6896C20.2586 15.8746 20.3145 16.0549 20.3639 16.2272C20.4628 16.5797 20.5314 16.9258 20.5809 17.2481C20.6064 17.4092 20.6239 17.5639 20.6303 17.7187C20.6367 17.7936 20.6431 17.867 20.6431 17.942V18.0473C20.6431 18.084 20.6367 18.1159 20.6367 18.1462C20.6239 18.4126 20.5569 18.6598 20.4692 18.8879C20.2905 19.3394 20.0353 19.7047 19.82 20.0205C19.7083 20.1816 19.5967 20.3427 19.5105 20.5038C19.4675 20.5836 19.4308 20.6586 19.3989 20.7272C19.3797 20.7639 19.3685 20.7958 19.3494 20.8325C19.343 20.8516 19.3366 20.8628 19.3239 20.8819C19.3175 20.901 19.3047 20.9186 19.2984 20.9441C19.2361 21.1052 19.2234 21.2408 19.2122 21.3652C19.2058 21.4896 19.2058 21.5949 19.2058 21.6875C19.2186 21.8725 19.2361 22.0161 19.2553 22.115C19.2856 22.2697 19.3239 22.3447 19.3542 22.3686C19.2744 22.3814 19.1995 22.4308 19.1628 22.5106L19.1564 22.517C19.1006 22.6222 19.032 22.7403 18.9458 22.8567C18.9394 22.8695 18.9267 22.8823 18.9203 22.8934C18.8948 22.8009 18.8581 22.702 18.8023 22.6143C18.7161 22.4898 18.5981 22.3973 18.4736 22.3543C18.3684 22.3112 18.2503 22.2984 18.145 22.3112C18.1706 22.2681 18.1881 22.225 18.2136 22.1756C18.2822 22.0464 18.3492 21.9156 18.4178 21.7608C18.4609 21.6683 18.4864 21.5503 18.48 21.4386C18.4736 21.327 18.4433 21.2089 18.3811 21.11C18.2631 20.9058 18.0286 20.7639 17.7749 20.7575C17.6505 20.7511 17.5213 20.783 17.4096 20.8436C17.298 20.9058 17.1991 20.9984 17.1257 21.11C17.0268 21.2647 16.9407 21.4259 16.8465 21.5806C16.612 22.0017 16.3887 22.4228 16.1718 22.836C16.1096 22.7738 16.0234 22.7004 15.9182 22.6063C15.8496 22.5504 15.7762 22.4882 15.6885 22.4149C15.6023 22.3463 15.5034 22.2665 15.4045 22.1804C15.3917 22.174 15.379 22.1612 15.3742 22.1548C15.3056 22.1118 15.2322 22.1054 15.1636 22.1245C15.1269 21.89 14.9483 21.437 14.6133 20.8563ZM15.1269 23.1885C15.213 23.0401 15.288 22.9093 15.3614 22.7801C15.3805 22.7929 15.4045 22.8056 15.4236 22.8232C15.5225 22.8854 15.6086 22.9412 15.69 22.9843C15.8384 23.064 15.9564 23.1199 16.0425 23.1518C16.0425 23.1582 16.0362 23.1582 16.0362 23.1645C16.0298 23.1645 16.0298 23.1645 16.0234 23.1582C15.899 23.1215 15.7761 23.1215 15.6645 23.139C15.6086 23.1518 15.5528 23.1645 15.497 23.1885C15.4475 23.214 15.3917 23.2443 15.3486 23.2682C15.2625 23.3304 15.2003 23.3974 15.1444 23.4724C15.0328 23.6144 14.9706 23.7691 14.9403 23.9111C14.8908 23.8552 14.8477 23.793 14.811 23.7324C14.9163 23.5474 15.0216 23.3623 15.1269 23.1885ZM8.62976 36.1272C8.62338 36.1272 8.61061 36.1208 8.60423 36.1208C8.39367 36.0842 8.18949 36.0219 8.02198 35.9294C7.97891 35.9039 7.93584 35.88 7.89756 35.8497C7.86087 35.8241 7.81141 35.7811 7.76834 35.7508C7.67582 35.6758 7.58968 35.6024 7.50833 35.5274C7.34083 35.3791 7.19886 35.2307 7.08722 35.0632C6.97555 34.8957 6.90218 34.7107 6.85272 34.5129C6.76818 34.1524 6.74266 33.7935 6.76818 33.4345C6.78732 33.082 6.84794 32.7294 6.92929 32.3945C7.09679 31.7261 7.33766 31.1135 7.61682 30.5632C7.90715 29.9937 8.17992 29.4673 8.45271 28.9792C8.7255 28.491 8.99029 28.0444 9.25671 27.636C9.78951 26.8192 10.3079 26.1572 10.8104 25.6436C11.0641 25.39 11.3049 25.1603 11.541 24.9752C11.5714 24.9497 11.5969 24.9258 11.6272 24.9002C11.6575 24.8747 11.6894 24.8572 11.7133 24.8317C11.7692 24.7886 11.8314 24.7455 11.8872 24.7072C11.943 24.6705 11.9989 24.6323 12.0547 24.5956C12.1105 24.5589 12.16 24.5206 12.2158 24.4903C12.6497 24.2303 13.0262 24.0819 13.342 23.9894C13.4218 23.9702 13.4967 23.9463 13.5653 23.9272C13.602 23.9144 13.6339 23.908 13.6706 23.9016C13.7009 23.8953 13.7392 23.8889 13.7695 23.8825C13.8317 23.8697 13.8876 23.857 13.9434 23.8522C13.9992 23.8458 14.0487 23.8394 14.0917 23.833C14.1412 23.8267 14.1907 23.8203 14.2337 23.8139V23.8203C14.3326 24.0436 14.4874 24.2159 14.6485 24.3579C14.7841 24.4823 14.9324 24.5812 15.0824 24.6737C15.1127 24.7487 15.1446 24.8157 15.1749 24.8843C15.2371 25.0199 15.2738 25.1315 15.3105 25.2304C15.3472 25.3357 15.3727 25.4219 15.3966 25.4904C15.1669 25.441 14.9324 25.4219 14.7043 25.4538C14.6676 25.4601 14.6293 25.4793 14.599 25.5032C14.3693 25.7377 14.154 25.9674 13.9434 26.2019C13.8381 26.3199 13.7328 26.4316 13.6339 26.5417C13.5845 26.5975 13.5286 26.6597 13.4792 26.7155C13.4297 26.7714 13.3867 26.8336 13.3372 26.8894C12.9719 27.36 12.6257 27.8051 12.2971 28.2262C11.6415 29.0684 11.072 29.8166 10.6015 30.4355C10.1309 31.0545 9.7592 31.5426 9.51193 31.884C9.26468 32.2237 9.13388 32.4104 9.14664 32.4215C9.1594 32.4343 9.31413 32.2668 9.59168 31.9446C9.87083 31.6223 10.2664 31.1534 10.761 30.5584C11.2555 29.9585 11.8505 29.2343 12.5236 28.4112C12.857 27.9965 13.2159 27.5642 13.594 27.1C13.6435 27.0442 13.6865 26.982 13.736 26.9261C13.7854 26.8703 13.8349 26.8209 13.8843 26.765C13.9896 26.6534 14.0949 26.5417 14.2002 26.4316C14.398 26.2274 14.6022 26.0169 14.8127 25.8063C15.1461 25.7808 15.4939 25.8749 15.8209 26.0536C16.1671 26.2386 16.4893 26.4986 16.786 26.7906C17.0827 27.0873 17.3683 27.4159 17.6283 27.762C17.7575 27.9359 17.8883 28.1146 18.0111 28.2996C18.1036 28.4416 18.1962 28.5899 18.2839 28.7335C17.6714 29.5247 17.0221 30.3303 16.3537 31.1215C15.6486 31.9574 14.9181 32.7917 14.1444 33.5909C13.7551 33.9865 13.3643 34.3821 12.9495 34.7362L12.7948 34.8718C12.7693 34.8974 12.7454 34.9149 12.7151 34.9404L12.6353 35.0026L12.3131 35.2563C12.2572 35.2993 12.2014 35.3312 12.152 35.3743C12.0961 35.411 12.0403 35.4493 11.9845 35.486L11.817 35.5913L11.6431 35.6838C11.1789 35.931 10.6716 36.0921 10.158 36.1671C9.64592 36.2628 9.11947 36.2501 8.62976 36.1272ZM10.8263 37.2901C10.8455 36.9743 10.8519 36.7573 10.8455 36.609C11.2108 36.5101 11.5633 36.3681 11.8967 36.1879L12.0881 36.0826L12.2732 35.9645C12.3354 35.9278 12.3976 35.8848 12.4582 35.8401C12.5204 35.797 12.5826 35.7604 12.6369 35.7109L12.9766 35.4445L13.0628 35.3759C13.0883 35.3504 13.1186 35.3265 13.1425 35.3073L13.3036 35.1653C13.7375 34.7873 14.1268 34.3853 14.5224 33.9769C15.3025 33.1602 16.0267 32.3068 16.7317 31.4581C17.4304 30.6047 18.1052 29.756 18.7369 28.909V28.9026C18.7864 28.834 18.7991 28.7351 18.7497 28.6553C18.6252 28.4448 18.5024 28.2533 18.3716 28.0683C18.3589 28.0428 18.3413 28.0252 18.3222 27.9997C18.3589 27.9933 18.3971 27.9806 18.4466 27.963C18.5519 27.92 18.6938 27.845 18.8741 27.7285C19.0528 27.6105 19.2697 27.4446 19.517 27.2021C19.7706 26.9612 20.0306 26.6885 20.2476 26.3598L20.2907 26.2976L20.3273 26.229C20.3529 26.186 20.3768 26.1301 20.4023 26.0807C20.439 25.9882 20.4709 25.8956 20.4885 25.7967C20.5315 25.5989 20.5315 25.3884 20.4693 25.2033C20.4135 25.0183 20.3018 24.8636 20.1598 24.7647C20.0673 24.6961 19.9684 24.6658 19.8759 24.653C20.0179 24.4616 20.1359 24.2877 20.2221 24.1457C20.3513 23.9288 20.4135 23.7932 20.3832 23.7677H20.3959C20.4151 23.798 20.4821 23.8426 20.6432 23.9033C20.656 23.9096 20.6623 23.916 20.6735 23.9224C20.8585 24.0341 21.1185 24.2127 21.3786 24.5047C21.5078 24.6466 21.6258 24.8333 21.7439 25.0375C21.8492 25.248 21.9544 25.4825 22.0278 25.7489C22.1889 26.2753 22.2751 26.8943 22.3182 27.5674C22.3309 27.7349 22.3373 27.9136 22.3437 28.0874C22.3501 28.2661 22.3564 28.4464 22.3692 28.6314C22.382 29.0031 22.3947 29.3795 22.3995 29.7704C22.4123 30.5504 22.4187 31.3735 22.4059 32.2206C22.3995 33.0676 22.3804 33.9338 22.3692 34.8192C22.3628 35.2578 22.3564 35.7045 22.3501 36.1432L22.3437 36.8115V37.2008C21.0564 37.2008 19.7818 37.1944 18.5758 37.1944C14.3725 37.1976 12.0645 37.2343 10.8263 37.2901ZM30.1744 31.5856C29.7469 32.3657 29.2779 33.0835 28.7324 33.6578C28.4596 33.9481 28.1629 34.1953 27.8535 34.3948C27.544 34.5926 27.2154 34.7234 26.882 34.7967C26.5534 34.8717 26.22 34.8829 25.9105 34.859C25.6011 34.8398 25.3044 34.7728 25.038 34.6978C24.5004 34.5367 24.0537 34.315 23.7076 34.1044C23.5289 34.0055 23.3854 33.8939 23.2498 33.8077C23.1253 33.7152 23.0153 33.6339 22.9275 33.5669C22.9084 33.5541 22.8972 33.5413 22.8781 33.5302C22.8781 33.0915 22.8781 32.6576 22.8717 32.2301C22.8589 31.3831 22.8414 30.5535 22.8031 29.7671C22.784 29.3779 22.7664 28.9935 22.7345 28.6218C22.7218 28.4367 22.709 28.2565 22.6978 28.0778C22.6851 27.8992 22.6723 27.7253 22.6548 27.545C22.5862 26.8527 22.4697 26.2147 22.2719 25.6707C22.1794 25.3979 22.055 25.1507 21.9321 24.9337C21.7966 24.7232 21.653 24.5317 21.4982 24.3898C21.4616 24.3531 21.4233 24.3148 21.3866 24.2845C21.3674 24.2654 21.3499 24.2542 21.3308 24.2351C21.4169 24.2781 21.5046 24.334 21.6035 24.3898C21.8332 24.5318 22.0917 24.7184 22.3708 24.9768C22.65 25.2368 22.9578 25.5591 23.2801 25.9611C23.4412 26.1589 23.6087 26.3822 23.781 26.6167C23.8671 26.7347 23.9549 26.864 24.041 26.9884C24.0841 27.057 24.1272 27.1176 24.1766 27.1862C24.1957 27.2165 24.2133 27.2484 24.2388 27.2787C24.258 27.309 24.2755 27.3473 24.301 27.384C24.4621 27.6679 24.6232 27.9902 24.8083 28.3252C24.9008 28.4927 25.0061 28.6649 25.1178 28.8388C25.1481 28.8819 25.18 28.9249 25.2103 28.968C25.2406 29.0111 25.2789 29.0542 25.3156 29.1036L25.3714 29.1722L25.44 29.2408C25.4767 29.2839 25.5453 29.3333 25.6011 29.3764C25.6314 29.4019 25.6633 29.4131 25.7 29.4258C25.842 29.4625 25.984 29.37 26.0159 29.2344L26.0222 29.2089C26.1339 28.7511 26.2631 28.2629 26.4051 27.7493C26.5534 27.2357 26.7209 26.6981 26.9251 26.1525C27.024 25.8861 27.1357 25.6261 27.2585 25.3788C27.3207 25.2544 27.3877 25.138 27.4627 25.0454L27.5185 24.9832L27.568 24.9402C27.5743 24.9402 27.5807 24.9338 27.5871 24.9274C27.5935 24.9274 27.5935 24.921 27.5935 24.921L27.6126 24.9146C27.6382 24.9019 27.6557 24.8955 27.6876 24.8891C27.7929 24.8588 27.9221 24.846 28.0593 24.8397C28.1949 24.8333 28.3384 24.846 28.4804 24.8588C28.7643 24.8891 29.0563 24.9449 29.3466 25.0135C29.9288 25.1555 30.5031 25.3469 31.055 25.5958C31.3278 25.7202 31.599 25.8558 31.8462 26.0105C31.9707 26.0903 32.0807 26.1716 32.1749 26.2642C32.2179 26.3072 32.2546 26.3503 32.2801 26.3886C32.2929 26.4077 32.2993 26.4189 32.2993 26.4317C31.9771 27.3409 31.6612 28.239 31.315 29.0988C30.98 29.9586 30.602 30.8056 30.1744 31.5856Z" fill="#F6E233"/>
<path d="M17.4971 17.9546C17.6088 18.0232 17.7699 18.0041 17.8433 17.8988C17.9182 17.7871 17.88 17.6388 17.8177 17.5207C17.7811 17.4458 17.738 17.3788 17.6822 17.3165C17.5896 17.2049 17.4094 17.224 17.3488 17.3596C17.3057 17.4458 17.2865 17.5383 17.2993 17.6388C17.3232 17.7616 17.3854 17.8924 17.4971 17.9546Z" fill="#F6E233"/>
<path d="M19.3717 16.1235C19.3286 16.2097 19.3095 16.3022 19.3223 16.4027C19.3414 16.5319 19.4084 16.6563 19.5201 16.7249C19.6317 16.7935 19.7928 16.7744 19.8662 16.6691C19.9412 16.5574 19.9029 16.4091 19.8407 16.291C19.804 16.2161 19.7609 16.1491 19.7051 16.0868C19.619 15.9688 19.4339 15.9927 19.3717 16.1235Z" fill="#F6E233"/>
<path d="M16.6115 17.3789C16.661 17.4092 16.7168 17.422 16.7854 17.3853C16.8221 17.3662 16.8604 17.3359 16.9146 17.2928C16.9641 17.2497 17.0263 17.1939 17.106 17.1253C17.2608 16.9897 17.4713 16.8525 17.6564 16.7536C17.8414 16.6547 17.9898 16.5797 17.9786 16.5191C17.9722 16.4633 17.8 16.433 17.5639 16.4697C17.4458 16.4888 17.3166 16.5255 17.1858 16.5813C17.0566 16.6372 16.9322 16.7169 16.8333 16.7983C16.728 16.8844 16.6658 16.9658 16.6163 17.0328C16.5733 17.1014 16.5478 17.162 16.5414 17.2066C16.5254 17.304 16.5621 17.3486 16.6115 17.3789Z" fill="#F6E233"/>
<path d="M18.7656 17.5402C18.8709 17.6758 18.9826 17.8002 19.0815 17.9055C19.1309 17.9613 19.174 18.0108 19.2171 18.0602C19.2538 18.1033 19.2729 18.14 19.2857 18.1591C19.2857 18.1655 19.2857 18.1655 19.2921 18.1655L19.2665 18.191C19.2362 18.2102 19.1916 18.2341 19.1613 18.2596C19.1246 18.2852 19.0927 18.3027 19.0687 18.3219C19.0129 18.3585 18.9635 18.3968 18.9204 18.4271C18.7656 18.5563 18.7465 18.6249 18.772 18.6744C18.7976 18.7238 18.8646 18.7494 19.0624 18.6872C19.1118 18.6744 19.1676 18.6505 19.2362 18.6249C19.2665 18.6122 19.3048 18.5946 19.3415 18.5819C19.3782 18.5627 19.4165 18.5516 19.4707 18.5197C19.5202 18.4894 19.5952 18.4511 19.6558 18.3522C19.6861 18.3027 19.7052 18.2405 19.7116 18.1847C19.718 18.1225 19.7052 18.0666 19.6861 18.0172C19.6558 17.9183 19.6063 17.8497 19.5569 17.7875C19.5138 17.7316 19.4643 17.6758 19.4085 17.6136C19.1979 17.3839 18.9746 17.1621 18.8709 16.9149C18.7657 16.674 18.7848 16.3773 18.8901 16.1604C18.9395 16.0487 19.0145 15.9562 19.0879 15.8812C19.1629 15.8062 19.2426 15.752 19.3112 15.7073C19.4532 15.6276 19.5521 15.5893 19.5457 15.559C19.5457 15.5335 19.434 15.5032 19.249 15.5526C19.1565 15.5781 19.0512 15.6212 18.9395 15.6946C18.8279 15.7695 18.7162 15.8732 18.6301 16.0104C18.5439 16.146 18.4753 16.3135 18.4514 16.4938C18.4259 16.6724 18.445 16.8718 18.5072 17.0505C18.5615 17.2435 18.6604 17.3982 18.7656 17.5402ZM19.2921 18.1655C19.2921 18.1591 19.2985 18.1591 19.2985 18.1591C19.3032 18.1527 19.3032 18.1591 19.2921 18.1655Z" fill="#F6E233"/>
<path d="M17.6326 20.0637C17.5209 19.9648 17.4539 19.8339 17.422 19.735C17.3917 19.6361 17.3789 19.5675 17.347 19.5612C17.3215 19.5548 17.2721 19.617 17.2609 19.7526C17.2481 19.8818 17.28 20.0748 17.4093 20.2599C17.4715 20.3524 17.564 20.4385 17.682 20.5007C17.8001 20.5629 17.9357 20.5933 18.0713 20.5933C18.344 20.5933 18.6152 20.4688 18.7827 20.2599C18.8625 20.1546 18.9183 20.0365 18.9311 19.9201C18.9374 19.8579 18.9374 19.7957 18.9247 19.7414C18.9119 19.6856 18.8944 19.6361 18.8689 19.5931C18.8194 19.5069 18.7444 19.4447 18.6647 19.4144C18.5849 19.3841 18.5163 19.3841 18.4669 19.3953C18.3616 19.4208 18.3121 19.4814 18.2994 19.5197C18.2866 19.5628 18.3057 19.5883 18.3249 19.6058C18.368 19.6425 18.4238 19.6553 18.4732 19.692C18.486 19.6984 18.4988 19.7111 18.5035 19.7223C18.5099 19.735 18.5163 19.7478 18.5227 19.7717C18.5227 19.7845 18.5291 19.7973 18.5291 19.8084C18.5291 19.8212 18.5291 19.8387 18.5227 19.8579C18.5163 19.8946 18.4924 19.944 18.4477 19.9998C18.368 20.1051 18.218 20.1913 18.0585 20.204C17.9787 20.2104 17.9038 20.204 17.8288 20.1785C17.757 20.1578 17.6884 20.1131 17.6326 20.0637Z" fill="#F6E233"/>
<path d="M6.92893 25.1809C7.15226 25.1809 7.37397 25.1681 7.59094 25.1378C8.01846 25.0756 8.42042 24.9464 8.77937 24.7725C8.95803 24.6864 9.13191 24.5875 9.28665 24.4822C9.36641 24.4327 9.44138 24.3705 9.51636 24.3147C9.58495 24.2525 9.65833 24.203 9.72692 24.1408C9.86251 24.0228 9.98055 23.8936 10.0922 23.7691C10.1975 23.6399 10.3028 23.5155 10.3889 23.3799C10.5628 23.1199 10.692 22.8599 10.7909 22.619C10.9823 22.1309 11.0318 21.7161 11.0509 21.437C11.0573 21.295 11.0509 21.1897 11.0445 21.1147C11.0382 21.0398 11.0254 21.0031 11.019 21.0031C11.0063 21.0031 10.9999 21.0398 10.9887 21.1147C10.976 21.1897 10.9632 21.2934 10.9393 21.4242C10.8898 21.697 10.8037 22.0862 10.5931 22.5313C10.4878 22.7546 10.3522 22.9891 10.172 23.2236C10.1529 23.2491 10.1417 23.2666 10.1225 23.2922C10.1162 23.2555 10.1034 23.2124 10.0922 23.1677C10.0731 23.0991 10.0492 23.0258 10.0173 22.9444C9.89922 22.611 9.7078 22.1532 9.39834 21.6635C9.24999 21.4162 9.06973 21.169 8.87192 20.9153C8.66773 20.6681 8.44439 20.4209 8.20354 20.1911C7.9499 19.9567 7.68352 19.7333 7.39954 19.5355L7.4123 19.5227C7.53673 19.4047 7.65956 19.293 7.77122 19.2005C7.7776 19.2005 7.78398 19.2069 7.79037 19.2069C7.90841 19.2627 8.02486 19.2819 8.1429 19.2867C8.26095 19.293 8.37261 19.2739 8.47151 19.25C8.57042 19.2244 8.66294 19.2005 8.75546 19.1702C8.8416 19.1447 8.92295 19.1208 9.00909 19.1016C9.17659 19.0649 9.3377 19.033 9.49243 19.0266C9.79552 19.0011 10.0619 19.0458 10.2533 19.0761C10.3889 19.2867 10.4878 19.4908 10.5692 19.6695C10.6809 19.9231 10.7431 20.1401 10.7925 20.3123C10.818 20.3985 10.8356 20.4798 10.8547 20.5468C10.8739 20.6154 10.885 20.6761 10.8978 20.7255C10.9233 20.8308 10.9409 20.8994 10.96 20.9425C10.9792 20.9855 10.9967 21.0047 11.0158 21.0047C11.035 21.0047 11.0525 20.9855 11.0717 20.9425C11.0908 20.8994 11.1084 20.8244 11.1148 20.7127C11.1211 20.6569 11.1275 20.5883 11.1211 20.5149C11.1211 20.44 11.1148 20.3538 11.102 20.2549C11.0828 20.0571 11.0398 19.8163 10.9409 19.5243C10.842 19.234 10.6936 18.8926 10.4464 18.5337C10.1991 18.1748 9.85298 17.7919 9.36327 17.4633C9.1224 17.2958 8.84325 17.1475 8.52738 17.0246C8.21153 16.9002 7.86537 16.8141 7.4873 16.771C7.29588 16.7519 7.10446 16.7407 6.90027 16.7455C6.80137 16.7455 6.69609 16.7583 6.59719 16.7646C6.4919 16.7774 6.38662 16.7902 6.28134 16.8077C6.17606 16.8268 6.07077 16.8508 5.96549 16.8763C5.86021 16.9066 5.75493 16.9321 5.64326 16.9752C5.4327 17.0502 5.21574 17.1427 5.00518 17.2544C4.58407 17.4841 4.19482 17.7872 3.8662 18.1508C3.53759 18.5161 3.26639 18.9484 3.07977 19.419C2.98725 19.6535 2.91227 19.896 2.86282 20.1496C2.81337 20.3969 2.78785 20.6506 2.78306 20.9106C2.77668 21.4178 2.85804 21.9315 3.03032 22.4085C3.20419 22.8854 3.46421 23.3305 3.78486 23.7085C4.10709 24.0914 4.49632 24.4008 4.91743 24.6433C5.33854 24.8842 5.78999 25.0389 6.24781 25.1203C6.47752 25.157 6.70559 25.1809 6.92893 25.1809ZM8.59908 21.1339C8.80326 21.3636 8.98192 21.5917 9.14303 21.8214C9.46525 22.2729 9.69975 22.7003 9.85448 23.0034C9.89117 23.0784 9.92946 23.1518 9.95977 23.2076C9.99008 23.2698 10.0156 23.3193 10.0395 23.3623C10.0395 23.3623 10.0395 23.3687 10.0459 23.3687C9.99007 23.4373 9.92786 23.4979 9.87203 23.5665C9.76037 23.6782 9.6487 23.7899 9.51949 23.8951C9.45728 23.951 9.39028 24.0004 9.32169 24.0499C9.25309 24.0993 9.17971 24.1488 9.10474 24.1919C8.95639 24.2844 8.79528 24.3657 8.63418 24.4391C8.30078 24.5875 7.92909 24.6927 7.53828 24.7358C7.34367 24.7661 7.14427 24.7725 6.9401 24.7597C6.8412 24.7534 6.7423 24.747 6.6434 24.7342C6.61788 24.6656 6.59395 24.5859 6.56364 24.4933C6.51419 24.3195 6.47112 24.1105 6.45198 23.868C6.43283 23.6272 6.45198 23.3608 6.49505 23.0768C6.5445 22.7929 6.61947 22.4898 6.70561 22.1676C6.74868 22.0064 6.79175 21.8453 6.83003 21.6731C6.84918 21.5869 6.86672 21.5056 6.88587 21.4194C6.90501 21.3333 6.92256 21.2456 6.92894 21.1467C6.9417 21.0541 6.9417 20.9489 6.92894 20.8436C6.91618 20.7383 6.87949 20.6202 6.81727 20.5213C6.76782 20.4416 6.70561 20.3794 6.63223 20.3235C6.68168 20.2613 6.73114 20.2055 6.78059 20.1497C6.88587 20.0396 6.99593 19.9343 7.09484 19.8226C7.12515 19.8418 7.15705 19.8593 7.18736 19.8849C7.44737 20.0635 7.701 20.2629 7.93549 20.4719C8.17157 20.6825 8.39489 20.9058 8.59908 21.1339ZM10.065 18.8081C10.0714 18.8145 10.0778 18.8209 10.0778 18.8272C9.9103 18.7778 9.7125 18.7283 9.47799 18.722C9.30411 18.7156 9.11907 18.722 8.93404 18.7523C8.84152 18.765 8.74262 18.7826 8.6501 18.8081C8.55758 18.8272 8.47144 18.8512 8.39008 18.8639C8.31511 18.8767 8.24173 18.8831 8.17314 18.8767C8.2848 18.7969 8.39008 18.722 8.4826 18.6597C8.77931 18.4619 9.00262 18.3311 9.16376 18.2322C9.2499 18.1828 9.3185 18.1397 9.36795 18.103C9.66306 18.3311 9.88638 18.5736 10.065 18.8081ZM9.07601 17.8924C9.09515 17.9052 9.1127 17.918 9.13184 17.9291C9.10154 17.9355 9.06963 17.9483 9.03932 17.9594C8.85428 18.028 8.60065 18.1333 8.27841 18.3247C8.13644 18.4045 7.98171 18.5098 7.81422 18.6278C7.80784 18.6103 7.80146 18.5848 7.80146 18.5608C7.79508 18.4986 7.80146 18.4364 7.81422 18.3822C7.8206 18.3519 7.82698 18.3263 7.83974 18.3024C7.8525 18.2769 7.86526 18.2466 7.87643 18.2227C7.92588 18.1238 7.99447 18.0376 8.06147 17.9626C8.19068 17.8079 8.30873 17.6962 8.37732 17.5973C8.39008 17.5846 8.39646 17.567 8.40763 17.5543C8.65488 17.6516 8.8782 17.768 9.07601 17.8924ZM5.27626 17.7505C5.45492 17.6516 5.64156 17.5718 5.82662 17.5096C5.91914 17.4793 6.01166 17.4538 6.10578 17.4235C6.1983 17.4043 6.29082 17.3804 6.38494 17.3612C6.47746 17.3421 6.5636 17.3357 6.65771 17.3246C6.75023 17.3182 6.83637 17.3054 6.92411 17.3054C7.09798 17.299 7.27027 17.3054 7.43775 17.3246C7.66746 17.3501 7.88279 17.3932 8.08698 17.449C8.00722 17.5048 7.90832 17.5846 7.78389 17.6962C7.69775 17.776 7.60523 17.8813 7.5175 18.0296C7.49836 18.0663 7.47443 18.1046 7.45529 18.1477C7.42976 18.1828 7.417 18.2322 7.40424 18.2817C7.37872 18.3806 7.36755 18.4859 7.37872 18.5975C7.39148 18.6964 7.41541 18.7953 7.46486 18.8942C7.35479 18.9868 7.23834 19.092 7.1203 19.2037C7.08999 19.2292 7.06446 19.2595 7.03416 19.2835C6.8858 19.1909 6.73745 19.1096 6.58912 19.0362C6.01965 18.757 5.51874 18.647 5.12952 18.5975C4.74031 18.5481 4.45478 18.5608 4.25059 18.5784H4.24421C4.26335 18.5592 4.27452 18.5417 4.29366 18.5226C4.5776 18.2083 4.91735 17.9419 5.27626 17.7505ZM3.32696 20.9185C3.33972 20.4735 3.43224 20.0332 3.59973 19.6248C3.7114 19.352 3.85337 19.092 4.02726 18.8511C4.08947 18.8575 4.16285 18.8703 4.25058 18.8767C4.442 18.8958 4.71477 18.9197 5.06732 18.982C5.42624 19.0505 5.87131 19.1606 6.3977 19.4158C6.50937 19.4717 6.62103 19.5275 6.72631 19.5945C6.696 19.6312 6.6641 19.6631 6.62741 19.6998C6.57158 19.7556 6.52213 19.8178 6.46629 19.8784C6.39132 19.9646 6.32432 20.0523 6.25573 20.1448C6.16959 20.1193 6.07707 20.1082 5.98934 20.1018C5.93989 20.0954 5.89682 20.0954 5.84736 20.0954H5.70539C5.52035 20.1082 5.34009 20.1385 5.17259 20.1943C4.49784 20.4112 4.08947 20.826 3.82305 21.1291C3.61887 21.3636 3.48328 21.5741 3.38916 21.748C3.34609 21.4816 3.32057 21.196 3.32696 20.9185ZM4.17559 23.3863C3.89643 23.0465 3.67468 22.6493 3.53273 22.2298C3.52635 22.2043 3.51997 22.1867 3.50721 22.1612C3.52635 22.1309 3.55028 22.099 3.5758 22.0687C3.70023 21.9012 3.85496 21.6731 4.11975 21.3939C4.18834 21.3253 4.26172 21.252 4.34308 21.177C4.42284 21.102 4.51058 21.035 4.6031 20.96C4.79452 20.8244 5.03062 20.6809 5.30819 20.5947C5.44378 20.5517 5.59213 20.5198 5.74208 20.515C5.77877 20.515 5.81705 20.5086 5.85374 20.5086C5.89043 20.5086 5.92871 20.5086 5.96541 20.515H5.99093C5.96062 20.558 5.92872 20.6075 5.89841 20.6506C5.54587 21.1881 5.2667 21.7576 5.06252 22.2713C4.85833 22.7849 4.72274 23.2428 4.64778 23.5762C4.62864 23.6687 4.61109 23.75 4.59833 23.817C4.44679 23.6894 4.29843 23.5474 4.17559 23.3863ZM4.69401 23.9063C4.72432 23.8313 4.7626 23.7388 4.80568 23.6335C4.9301 23.3241 5.10238 22.8854 5.33847 22.402C5.57297 21.9139 5.87127 21.3811 6.22382 20.8802C6.27965 20.8053 6.33548 20.7255 6.39131 20.6505C6.428 20.676 6.46629 20.7063 6.48383 20.743C6.54604 20.8292 6.55881 20.9664 6.54604 21.1147C6.53966 21.1897 6.5269 21.2695 6.51574 21.3556C6.50298 21.4353 6.48543 21.5231 6.47267 21.6028C6.44236 21.7703 6.40407 21.9315 6.36738 22.091C6.29879 22.4132 6.23179 22.7338 6.19989 23.0433C6.16958 23.3527 6.17436 23.6431 6.21903 23.9031C6.2621 24.1631 6.33707 24.3801 6.41045 24.5523C6.43598 24.6145 6.46629 24.6704 6.49021 24.7198C6.43438 24.7134 6.38493 24.7007 6.3291 24.6895C5.92711 24.6098 5.5251 24.455 5.15345 24.2381C4.99871 24.136 4.84396 24.0307 4.69401 23.9063Z" fill="#F6E233"/>
<path d="M26.7844 14.2541C26.8099 14.2413 26.8339 14.2174 26.8275 14.1488C26.8275 14.0802 26.7972 13.9638 26.6919 13.809C26.6424 13.7293 26.5627 13.6479 26.4574 13.5618C26.3521 13.482 26.2101 13.4007 26.0363 13.3512C25.8624 13.3018 25.6471 13.289 25.411 13.3384C25.2993 13.3688 25.1765 13.407 25.0585 13.474C24.9404 13.5426 24.8287 13.6288 24.7298 13.7404C24.532 13.9638 24.4012 14.2669 24.3964 14.5827C24.3837 14.8985 24.5017 15.2208 24.7059 15.4616C24.9101 15.7025 25.2004 15.8636 25.4923 15.9067C25.6407 15.9322 25.7891 15.9258 25.9262 15.9003C26.0682 15.8748 26.1926 15.8205 26.3091 15.7583C26.5388 15.6291 26.7047 15.4361 26.8036 15.2447C26.8961 15.0532 26.9328 14.8618 26.928 14.7071C26.9216 14.5524 26.8913 14.4343 26.8594 14.3609C26.8275 14.286 26.7972 14.2477 26.7844 14.2541Z" fill="#F6E233"/>
<path d="M31.7583 13.029C31.5414 13.1088 31.4249 13.3449 31.5047 13.5666C31.5844 13.7835 31.8269 13.9 32.0423 13.8202C32.2592 13.7405 32.3757 13.5044 32.2959 13.2827C32.2161 13.0657 31.9753 12.9556 31.7583 13.029Z" fill="#F6E233"/>
<path d="M31.6528 11.5005C31.5731 11.2836 31.337 11.1671 31.1152 11.2469C30.8983 11.3266 30.7819 11.5691 30.8616 11.7844C30.9414 12.0014 31.1838 12.1178 31.3992 12.0381C31.6161 11.9583 31.7342 11.7174 31.6528 11.5005Z" fill="#F6E233"/>
<path d="M32.3277 11.8165C32.1107 11.8963 31.9943 12.1324 32.074 12.3541C32.1538 12.571 32.3962 12.6875 32.6116 12.6077C32.8285 12.528 32.945 12.2919 32.8652 12.0701C32.7855 11.8532 32.5446 11.7415 32.3277 11.8165Z" fill="#F6E233"/>
<path d="M30.5459 12.4593C30.329 12.5391 30.2125 12.7752 30.2923 12.9969C30.372 13.2138 30.6145 13.3303 30.8299 13.2505C31.0468 13.1708 31.1633 12.9347 31.0835 12.7129C31.0037 12.4912 30.7629 12.3795 30.5459 12.4593Z" fill="#F6E233"/>
</svg>
