<svg width="32" height="32" viewBox="0 0 32 32" fill="none" xmlns="http://www.w3.org/2000/svg">
<path d="M14.7293 6.2154C14.8038 6.17393 14.9154 6.09204 15.0962 5.96336C15.1866 5.90168 15.2983 5.82724 15.4302 5.7411C15.562 5.65814 15.7226 5.5635 15.9087 5.4731C15.9917 5.43163 16.0821 5.39015 16.181 5.35719C16.1523 5.50607 16.1437 5.65815 16.1725 5.81129C16.2097 6.0176 16.3128 6.22815 16.4979 6.36428C16.5883 6.43021 16.6914 6.48019 16.7988 6.5004C16.9063 6.52486 17.0211 6.52911 17.137 6.5004C17.2487 6.47169 17.3593 6.41426 17.438 6.32706C17.5209 6.24091 17.5699 6.13351 17.5986 6.02609C17.623 5.91868 17.623 5.80701 17.6028 5.70386C17.5826 5.6007 17.5454 5.49755 17.4837 5.40716C17.3646 5.22957 17.1913 5.12215 17.0254 5.06473C16.8765 5.01156 16.7329 4.99455 16.5926 4.9988C16.6255 4.95307 16.6585 4.91266 16.7 4.87544C16.8116 4.76803 16.952 4.7106 17.1041 4.69358C17.253 4.67657 17.4051 4.70634 17.5412 4.75952C17.6773 4.81269 17.7932 4.89989 17.8879 4.9988C17.9825 5.0977 18.0569 5.21362 18.1186 5.32421C18.2377 5.55499 18.2877 5.78257 18.3164 5.97611C18.3451 6.16966 18.3537 6.32706 18.3622 6.43446C18.3622 6.45148 18.3664 6.46743 18.3664 6.48444C18.2877 6.4972 18.2101 6.51741 18.1314 6.55463C18.0197 6.60461 17.9166 6.68224 17.8347 6.77689C17.7517 6.87579 17.6901 6.99171 17.6571 7.11508C17.6241 7.23844 17.6156 7.37456 17.6401 7.499C17.504 7.5192 17.3678 7.54473 17.2317 7.57344C17.1456 7.59365 17.0584 7.61491 16.9765 7.64363C16.8935 7.66809 16.8031 7.70106 16.7213 7.73828C16.5607 7.81272 16.4033 7.90737 16.2671 8.02754C16.1268 8.10198 15.9907 8.19663 15.8715 8.30828C15.7812 8.39442 15.6939 8.49013 15.6238 8.59329C15.5493 8.69645 15.4876 8.80811 15.4377 8.92296C15.3345 9.15373 15.2728 9.39726 15.2441 9.64931C15.2154 9.90454 15.2399 10.1608 15.2973 10.4086C15.3547 10.6522 15.4377 10.8872 15.5323 11.1137C15.6269 11.3402 15.7301 11.5635 15.8545 11.7773C15.9779 11.9921 16.1225 12.2027 16.2916 12.3877C16.4607 12.5738 16.6628 12.7344 16.8861 12.8578C17.1084 12.9811 17.3562 13.0641 17.6125 13.0843C17.7114 13.0928 17.8145 13.0885 17.9134 13.0758C18.0697 13.1002 18.2271 13.1045 18.3792 13.08C18.5525 13.0513 18.7174 12.9769 18.8407 12.8652C18.9641 12.7578 19.0471 12.6217 19.0843 12.4813C19.1045 12.4111 19.113 12.3409 19.113 12.275C19.113 12.2091 19.1045 12.1474 19.0885 12.0889C19.0598 11.9772 19.0141 11.8826 18.9769 11.8039C18.9396 11.7252 18.9024 11.6592 18.8737 11.6061C18.8163 11.4987 18.7908 11.4412 18.7833 11.4412C18.8003 11.437 18.8078 11.4125 18.812 11.3466C18.8163 11.2849 18.8078 11.1817 18.829 11.0244C18.8418 10.9457 18.862 10.8553 18.8992 10.7521C18.9194 10.7021 18.945 10.649 18.9779 10.5958C18.9949 10.5713 19.0109 10.5426 19.0311 10.5171L19.0609 10.4873C19.0694 10.4788 19.0853 10.4671 19.0938 10.4586C19.147 10.4171 19.2172 10.3756 19.2916 10.3352C19.3703 10.2938 19.4522 10.2565 19.5469 10.2161C19.733 10.1374 19.9425 10.063 20.186 9.99705C20.2147 9.98854 20.2392 9.97259 20.2605 9.94707H20.2977C20.3179 9.94707 20.3307 9.95132 20.3551 9.95983C20.3753 9.96408 20.3966 9.97259 20.4168 9.97685C20.5859 10.03 20.7348 10.13 20.8496 10.2576C20.907 10.3193 20.957 10.3895 20.9942 10.4639C21.0315 10.5341 21.0602 10.6128 21.0846 10.6947C21.1346 10.8552 21.1708 11.0286 21.2622 11.186C21.308 11.2647 21.3696 11.3349 21.4398 11.388C21.51 11.4412 21.5887 11.4784 21.6664 11.504C21.8025 11.5454 21.9428 11.5497 22.0705 11.5284C22.1694 11.5656 22.2725 11.5816 22.3714 11.5816C22.4746 11.5816 22.5692 11.5571 22.6607 11.5242C22.8383 11.4582 22.9829 11.3466 23.0935 11.2317C23.3158 10.9924 23.4275 10.733 23.4891 10.5139C23.5221 10.4065 23.5391 10.3076 23.5508 10.2214C23.5636 10.1353 23.5678 10.0651 23.571 10.0024C23.5753 9.88327 23.5668 9.82052 23.5625 9.82052C23.5795 9.82052 23.604 9.75458 23.6125 9.54827C23.6167 9.34196 23.5923 8.99101 23.4476 8.4508C23.4104 8.31467 23.3689 8.17006 23.3158 8.00946C23.2626 7.84888 23.1924 7.6798 23.101 7.49794C23.0063 7.32034 22.8904 7.13103 22.7256 6.95345C22.6426 6.86305 22.548 6.78436 22.4448 6.70141C22.3374 6.62696 22.2226 6.55677 22.0939 6.49935C21.9662 6.44192 21.8301 6.39194 21.6897 6.35897C21.5451 6.32601 21.3973 6.30154 21.2399 6.29304C21.0836 6.28453 20.9219 6.28878 20.7571 6.31324C20.7156 6.3175 20.6742 6.326 20.6337 6.33345C20.6135 6.3377 20.5923 6.34196 20.5721 6.34621C20.5519 6.35046 20.5306 6.35472 20.5061 6.36322C20.42 6.38343 20.337 6.41321 20.2509 6.44618C20.0818 6.51211 19.9255 6.6025 19.7681 6.69822C19.6118 6.79712 19.4629 6.90027 19.3066 6.99918C19.2981 7.00344 19.2938 7.00769 19.2864 7.01194C19.2821 6.99174 19.2736 6.96622 19.2619 6.9375C19.2417 6.88752 19.2087 6.83009 19.163 6.76416C19.113 6.70248 19.0471 6.63654 18.9524 6.58231C18.862 6.52488 18.7461 6.47915 18.6058 6.4632C18.5483 6.45469 18.4898 6.45469 18.4282 6.4632C18.4282 6.45044 18.4324 6.43448 18.4324 6.42172C18.4409 6.31431 18.4526 6.15373 18.4409 5.95166C18.4282 5.74961 18.3909 5.50183 18.2761 5.2466C18.2187 5.11899 18.14 4.98712 18.0368 4.86696C17.9836 4.80528 17.9251 4.75104 17.8592 4.69787C17.7933 4.64469 17.7188 4.59896 17.6369 4.56174C17.4764 4.4873 17.2945 4.44583 17.1009 4.45859C17.0063 4.46709 16.9074 4.4873 16.8159 4.52452C16.7213 4.56174 16.6341 4.61492 16.5607 4.6851C16.4533 4.77975 16.3671 4.89992 16.3055 5.02753C16.248 5.04455 16.1896 5.0605 16.1364 5.07752C16.013 5.12324 15.9014 5.17216 15.8067 5.2264C15.6089 5.33381 15.4515 5.43697 15.3196 5.53162C15.1878 5.62627 15.0804 5.71347 14.99 5.7911C14.8166 5.94424 14.722 6.05058 14.6677 6.12076C14.6178 6.19095 14.6103 6.22392 14.622 6.23668C14.622 6.26433 14.6549 6.26007 14.7293 6.2154ZM21.7002 11.3924C21.5683 11.3467 21.4524 11.2606 21.3822 11.1287C21.3078 11.0011 21.2748 10.8362 21.2291 10.6671C21.2046 10.581 21.1759 10.4896 21.1302 10.4034C21.0844 10.3173 21.0313 10.2343 20.9653 10.1599C20.8335 10.011 20.6644 9.89189 20.4666 9.8217C20.4421 9.81319 20.4166 9.80468 20.3921 9.79724C20.3719 9.78873 20.3347 9.78022 20.306 9.78022C20.2858 9.78022 20.2645 9.77597 20.2443 9.77597C20.2156 9.74725 20.1741 9.73024 20.1284 9.73449C20.005 9.74725 19.8849 9.77597 19.7615 9.80894C19.6381 9.84191 19.5094 9.87912 19.3776 9.92804C19.2244 9.98122 19.0681 10.044 18.916 10.1173C18.8788 10.1375 18.8373 10.1546 18.8001 10.1748L18.7427 10.2035L18.6853 10.2364C18.6066 10.2864 18.5321 10.3268 18.4502 10.4226C18.4375 10.4353 18.4332 10.4428 18.4258 10.4513L18.4056 10.48C18.3928 10.5002 18.3811 10.5215 18.3683 10.5417C18.3439 10.5831 18.3226 10.6246 18.3024 10.6693C18.2652 10.7554 18.2365 10.8469 18.2163 10.9415C18.179 11.1276 18.1875 11.3254 18.245 11.5105C18.2981 11.6923 18.3896 11.8444 18.4428 11.989C18.4715 12.0592 18.4885 12.1294 18.496 12.1996C18.5045 12.2698 18.496 12.3314 18.4757 12.3974C18.4672 12.4261 18.4555 12.4506 18.4428 12.4761C18.3928 12.5707 18.3194 12.6537 18.228 12.7111C18.0631 12.8185 17.844 12.86 17.6303 12.8387C17.4155 12.8185 17.2017 12.7483 17.0071 12.6367C16.8136 12.525 16.636 12.3814 16.4828 12.2113C16.1734 11.8731 15.9628 11.4477 15.782 11.0106C15.6916 10.7915 15.6129 10.5735 15.5629 10.347C15.5129 10.1248 15.4927 9.89718 15.5172 9.67917C15.5417 9.45691 15.6033 9.23783 15.6905 9.03577C15.7363 8.93687 15.7894 8.84222 15.8511 8.75076C15.9128 8.66462 15.9872 8.58167 16.0617 8.51148C16.218 8.36685 16.4041 8.25625 16.6019 8.18606C16.804 8.11162 17.0188 8.0627 17.2368 8.02548C17.4516 7.98826 17.6696 7.95955 17.8845 7.92232C18.0993 7.8851 18.3098 7.83618 18.5077 7.766C18.7097 7.69581 18.8958 7.60116 19.0606 7.498C19.2297 7.3991 19.3829 7.29169 19.5307 7.19703C19.6796 7.10239 19.8231 7.01944 19.9678 6.95775C20.1124 6.89607 20.2571 6.85885 20.4091 6.83439C20.7058 6.78441 20.9951 6.79292 21.2503 6.83865C21.3779 6.86311 21.5024 6.90033 21.6129 6.94181C21.7246 6.98753 21.832 7.04071 21.9224 7.10239C22.0171 7.16407 22.1 7.23 22.1744 7.30444C22.2489 7.37889 22.3148 7.45758 22.3722 7.53522C22.4882 7.6958 22.5743 7.85745 22.6402 8.01377C22.6487 8.03398 22.6573 8.05524 22.6647 8.07545C22.6934 8.14989 22.7221 8.22008 22.7477 8.29452C22.8965 8.72734 23.0114 9.16443 23.0369 9.58132C23.0656 9.99818 22.9912 10.4066 22.8178 10.7362C22.7764 10.8192 22.7274 10.8968 22.669 10.967C22.6158 11.0372 22.553 11.1031 22.4871 11.1606C22.3595 11.2765 22.2106 11.3584 22.0543 11.3913H22.05C22.0415 11.3956 22.0298 11.3998 22.0213 11.4041C21.9267 11.4371 21.8119 11.4296 21.7002 11.3924ZM18.565 6.75581C18.6597 6.76432 18.7426 6.78877 18.8085 6.826C18.8745 6.85896 18.9276 6.90044 18.9734 6.93766C19.0148 6.97913 19.0478 7.01636 19.0723 7.04932C19.0925 7.07378 19.1052 7.09505 19.1223 7.11526C19.0191 7.17269 18.9117 7.22267 18.8 7.26415C18.6224 7.33008 18.4331 7.37581 18.2311 7.41303C18.1237 7.43324 18.0088 7.45025 17.8971 7.4662C17.8844 7.37581 17.8886 7.2801 17.9174 7.19396C17.9705 7.02061 18.0992 6.88025 18.2513 6.81431C18.3045 6.78985 18.363 6.77284 18.4119 6.76433C18.4704 6.75582 18.5193 6.75155 18.565 6.75581ZM16.9358 5.32864C17.0591 5.37437 17.1793 5.452 17.2538 5.56366C17.3282 5.67107 17.3569 5.8274 17.3282 5.95927C17.3112 6.0252 17.2825 6.08688 17.2378 6.13261C17.1921 6.17834 17.1389 6.21131 17.073 6.23151C16.9411 6.26448 16.7763 6.23151 16.6604 6.14537L16.6199 6.11134C16.6029 6.09858 16.5955 6.08688 16.5827 6.07412C16.57 6.06136 16.5583 6.0454 16.5455 6.02839C16.537 6.01137 16.5253 5.99542 16.5125 5.97841C16.4753 5.91247 16.4466 5.83803 16.4296 5.75933C16.4009 5.603 16.4126 5.4371 16.4583 5.28503C16.4913 5.28077 16.5242 5.27652 16.5572 5.27227C16.6752 5.2712 16.8082 5.28291 16.9358 5.32864Z" fill="#F6E233"/>
<path d="M21.8813 17.6986C21.8856 17.6901 21.8856 17.6816 21.8898 17.6699C21.8983 17.6167 21.8941 17.5625 21.8813 17.5167C21.8686 17.471 21.8526 17.4338 21.8313 17.4008C21.7941 17.3349 21.7484 17.2849 21.708 17.2445C21.675 17.2115 21.6378 17.1785 21.6006 17.1498C21.6091 17.1456 21.6176 17.1413 21.625 17.1371C21.675 17.1084 21.7324 17.0626 21.7899 17.0095C21.8473 16.952 21.909 16.8861 21.976 16.7989C22.0419 16.7159 22.1078 16.617 22.1823 16.5096C22.2195 16.4565 22.2567 16.398 22.2982 16.3405C22.3184 16.3118 22.3397 16.2789 22.3641 16.2459C22.3843 16.2129 22.4099 16.1757 22.4301 16.1427C22.6077 15.8535 22.7555 15.5195 22.8757 15.1856C22.9331 15.0165 22.9873 14.8517 23.032 14.6869C23.0735 14.5178 23.1064 14.3487 23.0937 14.1796C23.0894 14.0966 23.0767 14.0148 23.0522 13.9403C23.0277 13.8659 22.9948 13.7999 22.9575 13.7383C22.8757 13.6277 22.7725 13.5447 22.6779 13.5043C22.6534 13.4958 22.6321 13.4873 22.6077 13.4798C22.5832 13.4756 22.5619 13.4713 22.5417 13.4713C22.513 13.4713 22.4843 13.4756 22.4588 13.4841C22.4418 13.4309 22.4258 13.3809 22.3971 13.331C22.3514 13.2406 22.2812 13.1619 22.2036 13.1044C22.1249 13.0513 22.0387 13.0183 21.9558 13.014C21.8728 13.0098 21.8069 13.0311 21.758 13.0598C21.741 13.0683 21.725 13.08 21.7122 13.0927C21.6793 13.0098 21.6293 12.9322 21.5634 12.8662C21.5219 12.8247 21.473 12.7875 21.4187 12.7588C21.3656 12.7301 21.3071 12.7173 21.2539 12.7088C21.1422 12.6961 21.0348 12.7258 20.9572 12.7833C20.9285 12.8035 20.9072 12.829 20.887 12.8577C20.8009 12.7344 20.6892 12.6269 20.5573 12.5355C20.5159 12.5068 20.4712 12.4823 20.417 12.461C20.3638 12.4408 20.3011 12.4281 20.2309 12.4366C20.1649 12.4408 20.1075 12.4653 20.0575 12.4898C20.0075 12.5142 19.9714 12.5429 19.9342 12.5727C19.9012 12.5972 19.8597 12.6301 19.8182 12.6716C19.798 12.6918 19.781 12.7173 19.7651 12.7503C19.7481 12.779 19.7364 12.8162 19.7321 12.8577C19.7279 12.8949 19.7321 12.9364 19.7449 12.9694C19.7576 13.0023 19.7736 13.0311 19.7906 13.0555C19.8236 13.1012 19.8608 13.1342 19.8895 13.1629C19.9182 13.1916 19.9395 13.2129 19.9597 13.2374C19.9799 13.2618 19.9969 13.2905 20.0097 13.3203C20.0384 13.3777 20.0554 13.4394 20.0596 13.5064C20.0767 13.634 20.0469 13.7542 20.0022 13.8574C19.9565 13.9605 19.8948 14.0467 19.8416 14.1094C19.8331 14.1179 19.8289 14.1264 19.8214 14.1339L19.8129 14.1466L19.8044 14.1551C19.7917 14.1679 19.7757 14.1796 19.7629 14.1924C19.7587 14.1966 19.7544 14.2009 19.7502 14.2009C19.7502 14.1349 19.7587 14.0605 19.7629 13.9818C19.7672 13.9201 19.7715 13.8499 19.7629 13.7755C19.7544 13.701 19.7385 13.6224 19.7055 13.5532C19.6885 13.516 19.6683 13.483 19.6481 13.4501C19.6353 13.4331 19.6279 13.4171 19.6109 13.4001C19.5981 13.3831 19.5822 13.3671 19.5651 13.3544C19.4992 13.2969 19.4205 13.2555 19.3301 13.2384C19.2844 13.2299 19.2355 13.2299 19.1897 13.2384C19.1398 13.247 19.0993 13.2629 19.0579 13.2884C18.9792 13.3342 18.9217 13.4043 18.8845 13.466C18.843 13.532 18.8186 13.5979 18.7941 13.6596C18.7739 13.7213 18.7527 13.7829 18.7325 13.8457C18.6952 13.969 18.6665 14.0935 18.6421 14.2126C18.6293 14.2743 18.6219 14.3359 18.6133 14.3944C18.6048 14.4519 18.5963 14.5104 18.5889 14.5678C18.5719 14.6837 18.5602 14.7986 18.5474 14.906C18.5272 15.1282 18.5229 15.3388 18.5432 15.5249C18.5602 15.711 18.5963 15.8758 18.6421 16.0077C18.6623 16.0736 18.6878 16.131 18.708 16.181C18.5963 16.1853 18.4857 16.1938 18.3656 16.231C18.3368 16.2395 18.3039 16.2512 18.2709 16.264L18.2465 16.2767C18.2379 16.281 18.2294 16.2852 18.222 16.2938C18.205 16.3065 18.189 16.314 18.1688 16.3267C18.1401 16.3512 18.1156 16.3725 18.0901 16.3969C18.0699 16.4214 18.0487 16.4426 18.0284 16.4671C17.954 16.5617 17.9051 16.6532 17.8551 16.7478C17.7605 16.9339 17.6818 17.119 17.6116 17.3051C17.4669 17.689 17.3563 18.0517 17.2564 18.4026C17.1904 18.6291 17.1373 18.8482 17.083 19.0587C17.0745 19.0502 17.0703 19.0385 17.0628 19.03C16.9926 18.9269 16.9267 18.8195 16.865 18.712C16.7417 18.4972 16.6342 18.2867 16.5141 18.0888C16.4971 18.0644 16.4854 18.0389 16.4683 18.0144C16.4513 17.9899 16.4354 17.9644 16.4184 17.94C16.3854 17.8942 16.3567 17.8496 16.3237 17.8081C16.262 17.7219 16.2003 17.639 16.1376 17.5561C16.0185 17.3955 15.8983 17.2466 15.7792 17.1105C15.6633 16.9743 15.5442 16.851 15.4368 16.7436C15.3251 16.6319 15.2177 16.5373 15.1114 16.4469C14.9008 16.2735 14.703 16.1502 14.5297 16.0629C14.1787 15.8896 13.9352 15.8481 13.7916 15.8279C13.7129 15.8194 13.664 15.8194 13.6353 15.8237C13.6353 15.7992 13.6268 15.7662 13.6023 15.7078C13.5736 15.6461 13.5236 15.5589 13.446 15.4398C13.3673 15.3207 13.2567 15.1675 13.1121 14.9814C13.0951 14.9612 13.0791 14.9442 13.0546 14.9314C13.0302 14.9187 13.0015 14.9112 12.9717 14.9112C12.9887 14.891 13.0047 14.841 13.0174 14.7379C13.0259 14.6719 13.0344 14.5815 13.0461 14.4656C13.0546 14.4082 13.0632 14.3423 13.0748 14.2763C13.0876 14.2104 13.1078 14.1317 13.1365 14.07C13.1408 14.0615 13.145 14.053 13.1493 14.0456C13.1535 14.0371 13.1621 14.0254 13.1663 14.0126C13.1791 13.9924 13.1908 13.9711 13.2035 13.9509C13.228 13.9094 13.2535 13.8648 13.2822 13.819C13.3354 13.7329 13.4013 13.6457 13.4843 13.5426C13.5672 13.4394 13.6534 13.3235 13.7395 13.1874C13.8257 13.0555 13.9129 12.9023 13.9873 12.729C14.0575 12.5514 14.1192 12.3536 14.1362 12.1313C14.1362 12.1026 14.1404 12.0782 14.1404 12.0484V11.9654C14.1404 11.908 14.1362 11.8538 14.1362 11.8006C14.1277 11.6889 14.1192 11.5741 14.1032 11.4582C14.0703 11.2274 14.0245 10.9839 13.9543 10.7318C13.9214 10.6042 13.8799 10.4766 13.8352 10.3437C13.7895 10.2118 13.7406 10.0799 13.6746 9.94378C13.6087 9.8034 13.53 9.66728 13.4396 9.5439C13.3567 9.43224 13.2663 9.32164 13.1631 9.22167C13.2907 9.10575 13.4152 8.98239 13.5013 8.8335C13.6002 8.66016 13.6502 8.44958 13.5875 8.26029C13.4928 7.96784 13.1748 7.80618 12.8696 7.75726C12.5027 7.69983 12.1146 7.76152 11.7849 7.93061C11.5626 8.04652 11.3595 8.21135 11.1245 8.30176C10.7735 8.43788 10.3779 8.40492 10.0068 8.4549C9.38357 8.53785 8.80186 8.87176 8.41475 9.36629C8.24992 9.58111 8.11806 9.82465 8.0638 10.0884C8.01382 10.3521 8.04679 10.6414 8.19567 10.8679C7.89898 10.8924 7.66395 11.1646 7.60544 11.4581C7.54801 11.7506 7.6299 12.0526 7.75007 12.3248C7.8862 12.6301 8.06806 12.9108 8.28607 13.1618C8.48387 13.3883 8.7359 13.5946 9.03687 13.6276C9.13577 13.6403 9.23893 13.6233 9.33356 13.5818C9.43672 13.7265 9.53137 13.8626 9.6143 13.9902C9.85784 14.3571 10.0057 14.6379 10.0844 14.774C10.0599 14.7867 10.0386 14.8069 10.0227 14.8314L10.0184 14.8399C9.93973 14.9633 9.85359 15.1079 9.75469 15.2812C9.67174 15.4259 9.5856 15.5779 9.49946 15.7354L9.49521 15.7439C9.49095 15.7524 9.4867 15.7609 9.48244 15.7726C9.45373 15.7683 9.42077 15.7683 9.3878 15.7683C9.35483 15.7683 9.31761 15.7641 9.28039 15.7641C9.24317 15.7641 9.19744 15.7683 9.15703 15.7726C9.13682 15.7726 9.1113 15.7768 9.08684 15.7768C9.06238 15.7768 9.03686 15.7811 9.0124 15.7853C8.96241 15.7938 8.90499 15.8024 8.84756 15.8141C8.61679 15.8598 8.33604 15.9502 8.01805 16.1193C7.97658 16.1395 7.93936 16.165 7.89895 16.1852C7.85747 16.2097 7.816 16.2352 7.77559 16.2596C7.73411 16.2884 7.69264 16.3171 7.65223 16.3458C7.63202 16.3628 7.61075 16.3745 7.58629 16.3915C7.56609 16.4085 7.54482 16.4245 7.52461 16.4415C7.35127 16.5691 7.17366 16.7222 6.99289 16.8998C6.63026 17.2508 6.26229 17.7038 5.88689 18.2568C5.70079 18.5333 5.51574 18.8385 5.32538 19.1682C5.13609 19.4979 4.94998 19.8531 4.75644 20.2328C4.55438 20.6241 4.38104 21.0537 4.26194 21.5323C4.20451 21.7716 4.15878 22.0268 4.14283 22.2916C4.12581 22.5554 4.14283 22.8361 4.21302 23.1211C4.25449 23.286 4.32043 23.4508 4.41933 23.5997C4.51823 23.7486 4.64159 23.8762 4.766 23.9878C4.82768 24.041 4.88936 24.0953 4.9553 24.1442C4.98827 24.1686 5.01698 24.1942 5.0542 24.2229C5.09142 24.2516 5.1329 24.276 5.17331 24.2973C5.33389 24.3877 5.51149 24.4419 5.68483 24.4707C6.14637 24.5823 6.62492 24.5738 7.08752 24.4664C7.05881 24.5823 7.02159 24.7514 6.98011 24.9939V25.0066C6.97586 25.0683 7.02584 25.1258 7.08752 25.1258H7.10029C7.88193 25.1481 8.91671 27.4191 11.8743 27.4191C12.7368 27.4149 14.1596 25.1736 15.0838 25.1694H15.088C15.1869 25.1694 15.2656 25.0864 15.2656 24.9875C15.2656 24.8386 15.2614 24.6908 15.2614 24.5419V24.1006V23.2179V22.4256C15.3113 22.4756 15.3773 22.533 15.4549 22.6032C15.541 22.6691 15.6325 22.7521 15.7474 22.8255C15.9739 22.9818 16.2716 23.1551 16.647 23.2838C16.8331 23.3455 17.0384 23.3997 17.2617 23.42C17.484 23.4444 17.7233 23.4444 17.9668 23.3997C18.2103 23.354 18.4613 23.2594 18.6931 23.1233C18.9239 22.9871 19.1387 22.8095 19.3408 22.6117C19.7364 22.2119 20.0746 21.7206 20.3766 21.1931C20.9785 20.1413 21.4368 18.9194 21.8813 17.6986ZM18.7431 14.9271C18.7602 14.8197 18.7804 14.7123 18.8006 14.6017C18.8208 14.49 18.8463 14.3709 18.8708 14.2593C18.8952 14.1434 18.9282 14.0328 18.9697 13.9168C18.9899 13.8594 19.0111 13.8052 19.0313 13.7478C19.0515 13.6946 19.0771 13.6446 19.1058 13.6031C19.1345 13.5616 19.1632 13.5287 19.1919 13.517C19.2206 13.5 19.2494 13.4968 19.2823 13.5042C19.3153 13.5127 19.3525 13.5287 19.3812 13.5574C19.3897 13.5659 19.394 13.5702 19.4014 13.5776C19.4057 13.5861 19.4142 13.5978 19.4216 13.6063C19.4344 13.6265 19.4461 13.6435 19.4546 13.6637C19.4918 13.7467 19.4918 13.8456 19.4833 13.9647C19.4748 14.0806 19.4589 14.2125 19.4791 14.3529C19.4918 14.4231 19.512 14.4933 19.5407 14.5549C19.5695 14.6166 19.6152 14.6783 19.6641 14.724C19.763 14.8144 19.8619 14.8601 19.9321 14.9101C20.0065 14.9559 20.0512 14.9963 20.0927 15.0505C20.1299 15.1037 20.1586 15.1622 20.1788 15.2196C20.216 15.3355 20.2203 15.4461 20.2118 15.5418C20.2033 15.6365 20.1831 15.7194 20.1618 15.7896C20.1203 15.93 20.0831 16.0161 20.0714 16.0703C20.0586 16.1278 20.0629 16.1533 20.0799 16.1607C20.0969 16.1692 20.1214 16.165 20.1661 16.1235C20.2075 16.082 20.2735 16.0044 20.3479 15.8598C20.3851 15.7853 20.4224 15.6949 20.4426 15.5748C20.467 15.4557 20.4713 15.3068 20.4255 15.1462C20.4053 15.0632 20.3681 14.9771 20.3096 14.8942C20.2809 14.8527 20.2479 14.8112 20.2065 14.7751C20.165 14.7378 20.1235 14.7091 20.0789 14.6804C19.9927 14.6272 19.9098 14.5815 19.8566 14.5273C19.8279 14.5028 19.8066 14.4741 19.7907 14.4369C19.7736 14.3996 19.7619 14.3582 19.7534 14.3135C19.7534 14.305 19.7492 14.2965 19.7492 14.2891C19.7662 14.2805 19.7821 14.272 19.8024 14.2646C19.8194 14.2561 19.8353 14.2476 19.8555 14.2359C19.8598 14.2316 19.864 14.2274 19.8725 14.2231L19.8853 14.2146C19.8938 14.2061 19.9023 14.2018 19.914 14.1944C19.9885 14.1327 20.0703 14.0498 20.1363 13.9349C20.1692 13.8775 20.2022 13.8116 20.2224 13.7371C20.2426 13.6627 20.2554 13.584 20.2554 13.4978C20.2554 13.4149 20.2384 13.3245 20.2054 13.2426C20.1884 13.2011 20.1682 13.1565 20.1437 13.1192C20.1193 13.0778 20.082 13.0405 20.0576 13.0076C20.0289 12.9789 20.0044 12.9502 19.9916 12.9289C19.9789 12.9087 19.9789 12.9002 19.9789 12.8917C19.9789 12.8874 19.9874 12.8746 20.0033 12.8544C20.0236 12.8342 20.0533 12.813 20.0863 12.7928C20.1522 12.747 20.2097 12.7141 20.2469 12.7141C20.2841 12.7098 20.3373 12.7343 20.3958 12.7715C20.5149 12.8544 20.618 12.965 20.6925 13.0852C20.7669 13.2043 20.8116 13.3245 20.8371 13.4319C20.8615 13.5393 20.8658 13.6382 20.8615 13.7286C20.853 13.9062 20.8116 14.0295 20.7829 14.1199C20.7541 14.2103 20.7297 14.2688 20.7212 14.3092C20.7127 14.3464 20.7212 14.3709 20.7339 14.3837C20.751 14.3964 20.7712 14.3964 20.8084 14.3752C20.8456 14.3507 20.8988 14.305 20.9615 14.2103C21.0189 14.1157 21.0934 13.971 21.1178 13.752C21.1306 13.6446 21.1306 13.5169 21.1051 13.3766C21.0806 13.2532 21.0349 13.1213 20.9605 12.9852C20.9807 12.9608 21.0062 12.9352 21.0391 12.9235C21.0891 12.8991 21.1508 12.8948 21.2167 12.9108C21.2827 12.9278 21.3401 12.9682 21.3858 13.0267C21.4316 13.0841 21.4688 13.1628 21.4847 13.2458C21.5049 13.3287 21.5092 13.4234 21.5049 13.518C21.5049 13.6127 21.4964 13.7073 21.4879 13.7987C21.4677 13.9763 21.4379 14.1167 21.4135 14.2273C21.389 14.339 21.3678 14.4166 21.3561 14.4794C21.3316 14.5985 21.3475 14.6399 21.3848 14.657C21.4177 14.674 21.4677 14.6655 21.5411 14.5538C21.5783 14.5006 21.6198 14.4177 21.6602 14.3018C21.7017 14.1858 21.7432 14.0295 21.7676 13.8317C21.7804 13.7328 21.7846 13.6254 21.7804 13.518C21.7761 13.4106 21.7676 13.2957 21.7346 13.1798C21.7517 13.1756 21.7676 13.1713 21.7878 13.167C21.8293 13.1628 21.8782 13.1628 21.9282 13.1756C21.9782 13.1883 22.0271 13.2213 22.0728 13.2617C22.2621 13.435 22.2504 13.8434 22.176 14.1358C22.1388 14.2847 22.0898 14.3996 22.0484 14.4868C22.0069 14.5729 21.9739 14.6357 21.9537 14.6846C21.9335 14.7346 21.9207 14.7676 21.9207 14.792C21.9207 14.8165 21.9293 14.8377 21.941 14.8494C21.9537 14.8622 21.9739 14.8696 21.9984 14.8665C22.0228 14.8622 22.0601 14.8462 22.1058 14.809C22.1515 14.7718 22.2089 14.7101 22.2706 14.6155C22.3323 14.5208 22.3982 14.389 22.444 14.2071C22.4897 14.0295 22.5057 13.8232 22.4769 13.6254C22.4727 13.6009 22.4684 13.5754 22.4642 13.551C22.4812 13.551 22.4971 13.5552 22.5174 13.5595C22.5344 13.5637 22.5503 13.568 22.5631 13.5765C22.5801 13.585 22.596 13.5935 22.6131 13.6052C22.6832 13.6509 22.7534 13.7243 22.8024 13.8243C22.8268 13.8742 22.8481 13.9317 22.8598 13.9934C22.8725 14.055 22.8768 14.1167 22.8768 14.1869C22.8725 14.323 22.8396 14.4719 22.7864 14.624C22.7364 14.7771 22.6747 14.942 22.6131 15.0983C22.4854 15.4163 22.3366 15.7289 22.1717 15.998C22.1515 16.031 22.1302 16.0639 22.11 16.0926C22.0898 16.1256 22.0686 16.1543 22.0484 16.183C22.0069 16.2447 21.9697 16.3064 21.9367 16.3606C21.8665 16.4723 21.8091 16.5669 21.7548 16.6456C21.7017 16.7286 21.6517 16.7945 21.606 16.8477C21.5602 16.9009 21.523 16.9424 21.49 16.9796C21.473 16.9966 21.4571 17.0083 21.4443 17.0253C21.4401 17.0296 21.4358 17.0338 21.4316 17.0381C21.4273 17.0381 21.4273 17.0338 21.423 17.0338C21.2369 16.9105 21.0434 16.8147 20.8498 16.7244C20.4585 16.5468 20.0575 16.4106 19.6492 16.3075C19.4429 16.2575 19.2366 16.2171 19.0217 16.1916C18.9388 16.1831 18.8612 16.1746 18.7782 16.1746C18.7612 16.1171 18.7452 16.0512 18.7282 15.9725C18.6995 15.8449 18.6825 15.6875 18.6782 15.511C18.6931 15.3355 18.7102 15.1377 18.7431 14.9271ZM13.3557 15.7268C13.4631 15.8098 13.529 15.8428 13.5747 15.8459C13.5418 15.8545 13.4673 15.9119 13.3684 16.0065C13.3397 16.031 13.311 16.0597 13.278 16.0927C13.278 16.0682 13.2738 16.0427 13.2695 16.0182C13.261 15.9682 13.2525 15.9236 13.2366 15.8736C13.2196 15.8236 13.1951 15.7789 13.1706 15.7375L13.1664 15.7332C13.1579 15.7205 13.1536 15.7088 13.1462 15.696C13.109 15.6343 13.0558 15.5769 12.993 15.5269C12.9728 15.5099 12.9558 15.4982 12.9356 15.4854C12.9441 15.4727 12.9558 15.461 12.9643 15.4482C12.9771 15.4312 12.9888 15.4152 13.0015 15.3982C13.0515 15.4482 13.0962 15.4929 13.1377 15.5344C13.2238 15.6194 13.2982 15.6822 13.3557 15.7268ZM13.1621 16.585C13.2121 16.5978 13.2653 16.6265 13.3068 16.6754C13.3482 16.7254 13.3769 16.7914 13.3897 16.869C13.3982 16.9477 13.3897 17.0338 13.3567 17.1242C13.3397 17.1699 13.3195 17.2189 13.2993 17.2603C13.2865 17.2805 13.2791 17.2976 13.2621 17.3178L13.2419 17.3465L13.2174 17.3794C13.0856 17.5485 12.9165 17.7176 12.7591 17.8622C12.6027 18.0111 12.487 18.0942 12.3839 18.1856C12.285 18.276 12.1976 18.3695 12.1486 18.4238C12.1242 18.4482 12.1072 18.4737 12.0912 18.494C12.054 18.444 12.0168 18.3908 11.9753 18.3408C11.7892 18.1015 11.5914 17.875 11.3734 17.6687C11.1543 17.4666 10.9236 17.2805 10.6598 17.1444C10.5939 17.1072 10.5194 17.0785 10.4492 17.0498C10.4663 16.9923 10.4737 16.8966 10.462 16.7647C10.4535 16.686 10.4375 16.5914 10.4088 16.4882C10.3918 16.4351 10.3759 16.3808 10.3588 16.3234C10.3386 16.266 10.3216 16.2075 10.3057 16.1501C10.3014 16.1373 10.2972 16.1214 10.2972 16.1128C10.2972 16.1001 10.2929 16.0884 10.2929 16.0799V16.0671V16.0629C10.2929 16.0629 10.2929 16.0544 10.2972 16.0458C10.2972 16.0373 10.3014 16.0331 10.3014 16.0256C10.3184 15.9682 10.3471 15.9097 10.3844 15.8651C10.4014 15.8449 10.4216 15.8236 10.446 15.8076L10.4631 15.7991C10.4673 15.7949 10.4716 15.7949 10.4758 15.7906C10.4843 15.7864 10.496 15.7821 10.5088 15.7821C10.5333 15.7779 10.5588 15.7779 10.5747 15.7864C10.5917 15.7906 10.5992 15.7991 10.6034 15.8034L10.6938 15.8566C10.6981 15.8608 10.7023 15.8608 10.7066 15.8651C10.7895 15.9065 10.8927 15.8736 10.9331 15.7864C11.1267 15.3908 11.3457 14.9526 11.5606 14.5283C11.6137 14.4209 11.668 14.3177 11.7254 14.2188C11.7541 14.1657 11.8115 14.1284 11.8743 14.1284C11.936 14.1242 11.9976 14.1571 12.0349 14.2071C12.0519 14.2316 12.0636 14.2603 12.0678 14.2933C12.0721 14.3262 12.0721 14.3549 12.0593 14.3879C12.0264 14.4783 11.9891 14.574 11.9519 14.6602C11.9147 14.7463 11.8817 14.8335 11.8488 14.9122C11.7828 15.0728 11.7254 15.2132 11.6797 15.3333C11.6339 15.4524 11.5967 15.5482 11.5765 15.6141C11.5563 15.68 11.5478 15.7172 11.5563 15.7257C11.5691 15.7343 11.5978 15.7055 11.6424 15.6513C11.6882 15.5939 11.7456 15.5109 11.8115 15.3993C11.8573 15.3206 11.9104 15.2344 11.9647 15.1355C12.0104 15.1185 12.0593 15.1068 12.1093 15.1185C12.1752 15.1313 12.2454 15.1802 12.2656 15.2376C12.2784 15.2663 12.2858 15.3036 12.2858 15.3408C12.2858 15.3822 12.2773 15.4237 12.2688 15.4641C12.2444 15.5471 12.2114 15.6173 12.1827 15.6662C12.154 15.7194 12.1327 15.7566 12.1167 15.7896C12.088 15.8555 12.0965 15.9055 12.1253 15.9501C12.154 15.9916 12.1954 16.0246 12.2901 15.9959C12.3358 15.9788 12.3932 15.9427 12.4592 15.8768C12.4836 15.848 12.5124 15.8151 12.5421 15.7736C12.5666 15.7779 12.5921 15.7779 12.6208 15.7693C12.6495 15.7608 12.674 15.7608 12.7038 15.7651C12.7325 15.7693 12.7612 15.7821 12.7867 15.8023C12.8154 15.8225 12.8399 15.8438 12.8612 15.8768C12.8654 15.8853 12.8697 15.8895 12.8739 15.897C12.9154 15.9831 12.9154 16.0948 12.8941 16.2022C12.8739 16.3096 12.8367 16.3957 12.808 16.4659C12.7793 16.5361 12.758 16.5935 12.7463 16.6435C12.7261 16.7339 12.7506 16.7796 12.792 16.8126C12.8335 16.8413 12.8867 16.8541 12.9654 16.7956C13.0069 16.7669 13.0558 16.7169 13.11 16.6393C13.1228 16.619 13.1387 16.5978 13.1515 16.5691C13.1536 16.585 13.1579 16.585 13.1621 16.585ZM9.74217 13.904C9.66773 13.7764 9.58584 13.6361 9.49013 13.4872C9.6018 13.401 9.67943 13.2766 9.67943 13.1362C9.68368 12.9714 9.58903 12.8182 9.51034 12.6747C9.43164 12.5301 9.36571 12.3567 9.41994 12.2004C9.47312 12.0441 9.70921 11.9569 9.8113 12.0887L9.87298 12.1345C9.90594 12.1302 9.94317 12.1302 9.97613 12.1259C9.95593 11.9813 9.93466 11.8335 9.98889 11.6974C10.0304 11.59 10.1123 11.5038 10.1707 11.4049C10.2282 11.3018 10.2569 11.1784 10.2494 11.0582C10.2452 10.9264 10.1633 10.819 10.142 10.6999C10.3973 10.6137 10.6695 10.5723 10.93 10.485C11.1895 10.3989 11.4458 10.2958 11.6936 10.1756C12.1062 9.97778 12.4976 9.73425 12.8613 9.45351C13.0506 9.63961 13.2165 9.86612 13.3197 10.0927C13.3771 10.216 13.4228 10.3362 13.4643 10.4596C13.5058 10.5829 13.543 10.7031 13.576 10.8179C13.6419 11.053 13.6876 11.2837 13.7206 11.4986C13.7376 11.606 13.7493 11.7091 13.7536 11.8123C13.7578 11.8623 13.7621 11.9112 13.7621 11.9612V12.0313C13.7621 12.0558 13.7578 12.0771 13.7578 12.0973C13.7493 12.2749 13.7046 12.4397 13.6461 12.5918C13.527 12.8928 13.3569 13.1363 13.2133 13.3468C13.1389 13.4542 13.0644 13.5617 13.007 13.6691C12.9783 13.7222 12.9538 13.7722 12.9326 13.818C12.9198 13.8424 12.9124 13.8637 12.8996 13.8881C12.8954 13.9009 12.8911 13.9083 12.8826 13.9211C12.8783 13.9339 12.8698 13.9456 12.8656 13.9626C12.8241 14.07 12.8156 14.1604 12.8081 14.2433C12.8039 14.3263 12.8039 14.3965 12.8039 14.4581C12.8124 14.5815 12.8241 14.6772 12.8369 14.7432C12.8571 14.8463 12.8826 14.8963 12.9028 14.9122C12.8496 14.9207 12.7996 14.9537 12.7752 15.0069L12.7709 15.0111C12.7337 15.0813 12.688 15.16 12.6305 15.2377C12.6263 15.2462 12.6178 15.2547 12.6135 15.2621C12.5965 15.2004 12.5721 15.1345 12.5348 15.076C12.4774 14.9931 12.3987 14.9314 12.3158 14.9027C12.2456 14.874 12.1669 14.8654 12.0967 14.874C12.1137 14.8452 12.1254 14.8165 12.1424 14.7836C12.1881 14.6974 12.2328 14.6102 12.2785 14.5071C12.3073 14.4454 12.3243 14.3667 12.32 14.2923C12.3158 14.2178 12.2956 14.1391 12.2541 14.0732C12.1754 13.9371 12.0191 13.8424 11.85 13.8382C11.767 13.8339 11.6809 13.8552 11.6064 13.8956C11.532 13.9371 11.4661 13.9987 11.4171 14.0732C11.3512 14.1763 11.2938 14.2837 11.231 14.3869C11.0747 14.6676 10.9258 14.9484 10.7812 15.2238C10.7397 15.1824 10.6823 15.1334 10.6121 15.0707C10.5664 15.0335 10.5175 14.992 10.459 14.9431C10.4015 14.8973 10.3356 14.8442 10.2697 14.7867C10.2612 14.7825 10.2527 14.774 10.2495 14.7697C10.2037 14.741 10.1548 14.7368 10.1091 14.7495C10.0846 14.5932 9.96551 14.2912 9.74217 13.904ZM10.0846 15.4588C10.142 15.3599 10.192 15.2727 10.2409 15.1866C10.2537 15.1951 10.2696 15.2036 10.2824 15.2153C10.3483 15.2568 10.4058 15.294 10.46 15.3227C10.5589 15.3759 10.6376 15.4131 10.695 15.4344C10.695 15.4386 10.6908 15.4386 10.6908 15.4429C10.6865 15.4429 10.6865 15.4429 10.6823 15.4386C10.5993 15.4142 10.5174 15.4142 10.443 15.4258C10.4058 15.4344 10.3685 15.4429 10.3313 15.4588C10.2984 15.4758 10.2611 15.496 10.2324 15.512C10.175 15.5535 10.1335 15.5981 10.0963 15.6481C10.0219 15.7428 9.98038 15.8459 9.96017 15.9406C9.92721 15.9033 9.89849 15.8619 9.87403 15.8214C9.94422 15.6981 10.0144 15.5747 10.0846 15.4588ZM5.75317 24.0847C5.74892 24.0847 5.74041 24.0804 5.73616 24.0804C5.59578 24.0559 5.45966 24.0145 5.34799 23.9528C5.31927 23.9358 5.29056 23.9198 5.26504 23.8996C5.24058 23.8826 5.20761 23.8539 5.1789 23.8337C5.11722 23.7837 5.05979 23.7348 5.00555 23.6848C4.89389 23.5859 4.79924 23.487 4.72481 23.3753C4.65037 23.2637 4.60145 23.1403 4.56848 23.0084C4.51212 22.7681 4.4951 22.5288 4.51212 22.2895C4.52488 22.0545 4.56529 21.8195 4.61953 21.5961C4.73119 21.1506 4.89177 20.7422 5.07788 20.3753C5.27143 19.9956 5.45328 19.6447 5.63514 19.3193C5.817 18.9939 5.99353 18.6961 6.17114 18.4238C6.52634 17.8793 6.87195 17.438 7.20695 17.0956C7.37604 16.9265 7.53662 16.7733 7.69403 16.65C7.71423 16.633 7.73125 16.617 7.75146 16.6C7.77166 16.583 7.79293 16.5713 7.80888 16.5543C7.8461 16.5256 7.88758 16.4968 7.9248 16.4713C7.96202 16.4469 7.99924 16.4213 8.03646 16.3969C8.07369 16.3724 8.10665 16.3469 8.14387 16.3267C8.43313 16.1533 8.68412 16.0544 8.89467 15.9928C8.94784 15.98 8.99783 15.964 9.04356 15.9513C9.06802 15.9428 9.08929 15.9385 9.11375 15.9343C9.13395 15.93 9.15947 15.9258 9.17968 15.9215C9.22115 15.913 9.25838 15.9045 9.2956 15.9013C9.33282 15.897 9.36579 15.8928 9.3945 15.8885C9.42747 15.8843 9.46043 15.88 9.48915 15.8758V15.88C9.55508 16.0289 9.65824 16.1438 9.76564 16.2384C9.85604 16.3214 9.95494 16.3873 10.0549 16.449C10.0751 16.499 10.0964 16.5436 10.1166 16.5894C10.1581 16.6797 10.1825 16.7542 10.207 16.8201C10.2314 16.8903 10.2485 16.9477 10.2644 16.9935C10.1113 16.9605 9.95494 16.9477 9.80287 16.969C9.77841 16.9733 9.75288 16.986 9.73268 17.002C9.57954 17.1583 9.43598 17.3114 9.29559 17.4678C9.2254 17.5465 9.15521 17.6209 9.08928 17.6943C9.05631 17.7315 9.01909 17.773 8.98612 17.8102C8.95315 17.8474 8.92444 17.8889 8.89147 17.9261C8.64794 18.2398 8.41716 18.5365 8.19809 18.8173C7.761 19.3788 7.38135 19.8775 7.06764 20.2902C6.75393 20.7028 6.50613 21.0282 6.34129 21.2558C6.17645 21.4823 6.08925 21.6068 6.09776 21.6142C6.10627 21.6227 6.20942 21.511 6.39445 21.2962C6.58056 21.0814 6.84428 20.7687 7.17397 20.3721C7.50364 19.9722 7.90033 19.4894 8.3491 18.9407C8.57136 18.6642 8.81063 18.376 9.06268 18.0665C9.09564 18.0293 9.12436 17.9878 9.15733 17.9506C9.19029 17.9134 9.22326 17.8804 9.25623 17.8432C9.32642 17.7687 9.3966 17.6943 9.46679 17.6209C9.59866 17.4848 9.73479 17.3444 9.87516 17.2041C10.0974 17.187 10.3293 17.2498 10.5473 17.3689C10.7781 17.4923 10.9929 17.6656 11.1907 17.8602C11.3885 18.058 11.5789 18.2771 11.7522 18.5079C11.8383 18.6238 11.9255 18.7429 12.0074 18.8662C12.0691 18.9609 12.1308 19.0598 12.1893 19.1555C11.7809 19.683 11.3481 20.22 10.9025 20.7475C10.4324 21.3048 9.94537 21.8609 9.42957 22.3938C9.17009 22.6575 8.90953 22.9212 8.63303 23.1573L8.52988 23.2477C8.51286 23.2647 8.49691 23.2764 8.4767 23.2935L8.42353 23.3349L8.20871 23.504C8.17149 23.5327 8.13427 23.554 8.1013 23.5827C8.06408 23.6072 8.02686 23.6327 7.98964 23.6572L7.87798 23.7273L7.76206 23.789C7.4526 23.9539 7.11441 24.0613 6.77198 24.1113C6.43061 24.1751 6.07965 24.1665 5.75317 24.0847ZM7.21755 24.8599C7.23032 24.6494 7.23457 24.5047 7.23032 24.4058C7.47385 24.3399 7.70887 24.2452 7.93113 24.1251L8.05875 24.0549L8.18211 23.9762C8.22358 23.9517 8.26506 23.923 8.30547 23.8932C8.34694 23.8645 8.38842 23.8401 8.42457 23.8071L8.65109 23.6295L8.70852 23.5838C8.72553 23.5668 8.74574 23.5508 8.76169 23.538L8.8691 23.4434C9.15836 23.1914 9.41784 22.9234 9.68159 22.6511C10.2016 22.1066 10.6844 21.5377 11.1545 20.9719C11.6203 20.403 12.0701 19.8372 12.4913 19.2725V19.2682C12.5242 19.2225 12.5327 19.1566 12.4998 19.1034C12.4168 18.963 12.3349 18.8354 12.2477 18.712C12.2392 18.695 12.2275 18.6833 12.2148 18.6663C12.2392 18.6621 12.2648 18.6536 12.2977 18.6419C12.3679 18.6131 12.4626 18.5632 12.5827 18.4855C12.7018 18.4068 12.8465 18.2962 13.0113 18.1346C13.1804 17.974 13.3537 17.7921 13.4984 17.5731L13.5271 17.5316L13.5516 17.4859C13.5686 17.4571 13.5845 17.4199 13.6015 17.387C13.626 17.3253 13.6473 17.2636 13.659 17.1977C13.6877 17.0658 13.6877 16.9254 13.6462 16.8021C13.609 16.6787 13.5345 16.5755 13.4399 16.5096C13.3782 16.4639 13.3123 16.4437 13.2506 16.4352C13.3453 16.3076 13.4239 16.1916 13.4814 16.097C13.5675 15.9524 13.609 15.862 13.5888 15.845H13.5973C13.6101 15.8652 13.6547 15.8949 13.7621 15.9353C13.7706 15.9396 13.7749 15.9439 13.7823 15.9481C13.9057 16.0226 14.079 16.1417 14.2524 16.3363C14.3385 16.4309 14.4172 16.5553 14.4959 16.6915C14.5661 16.8319 14.6363 16.9882 14.6852 17.1658C14.7926 17.5167 14.8501 17.9293 14.8788 18.3781C14.8873 18.4898 14.8915 18.6089 14.8958 18.7248C14.9 18.8439 14.9043 18.9641 14.9128 19.0874C14.9213 19.3352 14.9298 19.5862 14.933 19.8467C14.9415 20.3668 14.9458 20.9155 14.9373 21.4802C14.933 22.0449 14.9202 22.6224 14.9128 23.2126C14.9085 23.5051 14.9043 23.8028 14.9 24.0953L14.8958 24.5409V24.8003C14.0376 24.8003 13.1879 24.7961 12.3839 24.7961C9.58166 24.7982 8.043 24.8227 7.21755 24.8599ZM20.1163 21.0569C19.8313 21.577 19.5186 22.0555 19.1549 22.4384C18.9731 22.6319 18.7753 22.7967 18.569 22.9297C18.3627 23.0615 18.1436 23.1487 17.9213 23.1977C17.7023 23.2476 17.48 23.2551 17.2737 23.2391C17.0674 23.2264 16.8696 23.1817 16.692 23.1317C16.3336 23.0243 16.0358 22.8765 15.8051 22.7361C15.686 22.6702 15.5902 22.5958 15.4998 22.5383C15.4169 22.4767 15.3435 22.4224 15.285 22.3777C15.2723 22.3692 15.2648 22.3607 15.2521 22.3533C15.2521 22.0608 15.2521 21.7716 15.2478 21.4866C15.2393 20.9219 15.2276 20.3689 15.2021 19.8446C15.1893 19.5851 15.1776 19.3288 15.1563 19.081C15.1478 18.9577 15.1393 18.8375 15.1319 18.7184C15.1234 18.5993 15.1149 18.4834 15.1032 18.3632C15.0574 17.9017 14.9798 17.4763 14.8479 17.1136C14.7863 16.9318 14.7033 16.767 14.6214 16.6223C14.531 16.4819 14.4353 16.3543 14.3322 16.2597C14.3077 16.2352 14.2822 16.2097 14.2577 16.1895C14.245 16.1767 14.2333 16.1693 14.2205 16.1565C14.2779 16.1853 14.3364 16.2225 14.4024 16.2597C14.5555 16.3543 14.7278 16.4788 14.9139 16.651C15.1 16.8244 15.3052 17.0392 15.5201 17.3072C15.6275 17.4391 15.7391 17.588 15.854 17.7443C15.9114 17.823 15.9699 17.9091 16.0273 17.9921C16.0561 18.0378 16.0848 18.0782 16.1177 18.124C16.1305 18.1442 16.1422 18.1654 16.1592 18.1856C16.172 18.2058 16.1837 18.2314 16.2007 18.2558C16.3081 18.4451 16.4155 18.66 16.5389 18.8833C16.6005 18.9949 16.6707 19.1098 16.7452 19.2257C16.7654 19.2544 16.7867 19.2831 16.8069 19.3118C16.8271 19.3406 16.8526 19.3693 16.877 19.4022L16.9143 19.448L16.96 19.4937C16.9845 19.5224 17.0302 19.5554 17.0674 19.5841C17.0876 19.6011 17.1089 19.6086 17.1333 19.6171C17.228 19.6415 17.3226 19.5798 17.3439 19.4894L17.3482 19.4724C17.4226 19.1672 17.5087 18.8418 17.6034 18.4994C17.7023 18.1569 17.814 17.7986 17.9501 17.4348C18.016 17.2572 18.0904 17.0839 18.1723 16.9191C18.2138 16.8361 18.2585 16.7585 18.3085 16.6968L18.3457 16.6553L18.3786 16.6266C18.3829 16.6266 18.3871 16.6224 18.3914 16.6181C18.3957 16.6181 18.3957 16.6138 18.3957 16.6138L18.4084 16.6096C18.4254 16.6011 18.4371 16.5968 18.4584 16.5926C18.5286 16.5724 18.6147 16.5639 18.7062 16.5596C18.7966 16.5554 18.8923 16.5639 18.9869 16.5724C19.1762 16.5926 19.3708 16.6298 19.5644 16.6755C19.9526 16.7702 20.3354 16.8978 20.7034 17.0637C20.8852 17.1467 21.066 17.237 21.2308 17.3402C21.3138 17.3934 21.3872 17.4476 21.4499 17.5093C21.4786 17.538 21.5031 17.5667 21.5201 17.5922C21.5286 17.605 21.5329 17.6124 21.5329 17.6209C21.318 18.2271 21.1075 18.8259 20.8767 19.399C20.6534 19.9723 20.4013 20.5369 20.1163 21.0569Z" fill="#F6E233"/>
<path d="M11.6647 11.9699C11.7392 12.0156 11.8466 12.0029 11.8955 11.9327C11.9455 11.8582 11.92 11.7593 11.8785 11.6806C11.854 11.6307 11.8253 11.586 11.7881 11.5445C11.7264 11.4701 11.6062 11.4828 11.5658 11.5732C11.5371 11.6307 11.5244 11.6923 11.5329 11.7593C11.5488 11.8412 11.5903 11.9284 11.6647 11.9699Z" fill="#F6E233"/>
<path d="M12.914 10.7489C12.8853 10.8064 12.8725 10.8681 12.881 10.935C12.8938 11.0212 12.9384 11.1041 13.0129 11.1499C13.0873 11.1956 13.1947 11.1828 13.2437 11.1126C13.2936 11.0382 13.2681 10.9393 13.2266 10.8606C13.2022 10.8106 13.1735 10.766 13.1362 10.7245C13.0788 10.6458 12.9555 10.6617 12.914 10.7489Z" fill="#F6E233"/>
<path d="M11.0742 11.5859C11.1072 11.6061 11.1444 11.6146 11.1901 11.5901C11.2146 11.5774 11.2401 11.5572 11.2763 11.5284C11.3092 11.4997 11.3507 11.4625 11.4039 11.4168C11.507 11.3264 11.6474 11.2349 11.7708 11.169C11.8941 11.1031 11.993 11.0531 11.9856 11.0127C11.9813 10.9754 11.8665 10.9552 11.7091 10.9797C11.6304 10.9925 11.5443 11.0169 11.4571 11.0541C11.3709 11.0914 11.288 11.1445 11.222 11.1988C11.1518 11.2562 11.1104 11.3104 11.0774 11.3551C11.0487 11.4008 11.0317 11.4412 11.0274 11.471C11.0168 11.5359 11.0412 11.5657 11.0742 11.5859Z" fill="#F6E233"/>
<path d="M12.5103 11.6936C12.5805 11.7839 12.6549 11.8669 12.7208 11.9371C12.7538 11.9743 12.7825 12.0073 12.8112 12.0402C12.8357 12.069 12.8484 12.0934 12.857 12.1062C12.857 12.1104 12.857 12.1104 12.8612 12.1104L12.8442 12.1274C12.824 12.1402 12.7942 12.1562 12.774 12.1732C12.7495 12.1902 12.7283 12.2019 12.7123 12.2147C12.6751 12.2391 12.6421 12.2646 12.6134 12.2848C12.5103 12.371 12.4975 12.4167 12.5145 12.4497C12.5315 12.4826 12.5762 12.4997 12.7081 12.4582C12.741 12.4497 12.7783 12.4337 12.824 12.4167C12.8442 12.4082 12.8697 12.3965 12.8942 12.388C12.9186 12.3752 12.9442 12.3678 12.9803 12.3465C13.0133 12.3263 13.0633 12.3008 13.1037 12.2349C13.1239 12.2019 13.1366 12.1604 13.1409 12.1232C13.1452 12.0817 13.1366 12.0445 13.1239 12.0115C13.1037 11.9456 13.0707 11.8999 13.0377 11.8584C13.009 11.8212 12.9761 11.7839 12.9388 11.7425C12.7985 11.5893 12.6496 11.4415 12.5805 11.2767C12.5103 11.1161 12.523 10.9183 12.5932 10.7737C12.6262 10.6992 12.6762 10.6375 12.7251 10.5876C12.7751 10.5376 12.8282 10.5014 12.874 10.4716C12.9686 10.4185 13.0346 10.3929 13.0303 10.3727C13.0303 10.3557 12.9559 10.3355 12.8325 10.3685C12.7708 10.3855 12.7006 10.4142 12.6262 10.4631C12.5517 10.5131 12.4773 10.5822 12.4199 10.6737C12.3625 10.7641 12.3167 10.8758 12.3008 10.9959C12.2838 11.115 12.2965 11.248 12.338 11.3671C12.3742 11.4958 12.4401 11.5989 12.5103 11.6936ZM12.8612 12.1104C12.8612 12.1062 12.8655 12.1062 12.8655 12.1062C12.8687 12.1019 12.8687 12.1062 12.8612 12.1104Z" fill="#F6E233"/>
<path d="M11.7549 13.3757C11.6804 13.3098 11.6358 13.2225 11.6145 13.1566C11.5943 13.0907 11.5858 13.0449 11.5645 13.0407C11.5475 13.0364 11.5145 13.0779 11.5071 13.1683C11.4986 13.2545 11.5199 13.3831 11.606 13.5065C11.6475 13.5682 11.7092 13.6256 11.7879 13.6671C11.8666 13.7086 11.9569 13.7288 12.0473 13.7288C12.2292 13.7288 12.41 13.6458 12.5216 13.5065C12.5748 13.4363 12.612 13.3576 12.6205 13.28C12.6248 13.2385 12.6248 13.197 12.6163 13.1609C12.6078 13.1236 12.5961 13.0907 12.5791 13.062C12.5461 13.0045 12.4961 12.9631 12.4429 12.9429C12.3898 12.9227 12.344 12.9227 12.3111 12.9301C12.2409 12.9471 12.2079 12.9875 12.1994 13.013C12.1909 13.0418 12.2037 13.0588 12.2164 13.0705C12.2451 13.0949 12.2824 13.1034 12.3153 13.1279C12.3238 13.1322 12.3323 13.1407 12.3355 13.1481C12.3398 13.1566 12.344 13.1651 12.3483 13.1811C12.3483 13.1896 12.3526 13.1981 12.3526 13.2055C12.3526 13.214 12.3526 13.2257 12.3483 13.2385C12.344 13.263 12.3281 13.2959 12.2983 13.3332C12.2451 13.4033 12.1452 13.4608 12.0388 13.4693C11.9857 13.4735 11.9357 13.4693 11.8857 13.4523C11.8378 13.4384 11.7921 13.4087 11.7549 13.3757Z" fill="#F6E233"/>
<path d="M4.61912 16.7872C4.76801 16.7872 4.91582 16.7787 5.06046 16.7585C5.34548 16.717 5.61345 16.6308 5.85275 16.5149C5.97186 16.4575 6.08778 16.3916 6.19094 16.3214C6.24411 16.2884 6.29409 16.2469 6.34407 16.2097C6.3898 16.1682 6.43872 16.1353 6.48445 16.0938C6.57484 16.0151 6.65354 15.929 6.72798 15.846C6.79817 15.7599 6.86836 15.6769 6.92578 15.5865C7.0417 15.4132 7.12784 15.2399 7.19378 15.0793C7.32139 14.7538 7.35436 14.4773 7.36712 14.2912C7.37138 14.1966 7.36712 14.1264 7.36287 14.0764C7.35861 14.0264 7.35011 14.002 7.34585 14.002C7.33735 14.002 7.33309 14.0264 7.32565 14.0764C7.31714 14.1264 7.30863 14.1955 7.29268 14.2827C7.25971 14.4646 7.20229 14.7241 7.06191 15.0208C6.99172 15.1696 6.90133 15.326 6.78117 15.4823C6.76841 15.4993 6.76096 15.511 6.7482 15.528C6.74395 15.5036 6.73544 15.4749 6.728 15.4451C6.71524 15.3993 6.69928 15.3504 6.67802 15.2962C6.59932 15.0739 6.47171 14.7687 6.2654 14.4422C6.1665 14.2774 6.04633 14.1126 5.91445 13.9435C5.77832 13.7786 5.62943 13.6138 5.46886 13.4607C5.29977 13.3044 5.12219 13.1555 4.93287 13.0236L4.94137 13.0151C5.02432 12.9364 5.10621 12.8619 5.18065 12.8003C5.18491 12.8003 5.18916 12.8045 5.19341 12.8045C5.27211 12.8417 5.34974 12.8545 5.42844 12.8577C5.50713 12.8619 5.58158 12.8492 5.64751 12.8332C5.71345 12.8162 5.77513 12.8003 5.83681 12.7801C5.89423 12.763 5.94847 12.7471 6.0059 12.7343C6.11756 12.7099 6.22497 12.6886 6.32813 12.6843C6.53018 12.6673 6.70777 12.6971 6.8354 12.7173C6.9258 12.8577 6.99173 12.9938 7.04597 13.1129C7.12041 13.282 7.16188 13.4266 7.19485 13.5415C7.21187 13.5989 7.22357 13.6531 7.23633 13.6978C7.24909 13.7435 7.25653 13.784 7.26504 13.8169C7.28206 13.8871 7.29376 13.9328 7.30652 13.9616C7.31928 13.9903 7.33097 14.003 7.34374 14.003C7.3565 14.003 7.3682 13.9903 7.38096 13.9616C7.39372 13.9328 7.40542 13.8829 7.40967 13.8084C7.41393 13.7712 7.41818 13.7255 7.41393 13.6765C7.41393 13.6266 7.40967 13.5691 7.40116 13.5032C7.3884 13.3713 7.35969 13.2108 7.29375 13.0161C7.22782 12.8226 7.12892 12.595 6.96409 12.3557C6.79926 12.1164 6.56849 11.8612 6.24202 11.6421C6.08143 11.5305 5.89534 11.4316 5.68476 11.3497C5.47419 11.2667 5.24342 11.2093 4.99137 11.1806C4.86376 11.1678 4.73614 11.1604 4.60002 11.1636C4.53408 11.1636 4.4639 11.1721 4.39796 11.1763C4.32777 11.1848 4.25759 11.1934 4.1874 11.2051C4.11721 11.2178 4.04702 11.2338 3.97683 11.2508C3.90664 11.271 3.83645 11.288 3.76201 11.3167C3.62164 11.3667 3.477 11.4284 3.33663 11.5028C3.05589 11.656 2.79638 11.858 2.57731 12.1005C2.35823 12.344 2.17743 12.6322 2.05302 12.9459C1.99134 13.1023 1.94135 13.2639 1.90838 13.433C1.87542 13.5979 1.8584 13.767 1.85521 13.9403C1.85096 14.2785 1.90519 14.6209 2.02005 14.9389C2.13597 15.2569 2.30931 15.5536 2.52308 15.8056C2.7379 16.0608 2.99738 16.2672 3.27812 16.4288C3.55886 16.5894 3.85983 16.6925 4.16505 16.7468C4.31818 16.7713 4.47023 16.7872 4.61912 16.7872ZM5.73256 14.0892C5.86868 14.2423 5.98779 14.3944 6.09519 14.5475C6.31001 14.8485 6.46634 15.1335 6.56949 15.3355C6.59395 15.3855 6.61948 15.4344 6.63968 15.4717C6.65989 15.5131 6.6769 15.5461 6.69285 15.5748C6.69285 15.5748 6.69285 15.5791 6.69711 15.5791C6.65989 15.6248 6.61841 15.6652 6.58119 15.7109C6.50675 15.7854 6.4323 15.8598 6.34617 15.93C6.30469 15.9672 6.26002 16.0002 6.2143 16.0332C6.16857 16.0661 6.11965 16.0991 6.06967 16.1278C5.97076 16.1895 5.86335 16.2437 5.75596 16.2927C5.53369 16.3916 5.2859 16.4617 5.02536 16.4905C4.89562 16.5107 4.76268 16.5149 4.62657 16.5064C4.56064 16.5022 4.4947 16.4979 4.42877 16.4894C4.41175 16.4437 4.3958 16.3905 4.3756 16.3288C4.34263 16.2129 4.31392 16.0736 4.30115 15.912C4.28839 15.7514 4.30115 15.5738 4.32987 15.3845C4.36283 15.1952 4.41282 14.9931 4.47024 14.7783C4.49896 14.6709 4.52767 14.5635 4.55319 14.4486C4.56596 14.3912 4.57765 14.337 4.59042 14.2795C4.60318 14.2221 4.61487 14.1636 4.61913 14.0977C4.62764 14.036 4.62764 13.9658 4.61913 13.8956C4.61062 13.8254 4.58616 13.7467 4.54469 13.6808C4.51172 13.6276 4.47024 13.5862 4.42133 13.5489C4.45429 13.5075 4.48726 13.4702 4.52023 13.433C4.59042 13.3596 4.66379 13.2895 4.72973 13.215C4.74993 13.2278 4.7712 13.2395 4.79141 13.2565C4.96475 13.3756 5.13384 13.5085 5.29016 13.6478C5.44755 13.7882 5.59643 13.9371 5.73256 14.0892ZM6.70986 12.5386C6.71412 12.5429 6.71837 12.5472 6.71837 12.5514C6.60671 12.5184 6.47484 12.4855 6.3185 12.4812C6.20258 12.477 6.07922 12.4812 5.95587 12.5014C5.89419 12.5099 5.82825 12.5216 5.76657 12.5386C5.70489 12.5514 5.64746 12.5674 5.59323 12.5759C5.54324 12.5844 5.49432 12.5886 5.4486 12.5844C5.52304 12.5312 5.59323 12.4812 5.65491 12.4397C5.85271 12.3079 6.00158 12.2207 6.10901 12.1547C6.16644 12.1218 6.21217 12.0931 6.24513 12.0686C6.44188 12.2207 6.59076 12.3823 6.70986 12.5386ZM6.05051 11.9282C6.06327 11.9367 6.07497 11.9452 6.08773 11.9527C6.06753 11.9569 6.04626 11.9654 6.02605 11.9729C5.90269 12.0186 5.73361 12.0888 5.51878 12.2164C5.42413 12.2696 5.32097 12.3398 5.20932 12.4185C5.20506 12.4068 5.20081 12.3898 5.20081 12.3738C5.19655 12.3323 5.20081 12.2909 5.20932 12.2547C5.21357 12.2345 5.21782 12.2175 5.22633 12.2015C5.23484 12.1845 5.24335 12.1643 5.25079 12.1484C5.28376 12.0824 5.32949 12.025 5.37415 11.975C5.46029 11.8719 5.53899 11.7974 5.58472 11.7315C5.59322 11.723 5.59748 11.7113 5.60492 11.7028C5.76976 11.7676 5.91864 11.8453 6.05051 11.9282ZM3.51735 11.8336C3.63645 11.7676 3.76088 11.7145 3.88425 11.673C3.94593 11.6528 4.00761 11.6358 4.07036 11.6156C4.13204 11.6028 4.19372 11.5868 4.25646 11.5741C4.31814 11.5613 4.37557 11.5571 4.43831 11.5496C4.49999 11.5454 4.55742 11.5369 4.61591 11.5369C4.73183 11.5326 4.84668 11.5369 4.95834 11.5496C5.11148 11.5666 5.25503 11.5954 5.39116 11.6326C5.33798 11.6698 5.27205 11.723 5.1891 11.7974C5.13167 11.8506 5.06999 11.9208 5.0115 12.0197C4.99874 12.0441 4.98279 12.0697 4.97003 12.0984C4.95301 12.1218 4.9445 12.1547 4.936 12.1877C4.91898 12.2536 4.91154 12.3238 4.91898 12.3983C4.92749 12.4642 4.94344 12.5301 4.97641 12.5961C4.90303 12.6578 4.8254 12.7279 4.7467 12.8024C4.7265 12.8194 4.70948 12.8396 4.68927 12.8556C4.59037 12.7939 4.49147 12.7396 4.39258 12.6907C4.01293 12.5046 3.679 12.4312 3.41952 12.3983C3.16004 12.3653 2.96969 12.3738 2.83357 12.3855H2.82931C2.84207 12.3727 2.84952 12.3611 2.86228 12.3483C3.05157 12.1388 3.27807 11.9612 3.51735 11.8336ZM2.21781 13.9456C2.22632 13.6489 2.288 13.3554 2.39966 13.0831C2.4741 12.9013 2.56875 12.7279 2.68467 12.5674C2.72615 12.5716 2.77507 12.5801 2.83356 12.5844C2.96117 12.5971 3.14302 12.6131 3.37805 12.6546C3.61733 12.7003 3.91405 12.7737 4.26497 12.9438C4.33941 12.981 4.41386 13.0183 4.48404 13.0629C4.46384 13.0874 4.44257 13.1087 4.41811 13.1331C4.38089 13.1703 4.34792 13.2118 4.3107 13.2522C4.26072 13.3096 4.21605 13.3681 4.17032 13.4298C4.1129 13.4128 4.05122 13.4054 3.99273 13.4011C3.95976 13.3968 3.93105 13.3968 3.89808 13.3968H3.80343C3.68007 13.4054 3.5599 13.4256 3.44823 13.4628C2.9984 13.6074 2.72615 13.8839 2.54854 14.086C2.41242 14.2423 2.32202 14.3827 2.25928 14.4986C2.23057 14.321 2.21355 14.1306 2.21781 13.9456ZM2.78356 15.5908C2.59746 15.3643 2.44963 15.0995 2.35499 14.8198C2.35074 14.8028 2.34648 14.7911 2.33798 14.774C2.35074 14.7538 2.36669 14.7326 2.38371 14.7124C2.46666 14.6007 2.56981 14.4486 2.74634 14.2625C2.79207 14.2168 2.84099 14.1679 2.89522 14.1179C2.9484 14.0679 3.00689 14.0233 3.06857 13.9733C3.19618 13.8829 3.35358 13.7872 3.53863 13.7297C3.62902 13.701 3.72792 13.6798 3.82789 13.6766C3.85235 13.6766 3.87787 13.6723 3.90233 13.6723C3.92679 13.6723 3.95231 13.6723 3.97677 13.6766H3.99379C3.97358 13.7053 3.95232 13.7383 3.93211 13.767C3.69709 14.1253 3.51097 14.505 3.37485 14.8475C3.23873 15.1899 3.14833 15.4951 3.09836 15.7174C3.0856 15.779 3.0739 15.8333 3.06539 15.8779C2.96436 15.7929 2.86546 15.6982 2.78356 15.5908ZM3.12918 15.9375C3.14938 15.8875 3.17491 15.8258 3.20362 15.7556C3.28657 15.5493 3.40142 15.2568 3.55882 14.9346C3.71515 14.6092 3.91402 14.254 4.14905 13.9201C4.18627 13.8701 4.22349 13.8169 4.26071 13.7669C4.28517 13.7839 4.31069 13.8042 4.32239 13.8286C4.36387 13.886 4.37237 13.9775 4.36387 14.0764C4.35961 14.1264 4.35111 14.1796 4.34366 14.237C4.33515 14.2901 4.32346 14.3486 4.31495 14.4018C4.29474 14.5135 4.26922 14.6209 4.24476 14.7272C4.19903 14.942 4.15437 15.1558 4.1331 15.3621C4.11289 15.5684 4.11608 15.762 4.14586 15.9353C4.17457 16.1087 4.22455 16.2533 4.27347 16.3681C4.29049 16.4096 4.31069 16.4468 4.32664 16.4798C4.28942 16.4755 4.25646 16.467 4.21924 16.4596C3.95124 16.4064 3.68324 16.3033 3.43547 16.1586C3.33231 16.0906 3.22914 16.0204 3.12918 15.9375Z" fill="#F6E233"/>
<path d="M17.8558 9.50264C17.8728 9.49413 17.8887 9.47818 17.8845 9.43245C17.8845 9.38672 17.8643 9.30909 17.7941 9.20594C17.7611 9.15276 17.708 9.09853 17.6378 9.0411C17.5676 8.98793 17.4729 8.93369 17.357 8.90072C17.2411 8.86776 17.0976 8.85925 16.9402 8.89222C16.8657 8.91242 16.7838 8.93795 16.7051 8.98261C16.6265 9.02834 16.552 9.08577 16.4861 9.16021C16.3542 9.30909 16.267 9.51116 16.2638 9.72171C16.2553 9.93228 16.334 10.1471 16.4701 10.3077C16.6062 10.4682 16.7998 10.5757 16.9944 10.6044C17.0933 10.6214 17.1922 10.6171 17.2837 10.6001C17.3783 10.5831 17.4613 10.5469 17.5389 10.5055C17.692 10.4193 17.8026 10.2906 17.8686 10.163C17.9302 10.0354 17.9547 9.9078 17.9515 9.80464C17.9473 9.70149 17.9271 9.62279 17.9058 9.57387C17.8845 9.52389 17.8643 9.49839 17.8558 9.50264Z" fill="#F6E233"/>
<path d="M21.1717 8.68601C21.0271 8.73918 20.9495 8.89658 21.0026 9.04439C21.0558 9.18903 21.2175 9.26666 21.361 9.21348C21.5056 9.16031 21.5833 9.00292 21.5301 8.8551C21.4769 8.71047 21.3163 8.63709 21.1717 8.68601Z" fill="#F6E233"/>
<path d="M21.1019 7.66708C21.0487 7.52245 20.8913 7.44482 20.7435 7.49799C20.5989 7.55117 20.5212 7.71281 20.5744 7.85638C20.6276 8.00101 20.7892 8.07864 20.9328 8.02547C21.0774 7.97229 21.1561 7.81171 21.1019 7.66708Z" fill="#F6E233"/>
<path d="M21.5516 7.87759C21.407 7.93076 21.3293 8.08816 21.3825 8.23598C21.4357 8.38061 21.5973 8.45824 21.7409 8.40507C21.8855 8.35189 21.9632 8.1945 21.91 8.04668C21.8568 7.90205 21.6962 7.82761 21.5516 7.87759Z" fill="#F6E233"/>
<path d="M20.3636 8.30621C20.219 8.35938 20.1414 8.51677 20.1945 8.66459C20.2477 8.80922 20.4093 8.88686 20.5529 8.83368C20.6975 8.78051 20.7752 8.62311 20.722 8.4753C20.6688 8.32747 20.5082 8.25303 20.3636 8.30621Z" fill="#F6E233"/>
</svg>
