<svg width="138" height="138" viewBox="0 0 138 138" fill="none" xmlns="http://www.w3.org/2000/svg">
<circle cx="69" cy="69" r="69" fill="#1E1E1E"/>
<path d="M65.5215 25.8039C65.8425 25.625 66.324 25.2719 67.1037 24.717C67.4936 24.451 67.9751 24.1299 68.5438 23.7585C69.1125 23.4007 69.805 22.9926 70.6076 22.6027C70.9653 22.4239 71.3551 22.245 71.7817 22.1029C71.6578 22.7449 71.6211 23.4008 71.745 24.0612C71.9055 24.9509 72.3503 25.8589 73.1483 26.4459C73.5381 26.7303 73.983 26.9458 74.4462 27.033C74.9094 27.1384 75.4048 27.1568 75.9047 27.033C76.3862 26.9091 76.8632 26.6615 77.2026 26.2854C77.5603 25.9139 77.7713 25.4507 77.8951 24.9875C78.0006 24.5243 78.0006 24.0427 77.9134 23.5979C77.8263 23.153 77.6658 22.7082 77.3998 22.3184C76.8861 21.5525 76.1386 21.0893 75.4231 20.8417C74.7811 20.6123 74.162 20.539 73.5566 20.5573C73.6988 20.3601 73.841 20.1858 74.0198 20.0253C74.5014 19.5621 75.1067 19.3144 75.7626 19.2411C76.4047 19.1677 77.0605 19.2961 77.6475 19.5254C78.2346 19.7547 78.7345 20.1308 79.1426 20.5573C79.5508 20.9838 79.8718 21.4837 80.1378 21.9607C80.6515 22.9559 80.867 23.9373 80.9908 24.7719C81.1147 25.6066 81.1513 26.2854 81.188 26.7486C81.188 26.822 81.2064 26.8908 81.2064 26.9641C80.867 27.0192 80.5322 27.1063 80.1928 27.2668C79.7113 27.4824 79.2664 27.8172 78.9133 28.2253C78.5556 28.6519 78.2896 29.1517 78.1475 29.6838C78.0053 30.2157 77.9686 30.8028 78.0741 31.3394C77.487 31.4266 76.9 31.5366 76.313 31.6605C75.9415 31.7476 75.5654 31.8393 75.2123 31.9631C74.8546 32.0686 74.4648 32.2108 74.1116 32.3713C73.4191 32.6923 72.7403 33.1005 72.1533 33.6187C71.5479 33.9398 70.9609 34.3479 70.4473 34.8294C70.0574 35.2009 69.6814 35.6137 69.3787 36.0586C69.0576 36.5034 68.7917 36.985 68.5761 37.4802C68.1312 38.4754 67.8652 39.5257 67.7414 40.6126C67.6176 41.7133 67.7231 42.8186 67.9707 43.8872C68.2184 44.9374 68.5761 45.951 68.9843 46.9278C69.3924 47.9046 69.8373 48.8677 70.3739 49.7895C70.9059 50.7159 71.5296 51.624 72.2588 52.422C72.988 53.2246 73.8594 53.9171 74.8225 54.4492C75.781 54.9811 76.8497 55.3389 77.9549 55.426C78.3814 55.4627 78.8263 55.4444 79.2528 55.3893C79.927 55.4948 80.6057 55.5131 81.2615 55.4077C82.0091 55.2838 82.72 54.9628 83.2519 54.4813C83.7839 54.0181 84.1416 53.431 84.3021 52.8256C84.3893 52.5229 84.426 52.2202 84.426 51.9359C84.426 51.6515 84.3893 51.3855 84.3205 51.1333C84.1967 50.6518 83.9995 50.2436 83.8389 49.9042C83.6784 49.5648 83.5179 49.2805 83.3941 49.0512C83.1464 48.588 83.0364 48.3403 83.0043 48.3403C83.0776 48.322 83.1097 48.2165 83.1281 47.9321C83.1464 47.6661 83.1097 47.2213 83.2015 46.5425C83.2565 46.2031 83.3436 45.8133 83.5042 45.3685C83.5913 45.1529 83.7014 44.9236 83.8435 44.6943C83.9169 44.5888 83.9857 44.465 84.0728 44.3549L84.2013 44.2265C84.2379 44.1898 84.3067 44.1394 84.3434 44.1027C84.5727 43.9238 84.8754 43.7449 85.1964 43.5707C85.5358 43.3918 85.8889 43.2313 86.2971 43.057C87.0997 42.7176 88.0032 42.3966 89.0535 42.1123C89.1773 42.0756 89.2828 42.0068 89.3745 41.8967H89.535C89.6222 41.8967 89.6772 41.9151 89.7827 41.9518C89.8698 41.9701 89.9615 42.0068 90.0487 42.0251C90.7779 42.2544 91.42 42.6855 91.9152 43.2358C92.1628 43.5018 92.3784 43.8045 92.5389 44.1255C92.6994 44.4282 92.8232 44.7676 92.9287 45.1207C93.1443 45.8132 93.3002 46.5608 93.6946 47.2396C93.8918 47.5789 94.1578 47.8816 94.4605 48.1109C94.7632 48.3402 95.1026 48.5008 95.4374 48.6108C96.0244 48.7897 96.6297 48.808 97.1801 48.7163C97.6066 48.8768 98.0515 48.9456 98.4781 48.9456C98.9229 48.9456 99.3311 48.8401 99.7255 48.698C100.491 48.4136 101.115 47.9321 101.592 47.4368C102.551 46.4049 103.032 45.2859 103.298 44.3411C103.44 43.8779 103.514 43.4514 103.564 43.08C103.619 42.7085 103.637 42.4058 103.651 42.1352C103.67 41.6216 103.633 41.351 103.614 41.351C103.688 41.351 103.793 41.0666 103.83 40.1769C103.848 39.2872 103.743 37.7737 103.119 35.4441C102.959 34.857 102.78 34.2334 102.55 33.5408C102.321 32.8483 102.018 32.1191 101.624 31.3348C101.216 30.569 100.716 29.7526 100.005 28.9867C99.6474 28.5969 99.2393 28.2575 98.7945 27.8998C98.3313 27.5788 97.836 27.2761 97.281 27.0284C96.7307 26.7808 96.1436 26.5652 95.5382 26.4231C94.9145 26.2809 94.2771 26.1754 93.5983 26.1387C92.9242 26.102 92.227 26.1204 91.5162 26.2258C91.3374 26.2442 91.1585 26.2809 90.9843 26.313C90.8971 26.3313 90.8054 26.3497 90.7183 26.368C90.6311 26.3864 90.5394 26.4047 90.4339 26.4414C90.0624 26.5285 89.7047 26.6569 89.3332 26.7991C88.604 27.0835 87.9299 27.4733 87.2512 27.886C86.577 28.3126 85.9349 28.7574 85.2608 29.184C85.2241 29.2023 85.2057 29.2207 85.1736 29.239C85.1553 29.1519 85.1186 29.0418 85.0682 28.918C84.981 28.7024 84.8389 28.4548 84.6416 28.1704C84.4261 27.9044 84.1418 27.6201 83.7336 27.3862C83.3438 27.1385 82.8439 26.9413 82.2385 26.8725C81.9909 26.8358 81.7386 26.8358 81.4726 26.8725C81.4726 26.8175 81.491 26.7487 81.491 26.6937C81.5277 26.2305 81.5781 25.538 81.5277 24.6665C81.4726 23.7952 81.3121 22.7266 80.8168 21.626C80.5692 21.0756 80.2298 20.5069 79.7849 19.9887C79.5556 19.7227 79.3034 19.4888 79.019 19.2595C78.7347 19.0302 78.4137 18.833 78.0605 18.6725C77.368 18.3515 76.5838 18.1726 75.749 18.2276C75.3409 18.2643 74.9143 18.3515 74.5199 18.512C74.1117 18.6725 73.7357 18.9018 73.4192 19.2045C72.956 19.6127 72.5845 20.1309 72.3185 20.6812C72.0709 20.7546 71.8187 20.8234 71.5894 20.8968C71.0574 21.094 70.5758 21.3049 70.1677 21.5388C69.3147 22.002 68.6359 22.4469 68.0672 22.8551C67.4985 23.2633 67.0353 23.6393 66.6455 23.9741C65.898 24.6345 65.4898 25.0931 65.2559 25.3958C65.0403 25.6985 65.0082 25.8406 65.0587 25.8957C65.0587 26.0149 65.2004 25.9965 65.5215 25.8039ZM95.5833 48.1298C95.0146 47.9326 94.5147 47.5611 94.212 46.9925C93.8909 46.4421 93.7488 45.7313 93.5515 45.0021C93.4461 44.6306 93.3222 44.2362 93.125 43.8647C92.9278 43.4932 92.6985 43.1355 92.4142 42.8145C91.8455 42.1724 91.1163 41.6587 90.2633 41.356C90.1578 41.3194 90.0478 41.2827 89.9423 41.2506C89.8551 41.2139 89.6946 41.1772 89.5708 41.1772C89.4836 41.1772 89.3919 41.1588 89.3048 41.1588C89.181 41.035 89.0021 40.9616 88.8049 40.98C88.2729 41.035 87.7547 41.1588 87.2226 41.301C86.6906 41.4432 86.1357 41.6037 85.567 41.8147C84.9065 42.044 84.2324 42.3146 83.5766 42.631C83.4161 42.7181 83.2372 42.7915 83.0767 42.8787L82.829 43.0025L82.5814 43.1447C82.242 43.3602 81.921 43.5345 81.5678 43.9472C81.5128 44.0023 81.4944 44.0344 81.4623 44.0711L81.3752 44.1949C81.3202 44.282 81.2697 44.3737 81.2147 44.4609C81.1092 44.6397 81.0175 44.8186 80.9303 45.0112C80.7698 45.3827 80.646 45.7771 80.5589 46.1853C80.3983 46.9879 80.435 47.8409 80.6827 48.6388C80.912 49.4231 81.3064 50.0789 81.5357 50.7026C81.6595 51.0053 81.7329 51.308 81.765 51.6107C81.8017 51.9134 81.765 52.1794 81.6779 52.4637C81.6412 52.5875 81.5907 52.693 81.5357 52.8031C81.3202 53.2112 81.0037 53.569 80.6093 53.8166C79.8985 54.2798 78.9536 54.4587 78.0319 54.3669C77.1055 54.2798 76.1837 53.9771 75.3444 53.4956C74.5097 53.014 73.7438 52.3949 73.0833 51.6611C71.7488 50.2027 70.8407 48.3682 70.0611 46.4833C69.6713 45.5385 69.3319 44.5983 69.1163 43.6215C68.9008 42.663 68.8136 41.6816 68.9191 40.7414C69.0246 39.7829 69.2906 38.8381 69.6667 37.9668C69.8639 37.5402 70.0932 37.1321 70.3592 36.7376C70.6252 36.3661 70.9462 36.0084 71.2672 35.7057C71.9414 35.082 72.744 34.6051 73.597 34.3024C74.4684 33.9813 75.3948 33.7704 76.335 33.6099C77.2614 33.4494 78.2015 33.3255 79.1279 33.165C80.0543 33.0045 80.9624 32.7935 81.8155 32.4908C82.6868 32.1882 83.4894 31.78 84.2002 31.3351C84.9294 30.9086 85.5898 30.4454 86.2274 30.0372C86.8694 29.629 87.4885 29.2713 88.1123 29.0053C88.7361 28.7393 89.3597 28.5788 90.0156 28.4733C91.2951 28.2578 92.5425 28.2945 93.6432 28.4917C94.1935 28.5971 94.7301 28.7577 95.207 28.9365C95.6886 29.1337 96.1518 29.363 96.5416 29.629C96.9498 29.895 97.3075 30.1794 97.6285 30.5004C97.9495 30.8214 98.2339 31.1608 98.4815 31.4956C98.9814 32.1881 99.3529 32.8852 99.6372 33.5594C99.6739 33.6465 99.7106 33.7382 99.7427 33.8254C99.8666 34.1464 99.9904 34.4491 100.1 34.7701C100.743 36.6366 101.238 38.5216 101.348 40.3194C101.472 42.1172 101.151 43.8782 100.403 45.3C100.224 45.6578 100.013 45.9925 99.7611 46.2952C99.5318 46.5979 99.2612 46.8823 98.9768 47.1299C98.4265 47.6298 97.7845 47.9829 97.1103 48.1251H97.092C97.0553 48.1435 97.0048 48.1618 96.9682 48.1802C96.56 48.3223 96.0648 48.2903 95.5833 48.1298ZM82.0628 28.1344C82.471 28.1711 82.8287 28.2766 83.113 28.4371C83.3974 28.5793 83.6267 28.7581 83.8239 28.9186C84.0027 29.0975 84.1449 29.258 84.2504 29.4002C84.3375 29.5057 84.3926 29.5974 84.4659 29.6845C84.0211 29.9322 83.5579 30.1477 83.0763 30.3266C82.3104 30.611 81.494 30.8082 80.6228 30.9687C80.1596 31.0558 79.6642 31.1292 79.1827 31.198C79.1276 30.8082 79.146 30.3954 79.2698 30.0239C79.4991 29.2764 80.054 28.6711 80.7099 28.3867C80.9392 28.2812 81.1915 28.2078 81.4024 28.1712C81.6546 28.1345 81.8656 28.1161 82.0628 28.1344ZM75.0367 21.9798C75.5687 22.177 76.087 22.5117 76.408 22.9933C76.7291 23.4565 76.8529 24.1307 76.7291 24.6993C76.6557 24.9837 76.5319 25.2497 76.3393 25.4469C76.142 25.6441 75.9127 25.7862 75.6284 25.8734C75.0597 26.0155 74.3489 25.8734 73.849 25.5019L73.6747 25.3551C73.6013 25.3001 73.5692 25.2497 73.5142 25.1946C73.4592 25.1396 73.4087 25.0708 73.3537 24.9974C73.317 24.924 73.2665 24.8552 73.2115 24.7819C73.051 24.4975 72.9272 24.1765 72.8538 23.8371C72.73 23.1629 72.7804 22.4475 72.9776 21.7917C73.1198 21.7733 73.262 21.755 73.4041 21.7366C73.9132 21.732 74.4864 21.7825 75.0367 21.9798Z" fill="#F6E233"/>
<path d="M96.3628 75.3258C96.3812 75.2891 96.3812 75.2524 96.3995 75.2019C96.4362 74.9726 96.4179 74.7387 96.3628 74.5415C96.3078 74.3443 96.239 74.1838 96.1473 74.0416C95.9868 73.7573 95.7896 73.5417 95.6153 73.3675C95.4731 73.2253 95.3126 73.0831 95.1521 72.9593C95.1888 72.9409 95.2255 72.9226 95.2576 72.9042C95.4731 72.7804 95.7208 72.5832 95.9684 72.3539C96.2161 72.1063 96.4821 71.8219 96.771 71.4458C97.0554 71.0881 97.3397 70.6616 97.6607 70.1984C97.8212 69.9691 97.9818 69.7169 98.1606 69.4692C98.2478 69.3454 98.3395 69.2032 98.445 69.061C98.5321 68.9189 98.6422 68.7583 98.7293 68.6162C99.4952 67.3687 100.133 65.9286 100.651 64.4886C100.899 63.7594 101.132 63.0485 101.325 62.3378C101.504 61.6086 101.646 60.8793 101.591 60.1501C101.573 59.7924 101.518 59.4393 101.412 59.1182C101.307 58.7972 101.165 58.5129 101.004 58.2469C100.651 57.7699 100.206 57.4122 99.7979 57.2379C99.6924 57.2012 99.6007 57.1645 99.4952 57.1324C99.3897 57.1141 99.298 57.0957 99.2109 57.0957C99.0871 57.0957 98.9632 57.1141 98.8532 57.1508C98.7798 56.9215 98.711 56.7059 98.5872 56.4904C98.39 56.1005 98.0873 55.7612 97.7525 55.5135C97.4131 55.2842 97.0416 55.142 96.6839 55.1237C96.3262 55.1053 96.0418 55.1971 95.8309 55.3209C95.7575 55.3576 95.6887 55.408 95.6337 55.4631C95.4915 55.1053 95.2759 54.7705 94.9916 54.4862C94.8128 54.3073 94.6018 54.1468 94.3679 54.023C94.1386 53.8992 93.8864 53.8441 93.657 53.8075C93.1755 53.7524 92.7123 53.8808 92.3775 54.1285C92.2537 54.2156 92.162 54.3257 92.0749 54.4495C91.7034 53.9175 91.2218 53.4543 90.6532 53.0599C90.4743 52.9361 90.2817 52.8306 90.0478 52.7389C89.8185 52.6517 89.5479 52.5967 89.2452 52.6334C88.9609 52.6517 88.7133 52.7572 88.4977 52.8627C88.2822 52.9682 88.1262 53.092 87.9657 53.2204C87.8235 53.3259 87.6447 53.4681 87.4658 53.6469C87.3787 53.7341 87.3053 53.8441 87.2365 53.9863C87.1631 54.1101 87.1127 54.2707 87.0943 54.4495C87.076 54.61 87.0943 54.7889 87.1494 54.9311C87.2044 55.0732 87.2732 55.1971 87.3466 55.3025C87.4887 55.4998 87.6493 55.6419 87.7731 55.7658C87.8969 55.8896 87.9886 55.9813 88.0758 56.0868C88.1629 56.1923 88.2363 56.3161 88.2913 56.4445C88.4151 56.6922 88.4885 56.9582 88.5069 57.2471C88.5802 57.7974 88.4518 58.3157 88.2592 58.7606C88.062 59.2054 87.796 59.5769 87.5667 59.8475C87.53 59.8842 87.5117 59.9209 87.4796 59.953L87.4429 60.008L87.4062 60.0447C87.3512 60.0997 87.2824 60.1502 87.2273 60.2052C87.209 60.2236 87.1906 60.2419 87.1723 60.2419C87.1723 59.9576 87.209 59.6365 87.2273 59.2971C87.2457 59.0312 87.264 58.7285 87.2273 58.4074C87.1906 58.0864 87.1218 57.747 86.9797 57.4489C86.9063 57.2884 86.8192 57.1462 86.732 57.0041C86.677 56.9307 86.6449 56.8619 86.5715 56.7885C86.5165 56.7151 86.4477 56.6463 86.3743 56.5913C86.0899 56.3436 85.7506 56.1648 85.3608 56.0914C85.1636 56.0547 84.9526 56.0547 84.7554 56.0914C84.5398 56.1281 84.3656 56.1969 84.1867 56.307C83.8473 56.5042 83.5997 56.8068 83.4391 57.0728C83.2603 57.3572 83.1548 57.6415 83.0493 57.9075C82.9622 58.1735 82.8705 58.4395 82.7833 58.7101C82.6228 59.2421 82.499 59.7787 82.3935 60.2924C82.3385 60.5584 82.3064 60.8244 82.2697 61.0766C82.233 61.3243 82.1963 61.5765 82.1642 61.8242C82.0908 62.3241 82.0404 62.8194 81.9853 63.2826C81.8982 64.2411 81.8799 65.1491 81.967 65.9517C82.0404 66.7543 82.1963 67.4652 82.3935 68.0338C82.4806 68.3181 82.5907 68.5658 82.6779 68.7813C82.1963 68.7997 81.7193 68.8364 81.2011 68.9969C81.0773 69.0336 80.9351 69.084 80.7929 69.139L80.6875 69.1941C80.6508 69.2124 80.6141 69.2308 80.582 69.2674C80.5086 69.3225 80.4398 69.3546 80.3527 69.4096C80.2288 69.5151 80.1234 69.6068 80.0133 69.7123C79.9262 69.8178 79.8344 69.9095 79.7473 70.015C79.4263 70.4232 79.2153 70.8176 78.9998 71.2257C78.5916 72.0282 78.2522 72.8263 77.9495 73.6289C77.3258 75.2845 76.8488 76.8484 76.4177 78.3617C76.1334 79.3386 75.9041 80.2833 75.6702 81.1914C75.6335 81.1548 75.6151 81.1043 75.583 81.0676C75.2804 80.6228 74.996 80.1596 74.73 79.6963C74.198 78.7699 73.7348 77.8618 73.2165 77.0088C73.1432 76.9033 73.0927 76.7932 73.0193 76.6877C72.946 76.5823 72.8772 76.4722 72.8038 76.3667C72.6616 76.1695 72.5378 75.9769 72.3956 75.798C72.1296 75.4265 71.8636 75.0688 71.593 74.7111C71.0794 74.0186 70.5611 73.3765 70.0475 72.7895C69.5476 72.2025 69.034 71.6705 68.5708 71.2072C68.0892 70.7257 67.626 70.3175 67.1674 69.9277C66.2593 69.1802 65.4063 68.6482 64.6588 68.2721C63.1453 67.5245 62.0951 67.3457 61.476 67.2585C61.1367 67.2218 60.9257 67.2218 60.8019 67.2402C60.8019 67.1347 60.7652 66.9925 60.6597 66.7403C60.5359 66.4743 60.3203 66.0982 59.9855 65.5846C59.6462 65.0709 59.1692 64.4105 58.5454 63.6079C58.4721 63.5208 58.4033 63.4474 58.2978 63.3924C58.1923 63.3374 58.0685 63.3052 57.9401 63.3052C58.0134 63.2181 58.0822 63.0026 58.1373 62.5577C58.174 62.2734 58.2106 61.8835 58.2611 61.3836C58.2978 61.136 58.3345 60.8517 58.3849 60.5673C58.44 60.283 58.5271 59.9436 58.6509 59.6776C58.6693 59.6409 58.6876 59.6042 58.7059 59.5721C58.7243 59.5354 58.761 59.485 58.7793 59.4299C58.8344 59.3428 58.8848 59.2511 58.9398 59.1639C59.0453 58.9851 59.1554 58.7925 59.2792 58.5953C59.5085 58.2238 59.7929 57.8477 60.1506 57.4029C60.5083 56.958 60.8798 56.4581 61.2513 55.8711C61.6228 55.3024 61.9988 54.642 62.3199 53.8944C62.6225 53.1285 62.8885 52.2755 62.9619 51.317C62.9619 51.1932 62.9803 51.0877 62.9803 50.9593V50.6016C62.9803 50.3539 62.9619 50.12 62.9619 49.8907C62.9252 49.4092 62.8885 48.9139 62.8198 48.414C62.6776 47.4188 62.4804 46.3685 62.1777 45.2816C62.0355 44.7312 61.8567 44.1809 61.664 43.6076C61.4668 43.0389 61.2559 42.4702 60.9715 41.8832C60.6872 41.2778 60.3478 40.6908 59.958 40.1587C59.6003 39.6771 59.2104 39.2002 58.7656 38.7691C59.316 38.2692 59.8525 37.7372 60.224 37.0951C60.6505 36.3476 60.8661 35.4394 60.5955 34.6231C60.1873 33.3619 58.8161 32.6648 57.4999 32.4538C55.9176 32.2062 54.2437 32.4722 52.8219 33.2014C51.8634 33.7013 50.9875 34.4121 49.9739 34.802C48.4604 35.389 46.7544 35.2468 45.1538 35.4624C42.4663 35.8201 39.9576 37.2601 38.2883 39.3928C37.5774 40.3192 37.0088 41.3694 36.7748 42.5067C36.5592 43.6441 36.7014 44.8915 37.3435 45.8684C36.064 45.9739 35.0504 47.1479 34.7981 48.4138C34.5504 49.6749 34.9036 50.9775 35.4218 52.1515C36.0089 53.4678 36.7931 54.6784 37.7333 55.7608C38.5863 56.7377 39.6732 57.6273 40.9711 57.7695C41.3976 57.8245 41.8425 57.7512 42.2506 57.5723C42.6955 58.196 43.1036 58.783 43.4613 59.3334C44.5115 60.9157 45.149 62.1264 45.4884 62.7134C45.383 62.7684 45.2912 62.8556 45.2225 62.961L45.2041 62.9977C44.8647 63.5297 44.4933 64.1535 44.0667 64.901C43.709 65.5247 43.3375 66.1805 42.9661 66.8593L42.9477 66.896C42.9294 66.9327 42.911 66.9694 42.8927 67.0199C42.7688 67.0015 42.6267 67.0015 42.4845 67.0015C42.3423 67.0015 42.1818 66.9832 42.0213 66.9832C41.8608 66.9832 41.6636 67.0015 41.4893 67.0199C41.4022 67.0199 41.2921 67.0382 41.1866 67.0382C41.0811 67.0382 40.9711 67.0565 40.8656 67.0749C40.65 67.1116 40.4024 67.1483 40.1547 67.1987C39.1595 67.3959 37.9488 67.7857 36.5775 68.515C36.3986 68.6021 36.2381 68.7122 36.0638 68.7993C35.885 68.9048 35.7061 69.0148 35.5319 69.1203C35.353 69.2442 35.1741 69.368 34.9999 69.4918C34.9127 69.5652 34.821 69.6156 34.7155 69.689C34.6284 69.7624 34.5367 69.8312 34.4495 69.9046C33.702 70.4549 32.936 71.1153 32.1565 71.8812C30.5926 73.3947 29.0058 75.3483 27.3868 77.7332C26.5843 78.9256 25.7862 80.2418 24.9653 81.6636C24.149 83.0853 23.3464 84.6171 22.5118 86.2544C21.6404 87.9421 20.8929 89.7949 20.3792 91.8587C20.1316 92.8906 19.9344 93.9912 19.8656 95.1332C19.7922 96.2706 19.8656 97.4814 20.1683 98.7105C20.3471 99.4213 20.6315 100.132 21.058 100.774C21.4845 101.416 22.0165 101.967 22.553 102.448C22.819 102.678 23.085 102.911 23.3694 103.122C23.5115 103.228 23.6354 103.338 23.7959 103.462C23.9564 103.586 24.1352 103.691 24.3095 103.783C25.002 104.173 25.7679 104.407 26.5155 104.53C28.5059 105.012 30.5696 104.975 32.5646 104.512C32.4408 105.012 32.2802 105.741 32.1014 106.787V106.842C32.083 107.108 32.2986 107.355 32.5646 107.355H32.6196C35.9905 107.452 40.4529 117.246 53.2075 117.246C56.9269 117.227 63.063 107.562 67.0483 107.543H67.0667C67.4932 107.543 67.8326 107.186 67.8326 106.759C67.8326 106.117 67.8142 105.48 67.8142 104.838V102.934V99.1278V95.7111C68.0298 95.9266 68.3141 96.1743 68.6489 96.477C69.0204 96.7613 69.4148 97.119 69.9101 97.4355C70.8869 98.1097 72.1711 98.8572 73.79 99.4121C74.5926 99.6781 75.4777 99.912 76.4408 99.9992C77.3993 100.105 78.4312 100.105 79.4814 99.912C80.5316 99.7148 81.6139 99.3067 82.6138 98.7197C83.609 98.1326 84.5354 97.3668 85.4067 96.5137C87.1128 94.7893 88.5712 92.6705 89.8737 90.3958C92.4694 85.8601 94.4458 80.5907 96.3628 75.3258ZM82.8295 63.3738C82.9028 62.9106 82.99 62.4474 83.0771 61.9705C83.1642 61.4889 83.2743 60.9753 83.3798 60.4937C83.4853 59.9938 83.6275 59.5169 83.8063 59.017C83.8934 58.7693 83.9852 58.5354 84.0723 58.2878C84.1594 58.0585 84.2695 57.8429 84.3933 57.6641C84.5172 57.4852 84.641 57.3431 84.7648 57.2926C84.8886 57.2192 85.0125 57.2055 85.1546 57.2376C85.2968 57.2743 85.4573 57.343 85.5812 57.4669C85.6179 57.5036 85.6362 57.5219 85.6683 57.554C85.6866 57.5907 85.7233 57.6411 85.7554 57.6778C85.8105 57.765 85.8609 57.8384 85.8976 57.9255C86.0581 58.2832 86.0581 58.7097 86.0214 59.2234C85.9847 59.7233 85.916 60.292 86.0031 60.8974C86.0581 61.2001 86.1452 61.5028 86.2691 61.7688C86.3929 62.0348 86.5901 62.3008 86.8011 62.498C87.2276 62.8878 87.6541 63.085 87.9568 63.3005C88.2778 63.4977 88.4704 63.672 88.6493 63.9059C88.8098 64.1352 88.9336 64.3875 89.0208 64.6351C89.1813 65.135 89.1996 65.612 89.1629 66.0247C89.1263 66.4329 89.0391 66.7906 88.9474 67.0933C88.7685 67.6987 88.608 68.0702 88.5576 68.304C88.5026 68.5517 88.5209 68.6617 88.5943 68.6938C88.6677 68.7305 88.7731 68.7122 88.9658 68.5333C89.1446 68.3544 89.429 68.0196 89.75 67.3959C89.9105 67.0749 90.071 66.6851 90.1582 66.1668C90.2636 65.6532 90.282 65.0111 90.0848 64.3186C89.9977 63.9609 89.8371 63.5894 89.5849 63.2317C89.4611 63.0528 89.3189 62.874 89.14 62.718C88.9612 62.5575 88.7823 62.4337 88.5897 62.3099C88.2182 62.0805 87.8605 61.8833 87.6312 61.6494C87.5074 61.544 87.4156 61.4201 87.3468 61.2596C87.2735 61.0991 87.223 60.9202 87.1863 60.7276C87.1863 60.6909 87.168 60.6543 87.168 60.6222C87.2413 60.5855 87.3101 60.5488 87.3973 60.5167C87.4706 60.48 87.5394 60.4433 87.6266 60.3928C87.6449 60.3745 87.6633 60.3562 87.7 60.3378L87.755 60.3011C87.7917 60.2644 87.8284 60.2461 87.8788 60.214C88.1999 59.948 88.553 59.5903 88.8373 59.095C88.9795 58.8473 89.1217 58.563 89.2088 58.2419C89.296 57.9209 89.351 57.5815 89.351 57.21C89.351 56.8523 89.2776 56.4625 89.1354 56.1094C89.0621 55.9305 88.9749 55.7379 88.8694 55.5774C88.764 55.3985 88.6035 55.238 88.498 55.0958C88.3741 54.972 88.2687 54.8482 88.2136 54.7564C88.1586 54.6693 88.1586 54.6326 88.1586 54.5959C88.1586 54.5776 88.1953 54.5225 88.2641 54.4354C88.3512 54.3483 88.4796 54.2565 88.6218 54.1694C88.9061 53.9722 89.1538 53.83 89.3143 53.83C89.4748 53.8117 89.7041 53.9172 89.9564 54.0777C90.47 54.4354 90.9149 54.9124 91.2359 55.4306C91.5569 55.9442 91.7495 56.4624 91.8596 56.9256C91.9651 57.3888 91.9834 57.8153 91.9651 58.2051C91.9284 58.971 91.7495 59.503 91.6257 59.8928C91.5019 60.2826 91.3964 60.5349 91.3597 60.7091C91.323 60.8697 91.3597 60.9751 91.4147 61.0302C91.4881 61.0852 91.5752 61.0852 91.7358 60.9935C91.8963 60.888 92.1256 60.6908 92.3962 60.2826C92.6438 59.8745 92.9649 59.2507 93.0703 58.306C93.1254 57.8428 93.1254 57.2924 93.0153 56.6871C92.9098 56.1551 92.7126 55.5864 92.3916 54.9994C92.4787 54.8939 92.5888 54.7838 92.731 54.7334C92.9465 54.6279 93.2125 54.6095 93.4968 54.6783C93.7812 54.7517 94.0288 54.926 94.226 55.1782C94.4232 55.4259 94.5838 55.7653 94.6525 56.123C94.7397 56.4807 94.758 56.8889 94.7397 57.297C94.7397 57.7052 94.703 58.1134 94.6663 58.5077C94.5792 59.2736 94.4508 59.879 94.3453 60.3559C94.2398 60.8375 94.1481 61.1723 94.0976 61.4429C93.9921 61.9565 94.0609 62.1354 94.2214 62.2087C94.3636 62.2821 94.5792 62.2454 94.8956 61.7639C95.0561 61.5346 95.235 61.1768 95.4093 60.677C95.5881 60.1771 95.767 59.5029 95.8725 58.6498C95.9275 58.2233 95.9458 57.7601 95.9275 57.297C95.9092 56.8338 95.8725 56.3384 95.7303 55.8385C95.8037 55.8202 95.8725 55.8018 95.9596 55.7835C96.1385 55.7652 96.3494 55.7652 96.565 55.8202C96.7805 55.8752 96.9915 56.0174 97.1887 56.1917C98.005 56.9392 97.9546 58.7003 97.6335 59.9615C97.473 60.6035 97.2621 61.0988 97.0832 61.4749C96.9043 61.8464 96.7622 62.117 96.675 62.328C96.5879 62.5435 96.5329 62.6857 96.5329 62.7912C96.5329 62.8967 96.5695 62.9884 96.62 63.0388C96.675 63.0939 96.7622 63.126 96.8677 63.1122C96.9731 63.0939 97.1337 63.0251 97.3309 62.8646C97.5281 62.704 97.7757 62.438 98.0417 62.0299C98.3077 61.6217 98.5921 61.053 98.7893 60.2688C98.9865 59.5029 99.0553 58.6131 98.9314 57.7602C98.9131 57.6547 98.8947 57.5446 98.8764 57.4391C98.9498 57.4391 99.0186 57.4575 99.1057 57.4758C99.1791 57.4942 99.2479 57.5125 99.3029 57.5492C99.3763 57.5859 99.4451 57.6226 99.5185 57.673C99.8211 57.8702 100.124 58.1867 100.335 58.6178C100.44 58.8333 100.532 59.081 100.582 59.347C100.637 59.613 100.656 59.879 100.656 60.1817C100.637 60.7687 100.495 61.4108 100.266 62.0666C100.05 62.727 99.7845 63.4379 99.5185 64.1121C98.9681 65.4834 98.3261 66.8317 97.6152 67.992C97.5281 68.1341 97.4363 68.2763 97.3492 68.4002C97.2621 68.5423 97.1703 68.6661 97.0832 68.79C96.9043 69.056 96.7438 69.322 96.6016 69.5559C96.299 70.0374 96.0513 70.4456 95.8174 70.785C95.5881 71.1427 95.3725 71.427 95.1753 71.6564C94.9781 71.8857 94.8176 72.0645 94.6755 72.2251C94.6021 72.2984 94.5333 72.3489 94.4782 72.4223C94.4599 72.4406 94.4416 72.4589 94.4232 72.4773C94.4049 72.4773 94.4049 72.4589 94.3865 72.4589C93.584 71.927 92.7493 71.5142 91.9145 71.1244C90.2268 70.3585 88.4978 69.7715 86.7367 69.3267C85.847 69.1111 84.9573 68.9369 84.0309 68.8268C83.6731 68.7901 83.3383 68.7534 82.9806 68.7534C82.9072 68.5057 82.8385 68.2214 82.7651 67.882C82.6412 67.3317 82.5679 66.6529 82.5495 65.8916C82.6137 65.1349 82.6873 64.2818 82.8295 63.3738ZM59.596 66.8226C60.0592 67.1803 60.3435 67.3225 60.5407 67.3363C60.3986 67.373 60.0775 67.6206 59.651 68.0288C59.5272 68.1343 59.4034 68.2581 59.2612 68.4003C59.2612 68.2948 59.2429 68.1847 59.2245 68.0792C59.1878 67.8637 59.1511 67.6711 59.0823 67.4555C59.009 67.24 58.9035 67.0473 58.798 66.8685L58.7796 66.8501C58.743 66.7951 58.7246 66.7447 58.6925 66.6896C58.532 66.4236 58.3027 66.176 58.0321 65.9604C57.945 65.887 57.8716 65.8366 57.7844 65.7816C57.8211 65.7265 57.8716 65.6761 57.9083 65.621C57.9633 65.5477 58.0138 65.4789 58.0688 65.4055C58.2843 65.621 58.477 65.8137 58.6558 65.9925C59.0273 66.3594 59.3483 66.63 59.596 66.8226ZM58.7613 70.5236C58.9768 70.5786 59.2062 70.7025 59.385 70.9134C59.5639 71.129 59.6877 71.4133 59.7427 71.7481C59.7794 72.0875 59.7427 72.459 59.6006 72.8488C59.5272 73.046 59.44 73.257 59.3529 73.4358C59.2979 73.523 59.2658 73.5964 59.1924 73.6835L59.1053 73.8073L58.9998 73.9495C58.4311 74.6787 57.7018 75.4079 57.0231 76.0316C56.349 76.6736 55.794 77.1506 55.3492 77.545C54.9226 77.9349 54.6016 78.2192 54.3906 78.4531C54.2852 78.5586 54.2118 78.6687 54.143 78.7558C53.9825 78.5402 53.8219 78.3109 53.6431 78.0954C52.8405 77.0635 51.9874 76.0867 51.0474 75.1969C50.1026 74.3255 49.1075 73.5229 47.97 72.9359C47.6857 72.7753 47.3647 72.6515 47.062 72.5277C47.1353 72.28 47.1674 71.8673 47.117 71.2986C47.0803 70.9592 47.0115 70.551 46.8877 70.1062C46.8143 69.8769 46.7455 69.643 46.6721 69.3953C46.585 69.1477 46.5116 68.8954 46.4428 68.6478C46.4245 68.5927 46.4062 68.524 46.4062 68.4873C46.4062 68.4322 46.3878 68.3818 46.3878 68.3451V68.2901V68.2717C46.3878 68.2717 46.3878 68.235 46.4062 68.1983C46.4062 68.1616 46.4245 68.1433 46.4245 68.1112C46.4979 67.8635 46.6217 67.6113 46.7822 67.4187C46.8556 67.3316 46.9427 67.2398 47.0482 67.171L47.1216 67.1343C47.1399 67.116 47.1583 67.116 47.1766 67.0977C47.2133 67.0793 47.2638 67.061 47.3188 67.061C47.4243 67.0426 47.5343 67.0426 47.6031 67.0793C47.6765 67.0977 47.7086 67.1343 47.727 67.1527L48.1168 67.382C48.1351 67.4003 48.1535 67.4003 48.1718 67.4187C48.5296 67.5975 48.9744 67.4554 49.1487 67.0793C49.9834 65.3733 50.9281 63.4838 51.8545 61.6539C52.0838 61.1907 52.3177 60.7458 52.5654 60.3193C52.6892 60.09 52.9369 59.9295 53.2075 59.9295C53.4735 59.9111 53.7395 60.0533 53.9 60.2689C53.9734 60.3743 54.0238 60.4982 54.0421 60.6404C54.0605 60.7825 54.0605 60.9063 54.0054 61.0485C53.8633 61.4383 53.7028 61.8511 53.5423 62.2226C53.3817 62.5941 53.2396 62.9701 53.0974 63.3095C52.813 64.002 52.5654 64.6074 52.3682 65.1257C52.171 65.6393 52.0105 66.0521 51.9233 66.3363C51.8362 66.6207 51.7995 66.7812 51.8362 66.8179C51.8912 66.8546 52.015 66.7308 52.2077 66.4969C52.4049 66.2492 52.6525 65.8915 52.9369 65.4099C53.1341 65.0706 53.3634 64.6991 53.5973 64.2726C53.7945 64.1992 54.0055 64.1487 54.221 64.1992C54.5053 64.2542 54.808 64.4652 54.8952 64.7128C54.9502 64.8367 54.9823 64.9972 54.9823 65.1577C54.9823 65.3366 54.9456 65.5154 54.9089 65.6897C54.8034 66.0474 54.6613 66.3501 54.5374 66.5611C54.4136 66.7904 54.3219 66.9509 54.2531 67.0931C54.1293 67.3774 54.166 67.593 54.2898 67.7856C54.4136 67.9644 54.5925 68.1066 55.0006 67.9828C55.1978 67.9094 55.4455 67.7535 55.7298 67.4691C55.8353 67.3453 55.9591 67.2031 56.0876 67.0243C56.193 67.0426 56.3031 67.0426 56.4269 67.0059C56.5508 66.9692 56.6562 66.9692 56.7847 66.9876C56.9085 67.0059 57.0323 67.061 57.1424 67.1481C57.2662 67.2352 57.3717 67.327 57.4634 67.4691C57.4818 67.5058 57.5001 67.5242 57.5185 67.5563C57.6973 67.9277 57.6973 68.4093 57.6056 68.8725C57.5185 69.3357 57.3579 69.7072 57.2341 70.0099C57.1103 70.3126 57.0186 70.5602 56.9681 70.7758C56.881 71.1656 56.9865 71.3628 57.1653 71.505C57.3442 71.6288 57.5735 71.6838 57.9129 71.4316C58.0917 71.3078 58.3027 71.0922 58.5366 70.7574C58.5916 70.6703 58.6604 70.5786 58.7154 70.4547C58.7246 70.5235 58.7429 70.5236 58.7613 70.5236ZM44.0127 58.9618C43.6917 58.4115 43.3386 57.8061 42.9258 57.1641C43.4074 56.7926 43.7422 56.256 43.7422 55.6506C43.7605 54.9398 43.3523 54.2793 43.013 53.6602C42.6736 53.0365 42.3892 52.2889 42.6231 51.6148C42.8524 50.9406 43.8706 50.5646 44.3109 51.1332L44.5768 51.3304C44.719 51.3121 44.8795 51.3121 45.0217 51.2938C44.9346 50.67 44.8429 50.0326 45.0767 49.4455C45.2556 48.9823 45.6087 48.6109 45.861 48.1844C46.1086 47.7395 46.2325 47.2075 46.2004 46.6893C46.182 46.1206 45.8289 45.6574 45.7372 45.1438C46.8378 44.7723 48.0119 44.5935 49.1355 44.2174C50.2545 43.8459 51.3597 43.4011 52.4284 42.8828C54.2078 42.0298 55.8955 40.9796 57.464 39.7689C58.2804 40.5714 58.9958 41.5483 59.4407 42.5252C59.6883 43.0572 59.8855 43.5754 60.0644 44.1075C60.2432 44.6395 60.4038 45.1577 60.5459 45.653C60.8303 46.6666 61.0275 47.6617 61.1697 48.5882C61.243 49.0514 61.2935 49.4962 61.3118 49.941C61.3302 50.1566 61.3485 50.3676 61.3485 50.5831V50.8858C61.3485 50.9913 61.3302 51.083 61.3302 51.1701C61.2935 51.936 61.1009 52.6469 60.8486 53.3027C60.335 54.6006 59.6012 55.6508 58.9821 56.5588C58.6611 57.0221 58.34 57.4853 58.0924 57.9485C57.9686 58.1778 57.8631 58.3933 57.7713 58.5905C57.7163 58.696 57.6842 58.7877 57.6292 58.8932C57.6108 58.9483 57.5925 58.9804 57.5558 59.0354C57.5375 59.0904 57.5008 59.1409 57.4824 59.2142C57.3036 59.6774 57.2669 60.0673 57.2348 60.4249C57.2164 60.7827 57.2164 61.0853 57.2164 61.3513C57.2531 61.8833 57.3036 62.2961 57.3586 62.5805C57.4457 63.0253 57.5558 63.2409 57.6429 63.3097C57.4136 63.3463 57.1981 63.4885 57.0926 63.7178L57.0742 63.7362C56.9137 64.0389 56.7165 64.3783 56.4689 64.713C56.4505 64.7497 56.4138 64.7864 56.3955 64.8185C56.3221 64.5525 56.2166 64.2682 56.0561 64.0159C55.8085 63.6582 55.4691 63.3922 55.1114 63.2684C54.8087 63.1446 54.4693 63.1079 54.1666 63.1446C54.24 63.0207 54.2904 62.8969 54.3638 62.7547C54.561 62.3833 54.7536 62.0072 54.9509 61.5624C55.0747 61.2964 55.1481 60.957 55.1297 60.636C55.1114 60.3149 55.0242 59.9755 54.8454 59.6912C54.506 59.1042 53.8318 58.696 53.1026 58.6777C52.7449 58.6593 52.3734 58.751 52.0524 58.9253C51.7313 59.1042 51.447 59.3702 51.236 59.6912C50.9517 60.1361 50.704 60.5993 50.4334 61.0441C49.7593 62.2548 49.1172 63.4656 48.4935 64.6534C48.3147 64.4745 48.067 64.2635 47.7643 63.993C47.5671 63.8324 47.3562 63.6536 47.1039 63.4426C46.8563 63.2454 46.5719 63.0161 46.2876 62.7684C46.2509 62.7501 46.2142 62.7134 46.2005 62.6951C46.0033 62.5712 45.7923 62.5529 45.5951 62.6079C45.4896 61.9338 44.9759 60.6312 44.0127 58.9618ZM45.4895 65.6668C45.7371 65.2402 45.9527 64.8642 46.1636 64.4927C46.2187 64.5294 46.2875 64.5661 46.3425 64.6165C46.6268 64.7954 46.8745 64.9559 47.1084 65.0797C47.5349 65.309 47.8743 65.4696 48.1219 65.5613C48.1219 65.5796 48.1036 65.5796 48.1036 65.598C48.0852 65.598 48.0852 65.598 48.0669 65.5796C47.7092 65.4741 47.356 65.4741 47.035 65.5246C46.8745 65.5613 46.714 65.598 46.5535 65.6668C46.4113 65.7401 46.2508 65.8273 46.1269 65.8961C45.8793 66.0749 45.7004 66.2676 45.5399 66.4831C45.2189 66.8913 45.04 67.3361 44.9529 67.7443C44.8107 67.5838 44.6869 67.4049 44.5814 67.2306C44.8841 66.6986 45.1868 66.1666 45.4895 65.6668ZM26.8102 102.866C26.7918 102.866 26.7551 102.847 26.7368 102.847C26.1314 102.742 25.5444 102.563 25.0628 102.297C24.939 102.224 24.8152 102.155 24.7051 102.068C24.5996 101.994 24.4574 101.87 24.3336 101.783C24.0676 101.568 23.82 101.357 23.5861 101.141C23.1045 100.715 22.6964 100.288 22.3754 99.8067C22.0543 99.3252 21.8434 98.7932 21.7012 98.2244C21.4581 97.188 21.3848 96.1561 21.4581 95.1242C21.5132 94.1107 21.6875 93.0971 21.9214 92.134C22.4029 90.2124 23.0954 88.4513 23.898 86.869C24.7327 85.2318 25.5169 83.7183 26.3012 82.315C27.0855 80.9116 27.8467 79.6274 28.6127 78.4534C30.1445 76.1053 31.6349 74.202 33.0796 72.7253C33.8088 71.9961 34.5013 71.3356 35.1801 70.8037C35.2673 70.7303 35.3406 70.6615 35.4278 70.5881C35.5149 70.5148 35.6066 70.4643 35.6754 70.3909C35.836 70.2671 36.0148 70.1433 36.1753 70.0332C36.3358 69.9277 36.4964 69.8177 36.6569 69.7122C36.8174 69.6067 36.9596 69.4966 37.1201 69.4095C38.3675 68.6619 39.4499 68.2354 40.3579 67.9694C40.5872 67.9143 40.8028 67.8456 41 67.7905C41.1055 67.7538 41.1972 67.7355 41.3027 67.7171C41.3898 67.6988 41.4999 67.6805 41.587 67.6621C41.7659 67.6254 41.9264 67.5887 42.0869 67.575C42.2474 67.5566 42.3896 67.5383 42.5134 67.5199C42.6556 67.5016 42.7978 67.4832 42.9216 67.4649V67.4832C43.2059 68.1253 43.6508 68.6206 44.114 69.0288C44.5038 69.3865 44.9303 69.6709 45.3614 69.9368C45.4485 70.1524 45.5403 70.345 45.6274 70.5422C45.8063 70.932 45.9117 71.2531 46.0172 71.5374C46.1227 71.8401 46.1961 72.0878 46.2649 72.285C45.6045 72.1428 44.9303 72.0878 44.2745 72.1795C44.169 72.1978 44.0589 72.2529 43.9718 72.3217C43.3114 72.9958 42.6923 73.6562 42.0869 74.3303C41.7842 74.6697 41.4815 74.9908 41.1971 75.3072C41.055 75.4677 40.8945 75.6466 40.7523 75.8071C40.6101 75.9676 40.4863 76.1465 40.3441 76.307C39.2939 77.6599 38.2987 78.9395 37.3539 80.1502C35.4689 82.5717 33.8317 84.7225 32.4788 86.5021C31.126 88.2816 30.0573 89.6848 29.3464 90.6663C28.6356 91.6432 28.2595 92.1798 28.2962 92.2119C28.3329 92.2486 28.7778 91.767 29.5757 90.8406C30.3783 89.9142 31.5156 88.5658 32.9374 86.8552C34.3591 85.1308 36.0698 83.0487 38.0051 80.6822C38.9636 79.4899 39.9955 78.247 41.0824 76.9125C41.2246 76.7519 41.3484 76.5731 41.4906 76.4126C41.6328 76.252 41.775 76.1099 41.9171 75.9494C42.2198 75.6283 42.5225 75.3073 42.8252 74.9908C43.3939 74.4038 43.9809 73.7985 44.5863 73.1931C45.5448 73.1197 46.5446 73.3903 47.4848 73.904C48.48 74.436 49.4064 75.1835 50.2595 76.0228C51.1125 76.8758 51.9334 77.8205 52.681 78.8158C53.0524 79.3157 53.4285 79.8293 53.7816 80.3613C54.0476 80.7695 54.3136 81.196 54.5659 81.6087C52.8048 83.8835 50.9383 86.1996 49.0166 88.4743C46.9894 90.8775 44.889 93.276 42.6647 95.5737C41.5456 96.7111 40.422 97.8485 39.2296 98.8666L38.7847 99.2564C38.7113 99.3298 38.6426 99.3803 38.5554 99.4536L38.3261 99.6325L37.3997 100.362C37.2392 100.486 37.0787 100.577 36.9365 100.701C36.776 100.807 36.6155 100.917 36.455 101.022L35.9734 101.325L35.4735 101.591C34.139 102.302 32.6805 102.765 31.2038 102.98C29.7317 103.256 28.2181 103.219 26.8102 102.866ZM33.1253 106.209C33.1804 105.301 33.1987 104.677 33.1804 104.251C34.2306 103.966 35.2441 103.558 36.2026 103.04L36.753 102.737L37.285 102.398C37.4638 102.292 37.6427 102.169 37.817 102.04C37.9958 101.916 38.1747 101.811 38.3306 101.669L39.3075 100.903L39.5551 100.706C39.6285 100.632 39.7156 100.563 39.7844 100.508L40.2476 100.1C41.4951 99.0134 42.6141 97.8576 43.7515 96.6835C45.9942 94.3354 48.0763 91.8819 50.1034 89.4419C52.1121 86.9884 54.0521 84.5485 55.8683 82.1132V82.0949C56.0104 81.8977 56.0471 81.6133 55.9049 81.384C55.5472 80.7786 55.1941 80.2283 54.818 79.6963C54.7813 79.6229 54.7309 79.5725 54.6759 79.4991C54.7813 79.4807 54.8914 79.4441 55.0336 79.3936C55.3363 79.2698 55.7444 79.0542 56.2627 78.7194C56.7764 78.3801 57.4001 77.9031 58.1109 77.206C58.8401 76.5135 59.5876 75.7292 60.2114 74.7845L60.3353 74.6056L60.4407 74.4084C60.5141 74.2846 60.5829 74.1241 60.6563 73.9819C60.7618 73.7159 60.8535 73.4499 60.9039 73.1656C61.0278 72.5969 61.0278 71.9915 60.8489 71.4595C60.6884 70.9275 60.3674 70.4827 59.9592 70.1984C59.6932 70.0011 59.4089 69.914 59.1429 69.8773C59.551 69.327 59.8904 68.8271 60.1381 68.4189C60.5095 67.7952 60.6884 67.4054 60.6013 67.332H60.6379C60.693 67.4191 60.8856 67.5475 61.3488 67.7218C61.3855 67.7401 61.4038 67.7585 61.4359 67.7768C61.9679 68.0979 62.7154 68.6115 63.4631 69.4508C63.8346 69.859 64.1739 70.3956 64.5133 70.9826C64.816 71.588 65.1187 72.2621 65.3296 73.0281C65.7928 74.5415 66.0405 76.3209 66.1643 78.2563C66.201 78.7378 66.2194 79.2515 66.2377 79.7513C66.2561 80.265 66.2744 80.7832 66.3111 81.3152C66.3478 82.3837 66.3845 83.466 66.3982 84.5897C66.4349 86.8324 66.4533 89.1989 66.4166 91.6341C66.3982 94.0693 66.3432 96.5596 66.3111 99.105C66.2927 100.366 66.2744 101.65 66.2561 102.912L66.2377 104.833V105.952C62.5367 105.952 58.8724 105.934 55.4051 105.934C43.3205 105.943 36.6851 106.049 33.1253 106.209ZM88.7511 89.8086C87.522 92.0513 86.1737 94.1151 84.6053 95.766C83.821 96.6007 82.9681 97.3116 82.0784 97.8848C81.1886 98.4535 80.2439 98.8296 79.2854 99.0406C78.3406 99.2561 77.3821 99.2882 76.4924 99.2194C75.6027 99.1644 74.7496 98.9718 73.9838 98.7562C72.4383 98.293 71.1541 97.6555 70.159 97.0502C69.6453 96.7658 69.2325 96.4448 68.8427 96.1972C68.485 95.9312 68.1685 95.6973 67.9163 95.5047C67.8613 95.468 67.8292 95.4313 67.7741 95.3992C67.7741 94.138 67.7741 92.8906 67.7558 91.6614C67.7191 89.2262 67.6687 86.8413 67.5586 84.5805C67.5036 83.4614 67.4531 82.3562 67.3614 81.2876C67.3247 80.7556 67.288 80.2373 67.2559 79.7237C67.2192 79.2101 67.1825 78.7102 67.1321 78.1919C66.9349 76.2015 66.6001 74.3671 66.0314 72.8032C65.7654 72.019 65.4077 71.3082 65.0545 70.6844C64.6647 70.079 64.252 69.5287 63.8071 69.1205C63.7016 69.0151 63.5915 68.905 63.4861 68.8179C63.431 68.7628 63.3806 68.7307 63.3255 68.6757C63.5732 68.7995 63.8254 68.96 64.1098 69.1206C64.7702 69.5287 65.5131 70.0653 66.3157 70.8083C67.1183 71.5558 68.0034 72.4822 68.9299 73.638C69.3931 74.2067 69.8746 74.8487 70.37 75.5229C70.6176 75.8623 70.8699 76.2338 71.1175 76.5915C71.2414 76.7887 71.3652 76.963 71.5074 77.1602C71.5624 77.2474 71.6128 77.3391 71.6862 77.4262C71.7413 77.5133 71.7917 77.6234 71.8651 77.7289C72.3283 78.5452 72.7915 79.4717 73.3235 80.4347C73.5895 80.9163 73.8922 81.4116 74.2132 81.9115C74.3003 82.0353 74.3921 82.1591 74.4792 82.283C74.5663 82.4068 74.6764 82.5306 74.7819 82.6728L74.9424 82.87L75.1396 83.0672C75.2451 83.191 75.4423 83.3332 75.6028 83.457C75.69 83.5304 75.7817 83.5625 75.8872 83.5992C76.2953 83.7047 76.7035 83.4387 76.7952 83.0489L76.8136 82.9755C77.1346 81.6592 77.5061 80.2559 77.9142 78.7792C78.3408 77.3024 78.8223 75.7569 79.4093 74.1883C79.6936 73.4225 80.0147 72.6749 80.3678 71.9641C80.5467 71.6064 80.7393 71.2716 80.9548 71.0056L81.1154 70.8267L81.2575 70.7029C81.2759 70.7029 81.2942 70.6845 81.3126 70.6662C81.3309 70.6662 81.3309 70.6479 81.3309 70.6479L81.3859 70.6295C81.4593 70.5928 81.5098 70.5745 81.6015 70.5561C81.9042 70.469 82.2757 70.4323 82.6701 70.414C83.0599 70.3956 83.4726 70.4323 83.8808 70.469C84.6971 70.5561 85.5364 70.7166 86.3711 70.9139C88.045 71.322 89.696 71.8724 91.2829 72.5878C92.0671 72.9456 92.8467 73.3354 93.5576 73.7802C93.9153 74.0095 94.2318 74.2434 94.5023 74.5094C94.6262 74.6332 94.7317 74.7571 94.805 74.8671C94.8417 74.9222 94.8601 74.9543 94.8601 74.991C93.9337 77.6051 93.0256 80.1871 92.0303 82.659C91.0673 85.131 89.9803 87.566 88.7511 89.8086Z" fill="#F6E233"/>
<path d="M52.3039 50.62C52.6249 50.8172 53.0881 50.7622 53.2991 50.4595C53.5146 50.1385 53.4046 49.7119 53.2257 49.3726C53.1202 49.157 52.9964 48.9644 52.8359 48.7855C52.5699 48.4645 52.0516 48.5195 51.8774 48.9094C51.7535 49.157 51.6985 49.423 51.7352 49.7119C51.804 50.0651 51.9829 50.4411 52.3039 50.62Z" fill="#F6E233"/>
<path d="M57.6928 45.3555C57.569 45.6032 57.5139 45.8692 57.5506 46.1581C57.6057 46.5296 57.7983 46.8873 58.1193 47.0845C58.4404 47.2817 58.9036 47.2267 59.1145 46.924C59.3301 46.6029 59.22 46.1764 59.0411 45.8371C58.9357 45.6215 58.8118 45.4289 58.6513 45.25C58.4037 44.9107 57.8717 44.9795 57.6928 45.3555Z" fill="#F6E233"/>
<path d="M49.7585 48.9646C49.9006 49.0517 50.0611 49.0884 50.2584 48.9829C50.3638 48.9279 50.4739 48.8408 50.6298 48.7169C50.772 48.5931 50.9509 48.4326 51.1802 48.2354C51.625 47.8456 52.2304 47.4511 52.7625 47.1668C53.2945 46.8825 53.721 46.6669 53.6889 46.4926C53.6705 46.3321 53.1752 46.245 52.4965 46.3505C52.1571 46.4055 51.7856 46.511 51.4096 46.6715C51.0381 46.832 50.6804 47.0613 50.396 47.2952C50.0933 47.5429 49.9145 47.7768 49.7723 47.9694C49.6485 48.1666 49.5751 48.3409 49.5568 48.4693C49.5109 48.749 49.6163 48.8774 49.7585 48.9646Z" fill="#F6E233"/>
<path d="M55.9505 49.4283C56.2532 49.8182 56.5742 50.1759 56.8586 50.4786C57.0007 50.6391 57.1246 50.7813 57.2484 50.9234C57.3539 51.0473 57.4089 51.1527 57.4456 51.2078C57.4456 51.2261 57.4456 51.2261 57.4639 51.2261L57.3906 51.2995C57.3034 51.3545 57.175 51.4233 57.0879 51.4967C56.9824 51.5701 56.8907 51.6205 56.8219 51.6756C56.6614 51.781 56.5192 51.8911 56.3954 51.9782C55.9505 52.3497 55.8955 52.5469 55.9689 52.6891C56.0422 52.8313 56.2348 52.9046 56.8035 52.7258C56.9457 52.6891 57.1062 52.6203 57.3034 52.5469C57.3906 52.5102 57.5006 52.4598 57.6061 52.4231C57.7116 52.3681 57.8217 52.336 57.9776 52.2443C58.1198 52.1571 58.3353 52.047 58.5096 51.7627C58.5967 51.6205 58.6518 51.4417 58.6701 51.2811C58.6885 51.1023 58.6518 50.9418 58.5967 50.7996C58.5096 50.5152 58.3674 50.318 58.2252 50.1392C58.1014 49.9787 57.9593 49.8181 57.7987 49.6393C57.1934 48.9789 56.5513 48.3414 56.2532 47.6306C55.9505 46.9381 56.0055 46.0851 56.3082 45.4613C56.4504 45.1403 56.666 44.8743 56.8769 44.6587C57.0925 44.4432 57.3218 44.2872 57.519 44.1588C57.9272 43.9295 58.2115 43.8194 58.1932 43.7323C58.1932 43.6589 57.8721 43.5718 57.3401 43.714C57.0741 43.7873 56.7714 43.9112 56.4504 44.1221C56.1294 44.3377 55.8084 44.6358 55.5607 45.0302C55.3131 45.42 55.1158 45.9016 55.0471 46.4198C54.9737 46.9335 55.0287 47.5067 55.2076 48.0204C55.3635 48.5753 55.6478 49.0202 55.9505 49.4283ZM57.4639 51.2261C57.4639 51.2078 57.4823 51.2077 57.4823 51.2077C57.4961 51.1894 57.496 51.2078 57.4639 51.2261Z" fill="#F6E233"/>
<path d="M52.6937 56.6829C52.3727 56.3985 52.1801 56.0224 52.0883 55.7381C52.0012 55.4538 51.9645 55.2565 51.8728 55.2382C51.7994 55.2199 51.6573 55.3987 51.6251 55.7886C51.5885 56.16 51.6802 56.715 52.0517 57.247C52.2305 57.513 52.4965 57.7606 52.8359 57.9395C53.1753 58.1183 53.5651 58.2055 53.9549 58.2055C54.7392 58.2055 55.5188 57.8477 56.0004 57.247C56.2297 56.9443 56.3902 56.6049 56.4269 56.2701C56.4452 56.0912 56.4452 55.9124 56.4085 55.7565C56.3718 55.5959 56.3214 55.4538 56.248 55.3299C56.1058 55.0823 55.8903 54.9034 55.661 54.8163C55.4317 54.7292 55.2345 54.7292 55.0923 54.7613C54.7896 54.8346 54.6474 55.0089 54.6107 55.119C54.574 55.2428 54.6291 55.3162 54.6841 55.3666C54.8079 55.4721 54.9685 55.5088 55.1106 55.6143C55.1473 55.6326 55.184 55.6693 55.1978 55.7014C55.2161 55.7381 55.2345 55.7748 55.2528 55.8436C55.2528 55.8803 55.2711 55.917 55.2711 55.9491C55.2711 55.9858 55.2711 56.0362 55.2528 56.0912C55.2345 56.1967 55.1657 56.3389 55.0373 56.4994C54.808 56.8021 54.3768 57.0498 53.9182 57.0865C53.6889 57.1048 53.4734 57.0865 53.2578 57.0131C53.0514 56.9535 52.8542 56.825 52.6937 56.6829Z" fill="#F6E233"/>
<path d="M127.695 87.6028C127.608 87.4413 127.526 87.2429 127.4 87.0122C127.297 86.7954 127.166 86.5462 127.018 86.2786C126.871 85.9926 126.724 85.6881 126.533 85.3282C126.364 84.9683 126.173 84.5946 125.96 84.1655C125.136 82.4492 124.012 80.05 122.953 76.6312C122.68 75.7731 122.446 74.8596 122.189 73.8953C122.124 73.6461 122.085 73.3924 122.02 73.1433C121.976 72.8941 121.916 72.6265 121.851 72.3728L121.807 72.1744L121.785 72.0682L121.763 72.0129L121.742 71.9391C121.698 71.7222 121.572 71.5284 121.425 71.3485C121.13 70.9886 120.639 70.7395 120.115 70.6841C119.859 70.6472 119.586 70.6657 119.313 70.7395C119.057 70.8133 118.806 70.9194 118.593 71.0624C118.32 71.2608 118.042 71.4731 117.769 71.6899C117.643 71.796 117.496 71.9206 117.365 72.0498C117.321 72.1052 117.261 72.1559 117.196 72.1928C117.152 72.1052 117.092 71.9944 117.005 71.8699C116.879 71.6899 116.732 71.4777 116.497 71.2608C116.263 71.044 115.946 70.8133 115.526 70.6334C115.313 70.5457 115.084 70.4719 114.806 70.4165C114.549 70.3612 114.276 70.3427 113.982 70.3289C113.409 70.3104 112.798 70.3842 112.121 70.5596C111.974 70.5965 111.848 70.6472 111.695 70.6841C111.592 70.578 111.422 70.435 111.188 70.292C110.997 70.1858 110.724 70.0751 110.364 70.0428C110.173 70.0244 109.982 70.0428 109.791 70.0982C109.578 70.1535 109.387 70.2227 109.196 70.3473C108.836 70.5642 108.541 70.8641 108.241 71.1686C107.946 71.4731 107.63 71.8145 107.27 72.1882C105.851 73.6923 103.903 75.787 101.278 78.6844C99.9681 80.1332 98.4838 81.7802 96.7922 83.658C95.9464 84.59 95.0568 85.5911 94.1237 86.6476C93.889 86.9152 93.6598 87.1828 93.4033 87.4551C93.1687 87.7226 92.8958 88.0087 92.6612 88.3317C92.4047 88.6546 92.1755 89.0468 92.0664 89.4943C92.0009 89.725 91.9791 89.9788 92.0227 90.2095C92.0445 90.4586 92.1264 90.6939 92.2355 90.9061C92.6175 91.6582 93.2287 92.1611 93.6543 92.641C94.14 93.1577 94.6257 93.6606 95.1168 94.182C96.0882 95.2201 97.1087 96.2766 98.1236 97.3147C100.132 99.3909 102.227 101.467 104.432 103.469C104.432 103.469 104.432 103.488 104.454 103.488V103.506C104.476 103.543 104.497 103.562 104.519 103.58C105.114 104.115 105.725 104.655 106.38 105.172C107.035 105.689 107.673 106.192 108.475 106.658C108.579 106.713 108.688 106.764 108.792 106.819C108.917 106.874 109.027 106.925 109.196 106.962L109.299 106.999C109.343 107.017 109.387 107.017 109.447 107.017L109.594 107.036H109.698H110.08C110.587 107.036 111.117 106.93 111.58 106.768C112.066 106.588 112.492 106.321 112.852 105.998C113.212 105.675 113.463 105.32 113.676 104.941C113.72 104.854 113.741 104.761 113.741 104.674C115.455 102.256 117.13 100.055 118.756 98.0898C120.426 96.069 122.014 94.3158 123.389 92.8994C124.765 91.4876 125.927 90.3757 126.734 89.6421C126.838 89.5544 126.925 89.4621 127.007 89.3745C127.095 89.2868 127.198 89.213 127.264 89.1253C127.433 88.9823 127.558 88.8577 127.668 88.7516C127.88 88.5532 127.962 88.4471 127.94 88.4471C127.919 88.4471 127.771 88.5348 127.515 88.6963C127.389 88.7839 127.258 88.8762 127.073 89.0008C126.985 89.0561 126.904 89.1253 126.8 89.1992C126.696 89.273 126.609 89.3606 126.483 89.4483C125.594 90.1265 124.366 91.1831 122.904 92.5626C121.441 93.9421 119.793 95.6584 118.036 97.6608C116.448 99.4879 114.8 101.546 113.125 103.765C111.771 102.067 110.434 100.383 109.125 98.7358C108.852 98.3944 108.595 98.0392 108.322 97.6793C107.411 96.5166 106.5 95.3355 105.594 94.1543C105.359 93.8498 105.13 93.5638 104.896 93.2593L104.557 92.8117L104.388 92.581L104.241 92.3827C103.881 91.8475 103.668 91.22 103.646 90.611C103.624 89.9835 103.837 89.393 104.197 88.8024C104.535 88.2119 105.021 87.6213 105.468 87.0123C106.402 85.8128 107.351 84.6501 108.328 83.5058C110.276 81.2174 112.284 79.0304 114.32 76.9728C114.849 76.4191 115.379 75.8793 115.886 75.3625C116.394 74.8458 116.901 74.3429 117.387 73.84C117.621 73.5908 117.872 73.3371 118.107 73.1064C118.233 73.0003 118.342 72.8895 118.445 72.7649C118.549 72.6588 118.68 72.5666 118.806 72.4604C119.04 72.2621 119.313 72.0683 119.569 71.8883C119.695 71.8007 119.826 71.7638 119.973 71.7822C120.121 71.8007 120.246 71.8699 120.333 71.9621C120.377 72.0175 120.399 72.0498 120.421 72.1236V72.1421C120.421 72.1421 120.421 72.179 120.443 72.1975L120.464 72.3036L120.508 72.502C120.574 72.7696 120.634 73.0372 120.677 73.2909C120.743 73.5401 120.803 73.8077 120.868 74.0614C121.125 75.0626 121.398 75.9946 121.692 76.8712C122.855 80.3407 124.104 82.74 125.059 84.4609C125.294 84.8899 125.523 85.2683 125.736 85.6051C125.949 85.9465 126.14 86.251 126.331 86.5186C126.5 86.7862 126.669 87.0215 126.816 87.2153C126.882 87.3214 126.964 87.4137 127.029 87.5013C127.095 87.589 127.133 87.6444 127.198 87.7182C127.64 88.2211 127.875 88.4333 127.962 88.4333C128.033 88.5164 128.033 88.3364 127.695 87.6028ZM111.078 105.786C110.761 105.892 110.423 105.966 110.063 105.966H109.79H109.725H109.703H109.681L109.637 105.948C109.594 105.929 109.512 105.892 109.446 105.874C109.359 105.837 109.299 105.8 109.212 105.749C108.579 105.389 107.94 104.891 107.329 104.388C106.734 103.904 106.167 103.387 105.594 102.866C103.94 100.789 102.314 98.7317 100.704 96.6924C99.9018 95.6728 99.0943 94.6716 98.292 93.6658C97.8882 93.1629 97.5062 92.6646 97.1078 92.1802C96.9168 91.931 96.704 91.6957 96.513 91.4466L96.4475 91.3589L96.4038 91.2851C96.3602 91.2482 96.3384 91.1974 96.3165 91.1421C96.251 91.0544 96.2128 90.9437 96.191 90.8376C96.1037 90.5515 96.1037 90.247 96.191 89.9609C96.2347 89.8179 96.2947 89.6749 96.382 89.5688C96.4038 89.5319 96.4257 89.5134 96.4475 89.4811L96.5348 89.3704L96.7258 89.1397C97.2551 88.5122 97.7845 87.8848 98.2702 87.2942C99.2852 86.0947 100.218 84.9688 101.13 83.8939C102.909 81.7485 104.497 79.866 105.872 78.2051C107.247 76.5395 108.431 75.0908 109.468 73.8405C109.975 73.2315 110.439 72.6963 110.952 72.2672C111.078 72.1611 111.209 72.0688 111.334 71.9812C111.4 71.9258 111.46 71.8935 111.525 71.8566C111.591 71.8197 111.651 71.7828 111.694 71.7505C111.951 71.6075 112.224 71.5198 112.497 71.4275C113.048 71.266 113.577 71.1784 114.041 71.1599C114.276 71.1415 114.483 71.1599 114.696 71.1784C114.887 71.1968 115.056 71.2522 115.247 71.3029C115.924 71.5198 116.306 71.8935 116.6 72.1796C116.726 72.3041 116.835 72.4287 116.939 72.521C116.726 72.7378 116.513 72.9501 116.306 73.1669C115.82 73.6698 115.334 74.1681 114.805 74.6895C114.297 75.2062 113.768 75.7645 113.217 76.3182C111.165 78.3759 109.13 80.5951 107.187 82.9204C106.216 84.0831 105.261 85.2826 104.328 86.5006C103.885 87.1096 103.394 87.7186 102.996 88.4153C102.805 88.7752 102.614 89.1305 102.51 89.5226C102.385 89.9148 102.341 90.33 102.341 90.7406C102.363 91.5619 102.636 92.3693 103.127 93.066C103.192 93.1537 103.252 93.2459 103.318 93.3152L103.487 93.532L103.847 93.9795C104.082 94.284 104.311 94.5701 104.546 94.8746C105.479 96.0557 106.407 97.2184 107.34 98.3811C107.574 98.6856 107.825 98.9901 108.06 99.2762C109.479 101.103 110.92 102.963 112.377 104.84C112.033 105.233 111.607 105.592 111.078 105.786Z" fill="#F6E233"/>
<path d="M103.89 100.357C103.55 99.6642 103 98.7378 102.11 97.5821C101.684 96.995 101.166 96.3529 100.634 95.6237C100.102 94.8945 99.5467 94.0414 99.0881 93.0096C98.6432 91.996 98.3405 90.8587 98.4277 89.7167C98.4827 89.148 98.6249 88.5793 98.8542 88.0427C99.0835 87.5107 99.3862 86.9741 99.7255 86.4789C100.4 85.4836 101.239 84.5573 101.987 83.6491C102.752 82.7411 103.482 81.8514 104.174 81.0167C105.545 79.361 106.72 77.921 107.554 76.8708C108.371 75.8389 108.852 75.1968 108.802 75.1648C108.765 75.1281 108.215 75.6968 107.307 76.6598C106.398 77.6184 105.174 79.0263 103.729 80.6269C103.018 81.4294 102.253 82.3008 101.468 83.1905C100.684 84.0986 99.8494 84.9883 99.1019 86.0386C98.7304 86.5522 98.391 87.1255 98.125 87.7263C97.859 88.3317 97.6802 88.9737 97.6251 89.6296C97.5518 90.29 97.6068 90.9458 97.749 91.5695C97.8728 92.1932 98.0883 92.7801 98.336 93.3305C98.8359 94.4312 99.4229 95.3209 99.9917 96.0869C100.56 96.8528 101.079 97.4765 101.523 98.0452C102.413 99.1642 103 100.004 103.372 100.641C103.761 101.283 103.94 101.691 104.083 101.939C104.206 102.187 104.298 102.26 104.349 102.242C104.404 102.223 104.422 102.118 104.385 101.833C104.353 101.549 104.229 101.068 103.89 100.357Z" fill="#F6E233"/>
<path d="M21.9204 71.395C22.5624 71.395 23.1999 71.3583 23.8236 71.2712C25.0528 71.0923 26.2084 70.7208 27.2404 70.2209C27.754 69.9733 28.2539 69.6889 28.6988 69.3862C28.9281 69.2441 29.1437 69.0652 29.3592 68.9047C29.5564 68.7258 29.7674 68.5837 29.9646 68.4048C30.3544 68.0654 30.6938 67.694 31.0148 67.3362C31.3175 66.9647 31.6202 66.607 31.8678 66.2172C32.3677 65.4696 32.7392 64.7221 33.0236 64.0296C33.5739 62.6262 33.7161 61.4338 33.7711 60.6313C33.7895 60.2231 33.7711 59.9204 33.7528 59.7048C33.7344 59.4893 33.6977 59.3838 33.6794 59.3838C33.6427 59.3838 33.6244 59.4893 33.5922 59.7048C33.5556 59.9204 33.5189 60.2185 33.4501 60.5946C33.3079 61.3788 33.0603 62.4978 32.4549 63.7773C32.1522 64.4194 31.7624 65.0936 31.2442 65.7677C31.1892 65.8411 31.1571 65.8915 31.102 65.9649C31.0837 65.8594 31.047 65.7356 31.0149 65.6072C30.9598 65.41 30.8911 65.199 30.7993 64.9651C30.46 64.0066 29.9096 62.6904 29.0199 61.2824C28.5934 60.5716 28.0752 59.8608 27.5065 59.1316C26.9194 58.4207 26.2773 57.7099 25.5849 57.0495C24.8557 56.3753 24.0898 55.7332 23.2734 55.1645L23.3101 55.1278C23.6678 54.7885 24.0209 54.4674 24.342 54.2014C24.3603 54.2014 24.3787 54.2198 24.397 54.2198C24.7364 54.3803 25.0712 54.4353 25.4105 54.4491C25.7499 54.4674 26.0709 54.4124 26.3553 54.3436C26.6396 54.2702 26.9056 54.2014 27.1716 54.1143C27.4193 54.0409 27.6532 53.9721 27.9008 53.9171C28.3824 53.8116 28.8456 53.7199 29.2904 53.7016C30.1618 53.6282 30.9277 53.7566 31.4781 53.8437C31.8679 54.4491 32.1522 55.0361 32.3861 55.5497C32.7072 56.2789 32.886 56.9026 33.0282 57.3979C33.1016 57.6456 33.152 57.8795 33.2071 58.0721C33.2621 58.2693 33.2942 58.4436 33.3309 58.5858C33.4043 58.8885 33.4547 59.0857 33.5097 59.2095C33.5648 59.3333 33.6152 59.3883 33.6703 59.3883C33.7253 59.3883 33.7757 59.3333 33.8308 59.2095C33.8858 59.0857 33.9363 58.8701 33.9546 58.5491C33.973 58.3886 33.9913 58.1914 33.973 57.9804C33.973 57.7649 33.9546 57.5172 33.9179 57.2329C33.8629 56.6642 33.7391 55.9717 33.4547 55.1323C33.1704 54.2977 32.7439 53.3162 32.033 52.2843C31.3222 51.2524 30.327 50.1517 28.9191 49.207C28.2266 48.7254 27.424 48.2989 26.5159 47.9458C25.6078 47.5881 24.6126 47.3404 23.5257 47.2166C22.9753 47.1616 22.425 47.1295 21.838 47.1432C21.5536 47.1432 21.2509 47.1799 20.9666 47.1983C20.6639 47.235 20.3612 47.2716 20.0585 47.3221C19.7559 47.3771 19.4532 47.4459 19.1505 47.5193C18.8478 47.6064 18.5451 47.6798 18.2241 47.8036C17.6187 48.0192 16.9949 48.2852 16.3896 48.6062C15.1789 49.2666 14.0598 50.138 13.115 51.1836C12.1703 52.2339 11.3906 53.4767 10.854 54.8297C10.588 55.5038 10.3725 56.201 10.2303 56.9302C10.0881 57.641 10.0148 58.3703 10.001 59.1178C9.98266 60.5762 10.2165 62.053 10.7119 63.4243C11.2117 64.7956 11.9593 66.0751 12.8812 67.162C13.8076 68.2627 14.9266 69.1524 16.1373 69.8495C17.348 70.542 18.6459 70.9869 19.9622 71.2208C20.6226 71.3263 21.2783 71.395 21.9204 71.395ZM26.722 59.7598C27.3091 60.4202 27.8227 61.0761 28.2859 61.7365C29.2123 63.0344 29.8865 64.2634 30.3313 65.1348C30.4368 65.3503 30.5469 65.5613 30.634 65.7218C30.7212 65.9007 30.7945 66.0429 30.8633 66.1667C30.8633 66.1667 30.8633 66.185 30.8817 66.185C30.7212 66.3822 30.5423 66.5565 30.3818 66.7537C30.0607 67.0748 29.7397 67.3958 29.3682 67.6985C29.1894 67.859 28.9968 68.0012 28.7995 68.1433C28.6023 68.2855 28.3914 68.4277 28.1758 68.5515C27.7493 68.8175 27.2861 69.0514 26.823 69.2624C25.8644 69.6889 24.7958 69.9916 23.6723 70.1154C23.1127 70.2025 22.5395 70.2209 21.9525 70.1842C21.6681 70.1658 21.3838 70.1475 21.0995 70.1108C21.0261 69.9136 20.9573 69.6843 20.8702 69.4183C20.728 68.9184 20.6042 68.3176 20.5491 67.6206C20.4941 66.9281 20.5491 66.1622 20.673 65.3458C20.8151 64.5295 21.0307 63.6581 21.2783 62.7317C21.4021 62.2685 21.526 61.8053 21.636 61.31C21.6911 61.0624 21.7415 60.8285 21.7966 60.5808C21.8516 60.3332 21.902 60.0809 21.9204 59.7966C21.9571 59.5306 21.9571 59.2279 21.9204 58.9252C21.8837 58.6225 21.7782 58.2831 21.5994 57.9988C21.4572 57.7695 21.2783 57.5906 21.0674 57.4301C21.2095 57.2513 21.3517 57.0907 21.4939 56.9302C21.7966 56.6138 22.113 56.3111 22.3974 55.9901C22.4845 56.0451 22.5762 56.0955 22.6633 56.1689C23.4109 56.6826 24.1401 57.2558 24.8142 57.8566C25.493 58.462 26.135 59.104 26.722 59.7598ZM30.9367 53.0732C30.955 53.0915 30.9734 53.1099 30.9734 53.1282C30.4918 52.9861 29.9231 52.8439 29.2489 52.8256C28.749 52.8072 28.217 52.8256 27.6851 52.9127C27.4191 52.9494 27.1347 52.9998 26.8687 53.0732C26.6027 53.1282 26.3551 53.197 26.1212 53.2337C25.9056 53.2704 25.6947 53.2888 25.4975 53.2704C25.8185 53.0411 26.1212 52.8256 26.3872 52.6467C27.2402 52.078 27.8822 51.7019 28.3455 51.4176C28.5932 51.2754 28.7904 51.1516 28.9325 51.0461C29.781 51.7019 30.423 52.3989 30.9367 53.0732ZM28.0932 50.4407C28.1483 50.4774 28.1987 50.5141 28.2537 50.5462C28.1666 50.5646 28.0749 50.6012 27.9877 50.6333C27.4558 50.8306 26.7266 51.1332 25.8001 51.6836C25.3919 51.9129 24.9471 52.2156 24.4656 52.555C24.4472 52.5045 24.4289 52.4311 24.4289 52.3623C24.4105 52.1835 24.4289 52.0046 24.4656 51.8487C24.4839 51.7616 24.5023 51.6882 24.5389 51.6194C24.5756 51.546 24.6123 51.4589 24.6444 51.3901C24.7866 51.1057 24.9838 50.8581 25.1764 50.6425C25.5479 50.1977 25.8873 49.8766 26.0845 49.5923C26.1212 49.5556 26.1395 49.5052 26.1716 49.4685C26.8825 49.7482 27.5245 50.083 28.0932 50.4407ZM17.169 50.0326C17.6826 49.7482 18.2192 49.5189 18.7512 49.34C19.0172 49.2529 19.2832 49.1795 19.5538 49.0924C19.8198 49.0374 20.0858 48.9686 20.3564 48.9135C20.6224 48.8585 20.87 48.8402 21.1406 48.8081C21.4066 48.7897 21.6543 48.753 21.9065 48.753C22.4064 48.7347 22.9017 48.753 23.3832 48.8081C24.0436 48.8814 24.6627 49.0053 25.2498 49.1658C25.0205 49.3263 24.7361 49.5556 24.3784 49.8766C24.1307 50.1059 23.8647 50.4086 23.6125 50.8351C23.5575 50.9406 23.4887 51.0507 23.4336 51.1745C23.3603 51.2754 23.3236 51.4176 23.2869 51.5598C23.2135 51.8441 23.1814 52.1468 23.2135 52.4678C23.2502 52.7522 23.319 53.0365 23.4612 53.3209C23.1447 53.5869 22.8099 53.8895 22.4705 54.2106C22.3834 54.2839 22.31 54.3711 22.2229 54.4399C21.7964 54.1739 21.3699 53.94 20.9434 53.729C19.3062 52.9264 17.8661 52.61 16.7471 52.4678C15.6281 52.3257 14.8072 52.3624 14.2201 52.4128H14.2018C14.2568 52.3578 14.2889 52.3073 14.344 52.2523C15.1603 51.3488 16.1371 50.5828 17.169 50.0326ZM11.5647 59.1407C11.6014 57.8612 11.8674 56.5953 12.3489 55.4213C12.67 54.637 13.0781 53.8895 13.5781 53.197C13.7569 53.2153 13.9679 53.252 14.2201 53.2704C14.7705 53.3254 15.5547 53.3942 16.5682 53.5731C17.6001 53.7703 18.8797 54.0867 20.3931 54.8205C20.7141 54.981 21.0352 55.1415 21.3378 55.3342C21.2507 55.4396 21.159 55.5314 21.0535 55.6368C20.893 55.7974 20.7508 55.9762 20.5903 56.1505C20.3747 56.3981 20.1821 56.6504 19.9849 56.9164C19.7373 56.843 19.4713 56.8109 19.219 56.7925C19.0769 56.7742 18.953 56.7742 18.8109 56.7742H18.4027C17.8707 56.8109 17.3525 56.898 16.8709 57.0585C14.931 57.6823 13.7569 58.8747 12.991 59.7461C12.4039 60.4203 12.0141 61.0256 11.7435 61.5255C11.6197 60.7596 11.5463 59.9386 11.5647 59.1407ZM14.0045 66.2355C13.2019 65.2587 12.5644 64.1167 12.1563 62.9106C12.138 62.8372 12.1196 62.7868 12.0829 62.7134C12.138 62.6262 12.2068 62.5345 12.2801 62.4474C12.6379 61.9658 13.0827 61.31 13.844 60.5075C14.0412 60.3103 14.2522 60.0993 14.486 59.8838C14.7154 59.6682 14.9676 59.4756 15.2336 59.26C15.7839 58.8702 16.4627 58.4575 17.2607 58.2098C17.6505 58.086 18.0771 57.9943 18.5082 57.9805C18.6136 57.9805 18.7237 57.9622 18.8292 57.9622C18.9347 57.9622 19.0447 57.9622 19.1502 57.9805H19.2236C19.1365 58.1043 19.0448 58.2465 18.9576 58.3703C17.9441 59.9159 17.1415 61.5531 16.5544 63.0299C15.9674 64.5067 15.5776 65.8229 15.3621 66.7814C15.307 67.0474 15.2566 67.2813 15.2199 67.4739C14.7842 67.107 14.3577 66.6987 14.0045 66.2355ZM15.495 67.7306C15.5821 67.515 15.6922 67.249 15.816 66.9463C16.1737 66.0566 16.669 64.7955 17.3478 63.4058C18.022 62.0025 18.8796 60.4707 19.8932 59.0306C20.0537 58.815 20.2142 58.5857 20.3747 58.3702C20.4802 58.4436 20.5903 58.5307 20.6407 58.6362C20.8196 58.8838 20.8563 59.2782 20.8196 59.7048C20.8012 59.9203 20.7645 60.1496 20.7324 60.3973C20.6957 60.6266 20.6453 60.8788 20.6086 61.1081C20.5215 61.5897 20.4114 62.0529 20.3059 62.5115C20.1087 63.4379 19.9161 64.3597 19.8244 65.2494C19.7372 66.1391 19.751 66.9738 19.8794 67.7214C20.0032 68.4689 20.2188 69.0927 20.4297 69.5879C20.5031 69.7667 20.5903 69.9273 20.6591 70.0694C20.4985 70.0511 20.3564 70.0144 20.1959 69.9823C19.0401 69.753 17.8844 69.3081 16.8158 68.6844C16.371 68.3909 15.9261 68.0883 15.495 67.7306Z" fill="#F6E233"/>
<path d="M79.0043 39.9807C79.0777 39.944 79.1465 39.8752 79.1281 39.678C79.1281 39.4808 79.041 39.146 78.7383 38.7011C78.5962 38.4718 78.3668 38.2379 78.0642 37.9903C77.7615 37.761 77.3533 37.5271 76.8535 37.3849C76.3536 37.2427 75.7344 37.2061 75.0557 37.3482C74.7347 37.4354 74.3816 37.5454 74.0422 37.738C73.7028 37.9353 73.3818 38.1829 73.0974 38.5039C72.5288 39.146 72.1527 40.0174 72.1389 40.9254C72.1022 41.8335 72.4416 42.7599 73.0286 43.4524C73.6157 44.1449 74.4503 44.6081 75.2896 44.7319C75.7162 44.8052 76.1427 44.7869 76.5371 44.7135C76.9453 44.6401 77.303 44.4842 77.6378 44.3053C78.2982 43.9338 78.7751 43.3789 79.0594 42.8286C79.3254 42.2783 79.4309 41.7279 79.4172 41.2831C79.3988 40.8382 79.3117 40.4988 79.22 40.2879C79.1282 40.0723 79.041 39.9623 79.0043 39.9807Z" fill="#F6E233"/>
<path d="M93.3044 36.4585C92.6807 36.6878 92.3459 37.3666 92.5752 38.004C92.8045 38.6277 93.5016 38.9625 94.1208 38.7332C94.7445 38.5039 95.0793 37.8252 94.8499 37.1877C94.6206 36.564 93.9281 36.2475 93.3044 36.4585Z" fill="#F6E233"/>
<path d="M93.0014 32.064C92.7721 31.4403 92.0934 31.1055 91.4559 31.3348C90.8322 31.5641 90.4974 32.2612 90.7267 32.8803C90.956 33.504 91.6531 33.8388 92.2722 33.6095C92.896 33.3802 93.2353 32.6877 93.0014 32.064Z" fill="#F6E233"/>
<path d="M94.941 32.9727C94.3173 33.202 93.9825 33.8808 94.2118 34.5182C94.4411 35.142 95.1382 35.4768 95.7574 35.2474C96.3811 35.0181 96.7159 34.3394 96.4866 33.7019C96.2572 33.0782 95.5647 32.7572 94.941 32.9727Z" fill="#F6E233"/>
<path d="M89.8186 34.8207C89.1949 35.05 88.8601 35.7287 89.0894 36.3662C89.3187 36.9899 90.0158 37.3247 90.6349 37.0954C91.2586 36.8661 91.5934 36.1873 91.3641 35.5499C91.1348 34.9124 90.4423 34.5914 89.8186 34.8207Z" fill="#F6E233"/>
<path d="M116.451 84.5574C116.043 84.0437 115.635 83.4567 115.259 82.8514C114.887 82.246 114.548 81.6407 114.263 81.0903C113.695 79.9896 113.337 79.1319 113.176 79.1687C113.016 79.2054 113.071 80.1639 113.479 81.4114C113.676 82.0351 113.961 82.7276 114.295 83.4018C114.653 84.0759 115.061 84.7363 115.488 85.2867C116.359 86.4057 117.02 86.9239 117.428 87.1717C117.836 87.401 118.015 87.3505 118.139 87.2267C118.244 87.1029 118.262 86.9057 118.033 86.5342C117.767 86.1627 117.249 85.5893 116.451 84.5574Z" fill="#F6E233"/>
<path d="M114.51 87.1403C113.85 86.3377 113.107 85.3426 112.534 84.5446C111.965 83.742 111.538 83.1412 111.378 83.21C111.236 83.2834 111.378 84.0126 111.786 84.9711C112.194 85.9159 112.855 87.0532 113.566 87.9063C114.276 88.7593 114.776 89.1674 115.111 89.3464C115.45 89.5252 115.611 89.4702 115.735 89.3464C115.859 89.2225 115.895 89.062 115.735 88.741C115.542 88.4016 115.166 87.9383 114.51 87.1403Z" fill="#F6E233"/>
</svg>
